<svg xmlns="http://www.w3.org/2000/svg" width="9.986" height="9.273" viewBox="0 0 9.986 9.273">
  <path id="Icon_ionic-ios-star" data-name="Icon ionic-ios-star" d="M11.857,6.585H8.578l-1-2.974a.361.361,0,0,0-.678,0l-1,2.974h-3.3a.358.358,0,0,0-.357.357A.262.262,0,0,0,2.257,7a.343.343,0,0,0,.149.252L5.1,9.153,4.067,12.16a.358.358,0,0,0,.123.4.345.345,0,0,0,.2.087.437.437,0,0,0,.223-.08l2.63-1.875,2.63,1.875a.418.418,0,0,0,.223.08.32.32,0,0,0,.2-.087.353.353,0,0,0,.123-.4L9.383,9.153l2.673-1.917.065-.056a.341.341,0,0,0-.263-.6Z" transform="translate(-2.25 -3.375)" fill="#656565"/>
</svg>
