<svg xmlns="http://www.w3.org/2000/svg" width="23.963" height="17.225" viewBox="0 0 23.963 17.225">
  <g id="graduation-hat" transform="translate(0 -71.987)">
    <path id="Path_76" data-name="Path 76" d="M23.512,76.917,12.279,72.049a.748.748,0,0,0-.6,0L.45,76.917a.75.75,0,0,0,0,1.374l11.233,4.868a.748.748,0,0,0,.6,0l7.94-3.441v7.975a.763.763,0,0,0,.713.769.749.749,0,0,0,.785-.748V79.446a.234.234,0,0,0-.2-.232l-9.628-1.242a.749.749,0,0,1,.139-1.49c.034,0,10.706,1.379,10.7,1.378a.564.564,0,0,1,.442.326.236.236,0,0,0,.316.12.751.751,0,0,0,.033-1.39Z" fill="#fff"/>
    <path id="Path_77" data-name="Path 77" d="M102.567,284.313,96.3,281.6a.234.234,0,0,0-.327.215V284.5c0,2.52,3.29,4.493,7.489,4.493s7.489-1.974,7.489-4.493v-2.687a.234.234,0,0,0-.327-.215l-6.269,2.716A2.244,2.244,0,0,1,102.567,284.313Z" transform="translate(-91.48 -199.78)" fill="#fff"/>
  </g>
</svg>
