<svg xmlns="http://www.w3.org/2000/svg" width="14.621" height="14.621" viewBox="0 0 14.621 14.621">
  <path id="Icon_awesome-download" data-name="Icon awesome-download" d="M6.168,0H8.453a.684.684,0,0,1,.685.685v4.8h2.5a.57.57,0,0,1,.4.974L7.7,10.8a.553.553,0,0,1-.78,0L2.573,6.457a.57.57,0,0,1,.4-.974H5.483V.685A.684.684,0,0,1,6.168,0Zm8.453,10.737v3.2a.684.684,0,0,1-.685.685H.685A.684.684,0,0,1,0,13.936v-3.2a.684.684,0,0,1,.685-.685H4.875l1.4,1.4a1.463,1.463,0,0,0,2.073,0l1.4-1.4h4.189A.684.684,0,0,1,14.621,10.737ZM11.08,13.25a.571.571,0,1,0-.571.571A.573.573,0,0,0,11.08,13.25Zm1.828,0a.571.571,0,1,0-.571.571A.573.573,0,0,0,12.908,13.25Z" fill="#fff"/>
</svg>
