<svg xmlns="http://www.w3.org/2000/svg" width="17.401" height="11.601" viewBox="0 0 17.401 11.601">
  <path id="Icon_awesome-eye" data-name="Icon awesome-eye" d="M17.3,9.859A9.689,9.689,0,0,0,8.7,4.5a9.691,9.691,0,0,0-8.6,5.36.977.977,0,0,0,0,.882A9.689,9.689,0,0,0,8.7,16.1a9.691,9.691,0,0,0,8.6-5.36A.977.977,0,0,0,17.3,9.859ZM8.7,14.651a4.35,4.35,0,1,1,4.35-4.35A4.35,4.35,0,0,1,8.7,14.651Zm0-7.25a2.879,2.879,0,0,0-.765.114A1.446,1.446,0,0,1,5.915,9.536,2.894,2.894,0,1,0,8.7,7.4Z" transform="translate(0 -4.5)" fill="#d41313" opacity="0.4"/>
</svg>
