<svg xmlns="http://www.w3.org/2000/svg" width="15.205" height="15.205" viewBox="0 0 15.205 15.205">
  <path id="Icon_metro-earth2" data-name="Icon metro-earth2" d="M10.173,17.133a7.6,7.6,0,1,1,7.6-7.6A7.6,7.6,0,0,1,10.173,17.133Zm6.162-8.24a.047.047,0,0,0,.024-.033.232.232,0,0,0,.073.134s0,0,0,.01.007,0,.01,0a.23.23,0,0,0,.145.054.234.234,0,0,0,.2-.115.114.114,0,0,1,.01.011c0-.008,0-.015,0-.023a.231.231,0,0,0,.031-.112.238.238,0,0,0-.238-.238.235.235,0,0,0-.2.11s0-.007-.005-.005a.215.215,0,0,0-.037-.114v.246A.248.248,0,0,1,16.335,8.894ZM5.418,8.822c0-.072-.163-.194-.206-.194,0-.013-.067-.159-.092-.159,0-.049-.173-.271-.2-.174-.018.063.133.147.133.22.028,0,.146.223.169.262.258.435-.192.138-.192-.047a.606.606,0,0,1-.148-.307.982.982,0,0,1-.125-.239c0-.139-.077-.205-.229-.205-.007-.014-.135-.193-.137-.193a.5.5,0,0,0-.16-.262A1.842,1.842,0,0,1,4.2,7.137a1.311,1.311,0,0,0-.05-.407,6.631,6.631,0,0,0,3.745,9.042c0-.236.02-.518.074-.518,0-.035.03-.182.057-.182a2.879,2.879,0,0,0,0-.307c-.034-.068.045-.155.068-.262.132-.066.038-.728.138-.728a4.514,4.514,0,0,0,.022-.831c.025,0-.15-.186-.148-.182-.168,0-.285-.269-.285-.387a.717.717,0,0,1-.057-.193c.038,0-.24-.407-.24-.4-.147-.082.008-.2.023-.33-.128-.042,0-.387.057-.387a.107.107,0,0,1,.069-.091c.029.114.161-.057.057-.057,0-.075-.009-.236,0-.273,0-.116-.1-.343-.182-.1-.086-.042-.3-.035-.32-.171.013-.067-.123-.2-.171-.228.045-.117-.231-.273-.331-.273,0-.025-.053-.014-.068-.046-.1,0-.125-.137-.24-.137-.133,0-.266-.091-.388-.091-.041-.081-.23-.049-.274-.137-.1,0-.138-.188-.141-.258,0-.086-.072-.381-.191-.381Zm9.625-3.813a.024.024,0,0,1,0,.01c.007,0,.016.008.024.011Zm.143.157a.153.153,0,0,1,.025.081c.017,0,.025-.009.038-.012C15.229,5.212,15.206,5.19,15.186,5.166ZM15.6,7.331c.008-.205-.171-.171-.228-.285-.059,0-.08-.046-.16-.046a.1.1,0,0,0-.123.037c-.122.047-.048-.059-.14-.059,0-.117-.042-.15-.172-.137-.074.167-.188.268-.171.456.055.012.045.025.034.079.073,0,.514-.023.514-.068.015,0,.092.157.092.023.061,0,.094.144.24.1,0,.029.244-.1.114-.1Zm.023,2.425c.009-.042-.021-.06-.046-.1.065,0-.206-.5-.206-.581-.041-.02-.094-.164-.1-.216a.546.546,0,0,1-.137-.228.825.825,0,0,1-.217-.285c.082.009.205.026.205-.08-.055,0-.063-.068-.011-.068-.017-.07.037-.12.049-.175a1.289,1.289,0,0,0,.042-.247.376.376,0,0,0-.16.034c0,.046-.139-.011-.16-.011-.03-.06-.247.078-.308-.046-.1-.089-.072-.157-.1-.283-.016-.064-.1-.067-.156-.078-.149-.029-.041.177-.049.224.091,0-.057.113-.057.171-.154-.033-.1-.2-.193-.25-.027-.046-.006-.08-.069-.08,0-.061.032-.171-.034-.193,0-.029-.129-.041-.148-.08-.082,0-.272-.309-.33-.2-.037.067.031.083.045.137.118-.023.107.195.251.171a.4.4,0,0,0,.011.091c.107-.025.095.079.148.079-.039.052-.163-.083-.129.03.019.066.009.122-.077.186,0-.071-.006-.262-.08-.262-.05-.1-.2-.077-.263-.171-.051,0-.071-.16-.16-.171a.178.178,0,0,1-.1.046c-.048.1-.319.01-.319.023s-.152.362-.161.41c-.017.1-.1.1-.124.2-.012.048-.31.026-.31.061a.3.3,0,0,1-.24-.273,2.144,2.144,0,0,1,.046-.41c.026.007.031.016.046.046.079-.029.263.019.263-.068q.115,0,.068.091c.071.013.194.031.194-.068-.042,0-.046,0-.046-.046.137-.142-.1-.27-.1-.341-.048-.016-.147-.121-.077-.082s.277.1.191-.044a.016.016,0,0,0,.011-.011c.024.017.126.122.126.023.028,0,.136-.068.046-.068.009-.051.007-.094.011-.125.145.078.064-.053.137-.1,0,.095.078-.046.125-.046.057-.084.186-.019.217-.114-.07-.023-.057-.2-.057-.261.084.014.178-.114.191-.026,0,.034.009.127.026.14.125.066.092-.038.092-.1-.042,0-.1-.146-.1-.217-.034,0-.089.019-.1.045-.124,0-.209-.045-.308-.045a1.765,1.765,0,0,1-.114-.148c-.069-.119.069-.085.091-.09,0-.113.471-.093.491-.274-.155,0,.16-.262.16-.261.105-.09.161-.167.291-.177.055,0,.668-.173.668-.1l.191,0a6.623,6.623,0,0,0-8.928-.1.168.168,0,0,1,.018.063c.062,0,.152-.044.172.035a.39.39,0,0,1-.091-.012c.022.176-.077.068-.16.068a.23.23,0,0,0-.076-.029l-.077.07c0,.008,0,.008,0,.017.027,0,.013.041.089.067a1.693,1.693,0,0,0,.277.061A.882.882,0,0,0,6.1,4.883c0-.01.157-.079.046-.079.015-.063-.013-.078-.08-.079.006-.067.164-.023.229-.023.049-.083,0-.073.045-.149.052-.093.115-.012.149-.1a.159.159,0,0,1,.115.113c.041.034.251.344.251.125.075.025.113.166.114.239.136-.02.148-.122.148-.228.031,0-.011-.051-.011-.068.051-.019.115.048.115-.022.022,0,.023.022.023.046.071.014.116-.008.16.007s.015.166,0,.22-.15.07-.15.1c-.15.112.177.171.229.239A.632.632,0,0,1,7.337,5.2c-.074,0-.254.078-.32.022.092,0,.123-.111.137-.216a.163.163,0,0,0-.209.105c-.04.14-.133-.006-.179.088-.018.006-.183.082-.183.057-.185.026-.137.183-.137.353.074.044.223.17.217.239.166.029.227.047.377.068a.181.181,0,0,0,.092.057c0,.1.089.08.171.08,0-.125.145.1.16.148-.02,0,.034.128.046.171-.023-.008-.03,0-.023.023.072.027.187.019.206-.057-.069,0-.046-.079-.046-.125a.086.086,0,0,1,.011-.159c0,.065.235-.04.1-.091a.256.256,0,0,0,0-.248c-.034-.04-.076,0-.093-.06.09-.022.024-.193.023-.273.029-.011.1.018.1,0,.088,0,.234.111.286-.023.147.067.03.131.183.08a.66.66,0,0,0,.194.2c0,.008,0,.057.034.057,0,.037-.023-.021-.023.045.021,0,.137.023.137-.022.074,0,.125-.09.125-.159.046-.03.127.25.182.25.041.064.172.156.172.216.028.028.057.02.057.1.035,0,.1-.136.1-.011a.216.216,0,0,1,.137.125c-.082,0,0,.08-.047.08,0,.079-.176.016-.216.011-.055.245-.384.069-.584.132a.68.68,0,0,0-.319.38c.127,0,.183-.11.3-.148.093,0,.111-.056.194-.079,0,.023.023.011.023.034-.163,0-.064.105-.016.182a.2.2,0,0,0,.1.085.452.452,0,0,0-.038.086h0c-.031.01-.091.033-.1.057-.184.02-.093.008-.081-.036.007.016.073,0,.07,0-.011-.055-.028-.048-.011-.079-.1,0-.148.046-.229.046-.013.027-.083.091-.114.091a.54.54,0,0,1-.137.239c0-.019-.163.1-.148.1-.036.058-.076.057-.092.148a.767.767,0,0,0-.057.182C7.8,7.811,7.775,8,7.655,8c-.074.146-.206.127-.206.319a1,1,0,0,1,.076.312c.017.08.044.164-.064.166-.008-.012-.083-.125-.069-.125A.724.724,0,0,0,7.3,8.429c-.045-.063-.129.01-.194-.018-.028-.056-.218-.068-.285-.068.011.042.042.056.046.1a.259.259,0,0,1-.146.04c-.1-.014-.087-.091-.2-.08a.33.33,0,0,0-.3.336,1.006,1.006,0,0,0,0,.342c0,.1.08.166.08.239.077,0,.164.171.24.171.009.06-.038.07.091.069,0-.007.07-.044.08-.091-.089-.022,0-.137.057-.159,0,.081.114-.027.114-.034l.126-.046c0-.092.086.009.023.046-.062,0-.057.1-.091.1-.015.073-.044.137-.061.208-.022.088.049.1.027.179a1.429,1.429,0,0,0,.274,0,.081.081,0,0,0-.011-.046c.133,0,.011.25.092.25,0,.095.046.168.046.228a.151.151,0,0,1,.08.171c.076.01.239.029.239-.068.115,0,.124.078.115.159.23,0,.086-.228.182-.228.009-.038.025-.044.047-.019.047.025.083-.047.12-.07a.31.31,0,0,1,.061-.032c.032.019.035.014.049.036a.342.342,0,0,0,.18-.073c.082.01.056.187.21.2a.547.547,0,0,0,.258-.015c.013-.009.062.031.067.048.051,0,.048.045.069.044a.019.019,0,0,0,.023.011c.007.019.048.025.069.079,0,.049.1.058.1.091.074.037-.025.047.088.081a.821.821,0,0,0,.187.056c.021-.081.091.011.126.011.018.037.028.009.045.046.106.088.036.054.08.148.051.033.067.149.081.216-.041,0-.012.156-.012.171-.049,0,.126.094.126-.023.072.012.12.091.171.091-.03.069.08.121.08.012.108.011.079.172.069.228.08,0,.1-.045.172-.053a.465.465,0,0,1,.25-.081.475.475,0,0,1,.475.475.469.469,0,0,1-.4.46.831.831,0,0,1-.06.065c0,.023-.005.25-.012.25,0,.046-.035.3-.068.3,0,.129-.084.152-.114.273-.069.051-.257.137-.286.193-.054,0-.094.046-.148.046-.008.016-.124.125-.1.125-.009.081.006.271-.038.324-.029.035-.072.031-.053.086-.064,0,0,.046-.1.046a.226.226,0,0,0-.181.168.253.253,0,0,1-.11.22c0,.032-.148.042-.148.125.014,0,0,.155,0,.171a.27.27,0,0,0-.171.079c-.149,0-.131.015-.228.08,0,.02-.014.091-.034.091,0,.115-.082.01-.149.069.026,0,.059.114.046.114,0,.1-.062.109-.125.182-.03.02-.058.1-.08.1,0,.067-.034.129-.034.193.014,0,0,.029.011.056.032-.009.033-.045.046-.045,0-.057.091.034.034.034-.047.071-.1.073-.126.171-.029,0-.053.028-.074.06a6.613,6.613,0,0,0,7.336-2.8,1.823,1.823,0,0,1,.052-.384c.047.034.081.1.114,0-.082-.016-.062-.045-.034-.114a.288.288,0,0,0,.146.039c.016-.029.028-.061.044-.09-.047-.036.018-.13.04-.084.012-.023.022-.047.033-.069-.005,0,0,0-.011,0,0-.041.008-.036.035-.057a.042.042,0,0,0,0,.008,6.617,6.617,0,0,0,.654-2.862c0-.034,0-.066-.005-.1-.012.047-.036.1-.068.108,0,.03-.34.178-.319.239-.06,0-.27.06-.308.136a.53.53,0,0,0-.229.091c-.212,0-.172-.25-.274-.25Zm.966-2.6h-.252s0,0-.006-.006-.067-.121-.046-.148a.337.337,0,0,1,.041,0c-.021-.052-.045-.1-.068-.155a.328.328,0,0,1-.167.084c0,.019-.1.216,0,.216a.035.035,0,0,0,0,.01.236.236,0,0,0,.02.472h.094c.006.043.029.081.112.1.026.11.222.149.251.034-.083,0-.056-.079-.048-.133h.067a.238.238,0,1,0,0-.475Zm-.692,3.09c.017,0,.126,0,.126-.021a1.161,1.161,0,0,0,.331-.046c0,.147-.124.23-.1.376-.082,0-.046.085-.046.114-.053.033-.061.093-.125.125,0,.066-.148.175-.192.232s-.2.173-.218.253c.005-.019-.272.288-.207.288,0,.057-.078.512.023.512,0,.04.086.421.034.421,0,.123-.08.2-.08.3-.039.027-.095.041-.114.08-.07,0-.1.148-.137.148,0,.158-.046.276-.046.455.013,0-.091.256-.091.273-.084.057-.3.259-.3.365l-.171.239a1.471,1.471,0,0,0-.389.091c-.073,0-.262.057-.308-.011,0-.072-.039-.164-.046-.262-.035,0-.041-.148-.08-.148a3.926,3.926,0,0,1-.183-.467.765.765,0,0,0-.046-.193c0-.157-.115-.287-.115-.432-.034,0-.1-.318-.068-.318a3.57,3.57,0,0,1,.083-.462,1.1,1.1,0,0,0-.048-.472c-.019,0-.085-.109-.092-.136a.346.346,0,0,1-.125-.3.77.77,0,0,0,.069-.41.51.51,0,0,0-.286-.034c-.074-.148-.568-.057-.708-.057,0,.081-.344-.016-.377-.08-.084,0-.251-.179-.251-.262a.937.937,0,0,1-.239-.467c-.08-.04-.056-.194-.012-.194a.812.812,0,0,0-.047-.242c-.014-.048.047-.1.047-.157a.687.687,0,0,1,.093-.4,1.552,1.552,0,0,0,.09-.17c.048-.119.062-.006.126-.112.061-.03.1-.132.16-.182.028-.037.029-.052,0-.08a.686.686,0,0,0,.08-.216c.089-.124.026-.067.114-.057.032-.035.086-.125.137-.125a.144.144,0,0,1,.126-.068c0,.068.186-.022.206-.022a.526.526,0,0,1,.286-.137c0-.078.4.022.469.011V7.752c.086.02.244.367.228.444a.89.89,0,0,1,.172,0c0,.074.139.092.2.1.088,0,.346-.009.346-.129a.107.107,0,0,1,.115.125c.077.009.535.018.5.114.067,0,.084.115.148.115-.013.079.08.285.148.285a.358.358,0,0,0,.1.239.833.833,0,0,0,.239.364c-.043.081.065.147.092.228-.006,0,.023.119.057.137,0,.081.17.41.263.41.006.04-.087.058.034.067ZM13.429,7.7c.018-.068.057-.015.095,0,.088.029.057,0,.123-.031C13.646,7.847,13.54,7.706,13.429,7.7Zm-.24-.342c.047,0,.059.209-.068.171,0-.052-.033-.148.035-.148.019.081.034.048.034-.023Zm-.057-.136c.053.023.076.015.068-.023.069.023-.009.072-.023.125C13.142,7.285,13.153,7.272,13.132,7.217ZM11.91,6.2c-.112-.029.115-.062.125-.091a.053.053,0,0,1-.049-.073c.017-.039.045.047.084.028s.137-.074.09.059-.091.234-.262.236c-.061-.062,0-.094.011-.16Zm.423-.467c.092,0,.011.068-.009.068.016.006,0,.061,0,.079.086,0,.087-.053.148-.068-.013.077-.1.091-.015.157.044.035.089.076.072.128.109,0,.125.1.1.228.06,0,.057,0,.057-.057.058.016.054.069,0,.069-.054.107-.2.1-.3.1,0-.083-.017-.088-.093-.065-.1.032-.023-.083-.021-.14.011,0,.237.01.1-.034-.007-.123-.035-.159-.148-.159,0-.084-.029-.077-.043-.169-.019-.135.106.01.146-.138Zm-.035.74c0,.028-.057.05-.068.011.011,0,.015,0,.011-.011Zm-.937-1.223h-.475a.238.238,0,1,1,0-.475h.475a.238.238,0,1,1,0,.475ZM8.593,9.459c.027,0,.057.01.057.034C8.616,9.494,8.571,9.526,8.593,9.459Zm-.433.023c-.019.036-.173.03-.194-.012.057,0,.1.023.16,0,0-.031-.026-.057-.046-.091.062,0,.132.048.217.046,0-.053-.023.011,0-.057a.267.267,0,0,1,.125.125,1.7,1.7,0,0,0-.262-.011Zm-.5-.273a.32.32,0,0,1-.206-.1c.057,0,.113.026.148-.034.145.015.158.115.274.115.022.038.146.127.026.138a.264.264,0,0,1-.243-.116Zm.091.319c-.042,0-.112.019-.08-.069C7.724,9.467,7.751,9.49,7.748,9.528Zm.08-.011-.068.011C7.766,9.476,7.816,9.417,7.828,9.517Zm.422.5c-.009.032-.008.034-.045.034l.011-.045ZM7.223,9.073l.034.011c.015.057.046.029.08.011C7.337,9.162,7.184,9.181,7.223,9.073Z" transform="translate(-2.571 -1.928)" fill="#fff"/>
</svg>
