<svg id="Computer" xmlns="http://www.w3.org/2000/svg" width="18.187" height="18.187" viewBox="0 0 18.187 18.187">
  <path id="Path_70" data-name="Path 70" d="M22.187,40H4v1.624a.974.974,0,0,0,.974.974H21.213a.974.974,0,0,0,.974-.974Zm-9.094,2.273a.974.974,0,1,1,.974-.974A.974.974,0,0,1,13.094,42.273Z" transform="translate(-4 -28.308)" fill="#fff"/>
  <ellipse id="Ellipse_9" data-name="Ellipse 9" cy="0.579" ry="0.579" transform="translate(9.094 12.568)" fill="#fff"/>
  <path id="Path_71" data-name="Path 71" d="M27.094,58.325A.325.325,0,0,0,26.769,58H18.325a.325.325,0,0,0-.325.325v.325h9.094Z" transform="translate(-13.453 -40.462)" fill="#fff"/>
  <path id="Path_72" data-name="Path 72" d="M22.187,4.974A.974.974,0,0,0,21.213,4H4.974A.974.974,0,0,0,4,4.974V15.042H22.187Z" transform="translate(-4 -4)" fill="#fff"/>
  <path id="Path_73" data-name="Path 73" d="M24.174,50l-.731,1.949H29L28.27,50Z" transform="translate(-17.128 -35.06)" fill="#fff"/>
</svg>
