<svg xmlns="http://www.w3.org/2000/svg" width="31.664" height="35.94" viewBox="0 0 31.664 35.94">
  <g id="save-money" transform="translate(-0.36)">
    <path id="Path_179" data-name="Path 179" d="M188.6,155.782a.561.561,0,0,0-.2-.007,1.34,1.34,0,0,1-1.185-1.329.59.59,0,0,0-1.179,0,2.522,2.522,0,0,0,1.854,2.428v.59a.59.59,0,1,0,1.179,0v-.554a2.517,2.517,0,0,0-.516-4.981,1.339,1.339,0,1,1,1.339-1.339.59.59,0,1,0,1.179,0,2.522,2.522,0,0,0-2-2.464v-.537a.59.59,0,1,0-1.179,0v.573a2.517,2.517,0,0,0,.663,4.946,1.338,1.338,0,0,1,.049,2.674Zm0,0" transform="translate(-171.996 -136.168)" fill="#fff"/>
    <path id="Path_180" data-name="Path 180" d="M104.195,115.041a8.549,8.549,0,1,0,8.549-8.549A8.549,8.549,0,0,0,104.195,115.041Zm8.549-7.37a7.37,7.37,0,1,1-7.37,7.37A7.369,7.369,0,0,1,112.744,107.671Zm0,0" transform="translate(-96.184 -98.645)" fill="#fff"/>
    <path id="Path_181" data-name="Path 181" d="M28.015,328.7,23.4,330.887a3.761,3.761,0,0,0-3.207-1.979l-4.263-.117a4.5,4.5,0,0,1-1.938-.5l-.434-.225a7.651,7.651,0,0,0-7.087.007l.027-.983a.59.59,0,0,0-.573-.606l-4.675-.129a.589.589,0,0,0-.605.573L.36,337.188a.59.59,0,0,0,.573.606l4.675.129h.016a.589.589,0,0,0,.59-.573l.014-.491,1.214-.65A2.083,2.083,0,0,1,9,336.037l7.252,2.035.038.009a7.763,7.763,0,0,0,1.594.164,7.865,7.865,0,0,0,3.286-.717.546.546,0,0,0,.073-.04l10.515-6.8a.59.59,0,0,0,.193-.785,2.978,2.978,0,0,0-3.933-1.2Zm-26.46,7.926.25-9.08,3.5.1-.25,9.08Zm19.08-.154a6.684,6.684,0,0,1-4.088.456L9.315,334.9a3.26,3.26,0,0,0-2.43.266l-.621.332.166-6.037a6.48,6.48,0,0,1,6.583-.351l.434.225a5.694,5.694,0,0,0,2.447.632l4.263.117a2.586,2.586,0,0,1,2.457,2.06l-6.35-.175a.59.59,0,0,0-.033,1.179l7.008.193h.016a.59.59,0,0,0,.589-.573,3.742,3.742,0,0,0-.057-.765l4.737-2.238.014-.007a1.8,1.8,0,0,1,2.037.285Zm0,0" transform="translate(0 -302.307)" fill="#fff"/>
    <path id="Path_182" data-name="Path 182" d="M213.382,6.19V.59a.59.59,0,1,0-1.179,0v5.6a.59.59,0,1,0,1.179,0Zm0,0" transform="translate(-196.233)" fill="#fff"/>
    <path id="Path_183" data-name="Path 183" d="M273.382,43.242V40.59a.59.59,0,0,0-1.179,0v2.653a.59.59,0,0,0,1.179,0Zm0,0" transform="translate(-251.811 -37.052)" fill="#fff"/>
    <path id="Path_184" data-name="Path 184" d="M153.382,43.242V40.59a.59.59,0,0,0-1.179,0v2.653a.59.59,0,0,0,1.179,0Zm0,0" transform="translate(-140.654 -37.052)" fill="#fff"/>
  </g>
</svg>
