<svg xmlns="http://www.w3.org/2000/svg" width="42.12" height="34.433" viewBox="0 0 42.12 34.433">
  <g id="team-management" transform="translate(0 -46.718)">
    <path id="Path_178" data-name="Path 178" d="M16.366,71.07a.615.615,0,1,1,1.166-.389,3.75,3.75,0,0,0,1.36,1.84,3.722,3.722,0,0,0,5.7-1.84.615.615,0,1,1,1.166.389,4.951,4.951,0,0,1-9.389,0ZM35.548,54.336l-2.3-.779-1.471.718v.655a1.885,1.885,0,0,0,3.771,0Zm-3.771-1.427,1.122-.55a.607.607,0,0,1,.506-.049l2.143.725v-.786a.779.779,0,0,0-.229-.553.791.791,0,0,0-.555-.231h-2.2a.788.788,0,0,0-.783.783v.66ZM6.572,52.441h3.771v-.975H7.355a.788.788,0,0,0-.784.784v.191Zm3.771,1.234H6.572v1.257a1.885,1.885,0,0,0,3.771,0V53.674Zm12.6-2.847a3.366,3.366,0,0,1-2.523-.695,2.6,2.6,0,0,1-1.248.312v.972a1.885,1.885,0,0,0,3.771,0v-.59Zm-3.771-1.611a1.366,1.366,0,0,0,.907-.326l.012-.009a.616.616,0,0,1,.867.063,2.127,2.127,0,0,0,1.984.651v-.858a.788.788,0,0,0-.784-.783h-2.2a.781.781,0,0,0-.553.231.772.772,0,0,0-.231.553Zm-7.6,5.716a3.114,3.114,0,0,1-.422,1.567,2.987,2.987,0,0,1,2.484,2.936v1l.168-.168a.573.573,0,0,1,.082-.07,1.056,1.056,0,0,1,.655-.243,1.035,1.035,0,0,1,.714.289c.009.007.016.016.026.023l.6.6V55.92a2.987,2.987,0,0,1,2.484-2.936,3.109,3.109,0,0,1-.424-1.567V48.735a2.022,2.022,0,0,1,2.02-2.017h2.2a2.022,2.022,0,0,1,2.017,2.017v2.682a3.086,3.086,0,0,1-.424,1.567,2.986,2.986,0,0,1,2.486,2.936v4.946l.6-.6a.4.4,0,0,1,.084-.07,1,1,0,0,1,.658-.243,1.073,1.073,0,0,1,.7.282.424.424,0,0,0,.033.03l.168.168v-1A2.986,2.986,0,0,1,30.968,56.5a3.092,3.092,0,0,1-.424-1.567V52.249a2.022,2.022,0,0,1,2.017-2.017h2.2a2.022,2.022,0,0,1,2.019,2.017v2.682A3.115,3.115,0,0,1,36.36,56.5a2.987,2.987,0,0,1,2.484,2.936v3.3a19.982,19.982,0,0,1,1.5,1.483.913.913,0,0,1,.261.641,1.01,1.01,0,0,1-.275.674l-.483.483a5.772,5.772,0,0,1,.371.774c.107.271.2.541.275.8H41.2a.895.895,0,0,1,.919.947v1.956a.933.933,0,0,1-.261.66.955.955,0,0,1-.683.261h-.681c-.077.254-.168.525-.275.8a5.772,5.772,0,0,1-.371.774l.5.5a1.021,1.021,0,0,1,.261.66.891.891,0,0,1-.238.613.259.259,0,0,1-.023.026v0l-1.4,1.4a.873.873,0,0,1-1.313-.012l-.487-.487a6.789,6.789,0,0,1-.774.368c-.25.1-.5.184-.791.275v.711a.936.936,0,0,1-.263.665.878.878,0,0,1-.658.252v0H32.673a.928.928,0,0,1-.662-.257.957.957,0,0,1-.259-.683v-.693c-.291-.091-.541-.175-.79-.275-.131-.054-.259-.11-.389-.17a1.079,1.079,0,0,1,.012.152,1.023,1.023,0,0,1-.3.728l-1.968,1.97a1.034,1.034,0,0,1-1.49-.014L26,77.887a9.513,9.513,0,0,1-1.229.6c-.394.159-.79.287-1.273.436v1.187a1.072,1.072,0,0,1-.294.758,1.009,1.009,0,0,1-.749.282v0H19.666a1.047,1.047,0,0,1-.751-.284,1.088,1.088,0,0,1-.294-.767V78.922l-.009,0c-.478-.147-.872-.277-1.262-.434a9.536,9.536,0,0,1-1.231-.6l-.837.84a1.025,1.025,0,0,1-1.441.028.422.422,0,0,1-.033-.03l0,0-1.973-1.975a1.031,1.031,0,0,1-.3-.723,1.077,1.077,0,0,1,.014-.152c-.131.061-.259.117-.389.17-.25.1-.5.184-.793.275v.711a.94.94,0,0,1-.259.665.88.88,0,0,1-.66.252v0H7.465a.921.921,0,0,1-.658-.257.907.907,0,0,1-.259-.655v-.009h0v-.711c-.292-.091-.543-.175-.791-.275a7.005,7.005,0,0,1-.777-.368l-.5.5a.859.859,0,0,1-1.269.028.376.376,0,0,1-.03-.03l0,0-1.4-1.4a.9.9,0,0,1-.261-.641,1.007,1.007,0,0,1,.189-.569.69.69,0,0,1,.072-.091l.494-.5A6.066,6.066,0,0,1,1.9,72.2c-.107-.27-.2-.541-.273-.8H.921a.927.927,0,0,1-.658-.261A.906.906,0,0,1,0,70.5v-.012H0V68.505a.925.925,0,0,1,.264-.66.944.944,0,0,1,.66-.261h.7c.075-.254.166-.525.273-.8a6.066,6.066,0,0,1,.371-.774l-.494-.5a1.021,1.021,0,0,1-.261-.66.905.905,0,0,1,.263-.644l1.4-1.4a1.082,1.082,0,0,1,.1-.082v-3.3A2.986,2.986,0,0,1,5.762,56.5a3.092,3.092,0,0,1-.424-1.567V52.249a2.022,2.022,0,0,1,2.017-2.017H10.96a.615.615,0,0,1,.616.616v4.083ZM9.911,57.69a3.1,3.1,0,0,1-2.906,0H6.254A1.752,1.752,0,0,0,4.51,59.434v3.414l.469.466a6.989,6.989,0,0,1,.777-.368c.247-.1.5-.184.791-.275V61.96a.563.563,0,0,1,.007-.089.867.867,0,0,1,.912-.828v0H9.449a.92.92,0,0,1,.66.254.962.962,0,0,1,.259.681v.695c.291.091.543.175.793.275.131.054.259.11.389.17a1.065,1.065,0,0,1-.014-.152,1.016,1.016,0,0,1,.271-.695l.026-.028.571-.571V59.434A1.752,1.752,0,0,0,10.66,57.69H9.911Zm25.206,0a3.1,3.1,0,0,1-2.906,0h-.751a1.748,1.748,0,0,0-1.742,1.744V61.67l.571.571a1.02,1.02,0,0,1,.294.723,1.077,1.077,0,0,1-.012.152c.131-.061.259-.117.389-.17.25-.1.5-.184.79-.275a7,7,0,0,1,.007-.8.864.864,0,0,1,.914-.828v0h1.982a.882.882,0,0,1,.919.909v.009h0v.711c.289.091.541.175.791.275a6.774,6.774,0,0,1,.774.368l.469-.466V59.434a1.752,1.752,0,0,0-1.744-1.744h-.749Zm-12.6-3.512a3.115,3.115,0,0,1-2.913,0l-.742,0a1.748,1.748,0,0,0-1.744,1.742V60.6l.236-.1c.392-.156.79-.287,1.271-.436V58.884a1.071,1.071,0,0,1,.294-.758,1.015,1.015,0,0,1,.751-.282v0h2.791a.988.988,0,0,1,1.04,1.033v.009h0v1.187l.009,0c.478.147.874.277,1.264.434l.233.1V55.92a1.744,1.744,0,0,0-1.742-1.742Zm9.923,17.455c.054.03.107.058.161.086a2.463,2.463,0,1,0,0-4.445c-.054.028-.11.056-.163.086a1.022,1.022,0,0,1,.28.728V68.1h0v2.794a1.068,1.068,0,0,1-.28.739Zm-1.546-4.575a3.728,3.728,0,0,1,1.173-.891,3.7,3.7,0,1,1,0,6.66,3.727,3.727,0,0,1-1.173-.891h-.4a13.122,13.122,0,0,1-.429,1.28,8.063,8.063,0,0,1-.606,1.222l.126.126a.961.961,0,0,1,.45-.166,1.035,1.035,0,0,1,.625.128,5.887,5.887,0,0,0,.765.378c.245.1.5.182.809.277a1.089,1.089,0,0,1,.548.359.972.972,0,0,1,.21.606v.571h1.355v-.571h0a.942.942,0,0,1,.21-.606,1.093,1.093,0,0,1,.518-.352v0l0,0c.322-.1.583-.184.835-.284a5.915,5.915,0,0,0,.767-.378A1.035,1.035,0,0,1,37.3,74.4a.964.964,0,0,1,.541.238c.016.014.033.028.047.042l.4.406.958-.958-.4-.406h0a1,1,0,0,1-.289-.595.964.964,0,0,1,.154-.641,4.593,4.593,0,0,0,.364-.735,8.019,8.019,0,0,0,.275-.828,1.09,1.09,0,0,1,.359-.527,1,1,0,0,1,.6-.219h.571V68.818h-.571v0a.956.956,0,0,1-.6-.217,1.089,1.089,0,0,1-.359-.527,8.018,8.018,0,0,0-.275-.828,4.589,4.589,0,0,0-.364-.735.965.965,0,0,1-.154-.641,1.029,1.029,0,0,1,.287-.595l.4-.406-.958-.958-.4.406v0a.964.964,0,0,1-.588.282,1.034,1.034,0,0,1-.625-.128,5.908,5.908,0,0,0-.767-.378c-.245-.1-.5-.182-.807-.277a1.089,1.089,0,0,1-.548-.359.96.96,0,0,1-.212-.606v-.571H32.986v.571h0a.928.928,0,0,1-.208.606,1.088,1.088,0,0,1-.52.352v0l0,0c-.319.1-.583.184-.835.284a5.885,5.885,0,0,0-.765.378,1.034,1.034,0,0,1-.625.128.959.959,0,0,1-.45-.166l-.126.126a8.056,8.056,0,0,1,.606,1.222,13.078,13.078,0,0,1,.429,1.28h.4ZM12.541,64.429a.961.961,0,0,1-.45.166,1.03,1.03,0,0,1-.623-.128,5.9,5.9,0,0,0-.767-.378c-.245-.1-.5-.182-.807-.277l-.03-.007a1.1,1.1,0,0,1-.52-.352.947.947,0,0,1-.208-.55c0-.019,0-.037,0-.056v-.571H7.779v.571h0a.928.928,0,0,1-.208.606,1.1,1.1,0,0,1-.52.352v0l0,0c-.319.1-.583.184-.835.284a5.885,5.885,0,0,0-.765.378,1.041,1.041,0,0,1-.625.128.958.958,0,0,1-.541-.238l-.049-.042-.4-.406-.958.958.4.406a1,1,0,0,1,.287.595.975.975,0,0,1-.152.641,4.407,4.407,0,0,0-.366.735,8.634,8.634,0,0,0-.275.828,1.073,1.073,0,0,1-.359.527.984.984,0,0,1-.6.219H1.234v1.357h.571v0a.959.959,0,0,1,.6.217,1.073,1.073,0,0,1,.359.527,8.612,8.612,0,0,0,.275.828,4.4,4.4,0,0,0,.366.735.975.975,0,0,1,.152.641,1,1,0,0,1-.287.595l-.4.406.958.958.4-.406,0,0a.97.97,0,0,1,.588-.282,1.042,1.042,0,0,1,.625.128,5.885,5.885,0,0,0,.765.378c.245.1.5.182.809.277a1.1,1.1,0,0,1,.548.359.972.972,0,0,1,.21.606v.571H9.134v-.571h0a.927.927,0,0,1,.208-.606,1.1,1.1,0,0,1,.52-.352v0l0,0c.322-.1.583-.184.835-.284a5.912,5.912,0,0,0,.767-.378,1.031,1.031,0,0,1,.623-.128.961.961,0,0,1,.45.166l.126-.126a7.831,7.831,0,0,1-.6-1.222,13.135,13.135,0,0,1-.431-1.28h-.4a3.743,3.743,0,0,1-1.2.9,3.7,3.7,0,1,1,0-6.688,3.742,3.742,0,0,1,1.2.9h.4a13.121,13.121,0,0,1,.431-1.28,7.831,7.831,0,0,1,.6-1.222ZM9.687,67.36c-.058-.033-.119-.065-.18-.093a2.463,2.463,0,1,0,0,4.459c.061-.028.119-.061.177-.093a1.043,1.043,0,0,1-.277-.728v-.012h0V68.1A1.07,1.07,0,0,1,9.687,67.36Zm3.773-5-.007.007-.616.616.749.746h0a1.159,1.159,0,0,1,.334.688,1.135,1.135,0,0,1-.175.742,6.335,6.335,0,0,0-.536,1.075,11.3,11.3,0,0,0-.4,1.192,1.272,1.272,0,0,1-.42.613,1.145,1.145,0,0,1-.695.254H10.639V70.7h1.056v0a1.112,1.112,0,0,1,.695.254,1.257,1.257,0,0,1,.42.611,11.3,11.3,0,0,0,.4,1.192,6.324,6.324,0,0,0,.536,1.075,1.135,1.135,0,0,1,.175.742,1.155,1.155,0,0,1-.294.646c-.012.014-.023.028-.037.042l-.749.746,1.707,1.707.746-.749,0,0a1.117,1.117,0,0,1,.676-.326,1.2,1.2,0,0,1,.728.152,8.587,8.587,0,0,0,1.11.546c.354.142.723.264,1.168.4a.22.22,0,0,1,.03.009,1.268,1.268,0,0,1,.609.41,1.076,1.076,0,0,1,.238.646.4.4,0,0,1,0,.051v1.056h2.411V78.861h0a1.068,1.068,0,0,1,.24-.7,1.257,1.257,0,0,1,.609-.41h0c.457-.142.833-.266,1.2-.41a8.764,8.764,0,0,0,1.11-.546,1.189,1.189,0,0,1,.725-.152,1.13,1.13,0,0,1,.637.287l.042.037.749.749,1.7-1.707-.152-.152-.595-.595a1.172,1.172,0,0,1-.334-.688,1.138,1.138,0,0,1,.177-.742,6.51,6.51,0,0,0,.536-1.075,12.5,12.5,0,0,0,.4-1.192,1.257,1.257,0,0,1,.42-.611,1.127,1.127,0,0,1,.693-.257h1.056V68.291H30.425v0a1.106,1.106,0,0,1-.693-.254,1.257,1.257,0,0,1-.42-.611,12.5,12.5,0,0,0-.4-1.192,6.51,6.51,0,0,0-.536-1.075,1.137,1.137,0,0,1-.177-.742,1.171,1.171,0,0,1,.294-.646c.012-.014.026-.028.04-.042l.746-.746-.616-.616,0-.007-1.084-1.084-.749.749v0a1.123,1.123,0,0,1-.679.327,1.215,1.215,0,0,1-.8-.2c-.357-.18-.658-.35-1.033-.5-.357-.142-.723-.263-1.168-.4a1.264,1.264,0,0,1-.639-.42,1.064,1.064,0,0,1-.24-.646c0-.019,0-.035,0-.051V59.075H19.854v1.056h0a1.079,1.079,0,0,1-.238.7,1.289,1.289,0,0,1-.609.413l0,0v0c-.459.14-.835.264-1.2.408a8.43,8.43,0,0,0-.984.473,1.29,1.29,0,0,1-.854.224,1.114,1.114,0,0,1-.637-.287l-.042-.037-.746-.749Zm12.294,5.564a.615.615,0,1,1-1.166.389,3.722,3.722,0,0,0-7.057,0,.615.615,0,1,1-1.166-.389,4.951,4.951,0,0,1,9.389,0Z" transform="translate(0)" fill="#fff"/>
  </g>
</svg>
