<svg xmlns="http://www.w3.org/2000/svg" width="41" height="42" viewBox="0 0 41 42">
  <g id="Group_2647" data-name="Group 2647" transform="translate(-1054 -2550)">
    <ellipse id="Ellipse_21" data-name="Ellipse 21" cx="20.5" cy="21" rx="20.5" ry="21" transform="translate(1054 2550)" fill="#fff"/>
    <path id="Icon_awesome-arrow-right" data-name="Icon awesome-arrow-right" d="M8.1,3.891l.944-.944a1.016,1.016,0,0,1,1.441,0l8.263,8.259a1.016,1.016,0,0,1,0,1.441L10.482,20.91a1.016,1.016,0,0,1-1.441,0L8.1,19.966a1.021,1.021,0,0,1,.017-1.458l5.122-4.88H1.02A1.018,1.018,0,0,1,0,12.608v-1.36a1.018,1.018,0,0,1,1.02-1.02H13.236L8.114,5.349A1.014,1.014,0,0,1,8.1,3.891Z" transform="translate(1064.713 2558.983)"/>
  </g>
</svg>
