<svg xmlns="http://www.w3.org/2000/svg" width="13.953" height="13.599" viewBox="0 0 13.953 13.599">
  <path id="Icon_awesome-arrow-left" data-name="Icon awesome-arrow-left" d="M5.929,15.336l.691.691a.744.744,0,0,0,1.056,0L13.73,9.976a.744.744,0,0,0,0-1.056L7.676,2.867a.744.744,0,0,0-1.056,0l-.691.691a.748.748,0,0,0,.012,1.068L9.694,8.2H.744A.746.746,0,0,0,0,8.949v1a.746.746,0,0,0,.747.747h8.95L5.941,14.268A.743.743,0,0,0,5.929,15.336Z" transform="translate(0.004 -2.647)" fill="#8b8a8a"/>
</svg>
