<svg xmlns="http://www.w3.org/2000/svg" width="21.871" height="26.267" viewBox="0 0 21.871 26.267">
  <g id="Icon_ionic-md-git-compare" data-name="Icon ionic-md-git-compare" transform="translate(0.5 1.207)">
    <path id="Path_121" data-name="Path 121" d="M9.7,18.556H8.679c-1.146,0-1.351-.168-1.575-.447-.256-.321-.382-.89-.382-2.525V7.813a2.982,2.982,0,1,0-2.982,0v7.771c0,2.162.172,3.3,1.03,4.379a4.483,4.483,0,0,0,3.909,1.668H9.7v2.982l4.472-4.472L9.7,15.667ZM5.232,3.368A1.864,1.864,0,1,1,3.368,5.232,1.863,1.863,0,0,1,5.232,3.368Z" transform="translate(-2.25 -0.759)" fill="none" stroke="#000" stroke-width="1"/>
    <path id="Path_122" data-name="Path 122" d="M26.186,16.8V8.889c0-2.162-.172-3.3-1.03-4.379a4.456,4.456,0,0,0-3.909-1.621H20.222V0L15.75,4.472l4.472,4.472V5.963h1.025c1.146,0,1.351.121,1.575.4.256.321.382.89.382,2.525V16.8a2.982,2.982,0,1,0,2.982,0Zm-1.491,4.444a1.864,1.864,0,1,1,1.864-1.864A1.863,1.863,0,0,1,24.695,21.244Z" transform="translate(-6.805)" fill="none" stroke="#000" stroke-width="1"/>
  </g>
</svg>
