<svg id="Icon_ionic-ios-cart" data-name="Icon ionic-ios-cart" xmlns="http://www.w3.org/2000/svg" width="17.524" height="16.186" viewBox="0 0 17.524 16.186">
  <path id="Path_125" data-name="Path 125" d="M11.585,29.136a1.011,1.011,0,1,1-1.011-1.011A1.011,1.011,0,0,1,11.585,29.136Z" transform="translate(-5.858 -13.961)"/>
  <path id="Path_126" data-name="Path 126" d="M27.37,29.136a1.011,1.011,0,1,1-1.011-1.011A1.011,1.011,0,0,1,27.37,29.136Z" transform="translate(-12.183 -13.961)"/>
  <path id="Path_127" data-name="Path 127" d="M20.9,7.371a.248.248,0,0,0-.219-.177L6.956,5.867a.423.423,0,0,1-.316-.2,4.291,4.291,0,0,0-.514-.784c-.324-.4-.936-.383-2.056-.392a.614.614,0,0,0-.687.594.6.6,0,0,0,.657.594,5.6,5.6,0,0,1,1.1.08c.2.059.358.383.417.666a.015.015,0,0,0,0,.013c.008.051.084.43.084.434l1.686,8.917a3.277,3.277,0,0,0,.611,1.5,1.682,1.682,0,0,0,1.386.683h9.971a.6.6,0,0,0,.607-.565.587.587,0,0,0-.59-.615h-10a.49.49,0,0,1-.35-.118,1.891,1.891,0,0,1-.485-1.1l-.181-1a.023.023,0,0,1,.017-.025l11.7-1.981a.246.246,0,0,0,.206-.219l.674-4.88A.24.24,0,0,0,20.9,7.371Z" transform="translate(-3.382 -4.493)"/>
</svg>
