<svg xmlns="http://www.w3.org/2000/svg" width="18.928" height="21.632" viewBox="0 0 18.928 21.632">
  <path id="Icon_awesome-fire-alt" data-name="Icon awesome-fire-alt" d="M13.67,2.163A25.239,25.239,0,0,0,11.295,4.7,32.78,32.78,0,0,0,7.1,0C2.946,3.852,0,8.871,0,11.9a9.6,9.6,0,0,0,9.464,9.734A9.6,9.6,0,0,0,18.928,11.9c0-2.251-2.2-6.893-5.258-9.734Zm-.823,14.392a5.678,5.678,0,0,1-3.263,1.02,5.2,5.2,0,0,1-5.529-5.292c0-1.631,1.027-3.069,3.075-5.524.293.337,4.176,5.3,4.176,5.3L13.784,9.23c.175.289.334.572.476.844A5.04,5.04,0,0,1,12.848,16.555Z" fill="#fff"/>
</svg>
