<svg id="Icon_ionic-ios-quote" data-name="Icon ionic-ios-quote" xmlns="http://www.w3.org/2000/svg" width="42.451" height="38.929" viewBox="0 0 42.451 38.929">
  <path id="Path_130" data-name="Path 130" d="M21.741,6.75H13.118A6.138,6.138,0,0,0,6.75,12.588V28.154a6.138,6.138,0,0,0,6.368,5.837h5.134a1.018,1.018,0,0,1,1.061,1.046,14.281,14.281,0,0,1-4.152,9.012.967.967,0,0,0,.783,1.63h5.293a1.066,1.066,0,0,0,.836-.377,17.815,17.815,0,0,0,3.781-11.42V10.532A3.863,3.863,0,0,0,21.741,6.75Z" transform="translate(-6.75 -6.75)" fill="#fff"/>
  <path id="Path_131" data-name="Path 131" d="M34.116,6.75H25.493a6.138,6.138,0,0,0-6.368,5.838V28.154a6.138,6.138,0,0,0,6.368,5.837h5.134a1.018,1.018,0,0,1,1.061,1.046,14.281,14.281,0,0,1-4.152,9.012.967.967,0,0,0,.783,1.63h5.293a1.066,1.066,0,0,0,.836-.377,17.815,17.815,0,0,0,3.781-11.42V10.532A3.863,3.863,0,0,0,34.116,6.75Z" transform="translate(4.223 -6.75)" fill="#fff"/>
</svg>
