<svg xmlns="http://www.w3.org/2000/svg" width="26.21" height="26.21" viewBox="0 0 26.21 26.21">
  <path id="Icon_awesome-app-store-ios" data-name="Icon awesome-app-store-ios" d="M23.4,2.25H2.808A2.809,2.809,0,0,0,0,5.058V25.652A2.809,2.809,0,0,0,2.808,28.46H23.4a2.809,2.809,0,0,0,2.808-2.808V5.058A2.809,2.809,0,0,0,23.4,2.25ZM7.43,22.873A1.169,1.169,0,0,1,5.406,21.7l.837-1.445a2.008,2.008,0,0,1,2.317.667Zm8.126-3.153H4.914a1.17,1.17,0,0,1,0-2.34H7.9l3.826-6.623-1.2-2.071a1.169,1.169,0,0,1,2.024-1.17l.521.9.521-.9a1.169,1.169,0,1,1,2.024,1.17L10.6,17.379h3.633a1.6,1.6,0,0,1,1.328,2.34Zm5.739,0H19.6L20.746,21.7a1.169,1.169,0,1,1-2.024,1.17q-2.887-4.993-4.329-7.494a3.237,3.237,0,0,1,.415-3.967q1.15,1.992,3.446,5.967H21.3a1.17,1.17,0,1,1,0,2.34Z" transform="translate(0 -2.25)" fill="#b7d8bd"/>
</svg>
