<svg xmlns="http://www.w3.org/2000/svg" width="15.914" height="21.219" viewBox="0 0 15.914 21.219">
  <path id="Icon_awesome-award" data-name="Icon awesome-award" d="M4.025,15.028c-.36-.36-.172-.259-1.041-.491a2.99,2.99,0,0,1-1.054-.552L.05,18.6a.663.663,0,0,0,.639.913l2.184-.083,1.5,1.586a.663.663,0,0,0,1.1-.206l2.157-5.289a2.974,2.974,0,0,1-3.6-.489ZM15.864,18.6l-1.88-4.61a2.983,2.983,0,0,1-1.054.552c-.873.234-.682.132-1.041.491a2.975,2.975,0,0,1-3.6.489l2.157,5.289a.663.663,0,0,0,1.1.206l1.5-1.586,2.184.083a.663.663,0,0,0,.639-.913ZM10.9,14.09c.633-.644.706-.589,1.608-.835a1.684,1.684,0,0,0,1.18-1.2,2.663,2.663,0,0,1,1.075-1.9,1.719,1.719,0,0,0,.432-1.64,2.7,2.7,0,0,1,0-2.189,1.719,1.719,0,0,0-.432-1.64,2.664,2.664,0,0,1-1.075-1.9,1.684,1.684,0,0,0-1.18-1.2A2.6,2.6,0,0,1,10.644.5,1.649,1.649,0,0,0,9.032.057a2.565,2.565,0,0,1-2.151,0A1.648,1.648,0,0,0,5.27.5,2.6,2.6,0,0,1,3.407,1.592a1.684,1.684,0,0,0-1.18,1.2,2.663,2.663,0,0,1-1.075,1.9A1.718,1.718,0,0,0,.72,6.329a2.694,2.694,0,0,1,0,2.189,1.72,1.72,0,0,0,.432,1.641,2.663,2.663,0,0,1,1.075,1.9,1.684,1.684,0,0,0,1.18,1.2c.927.253,1,.213,1.607.835a1.647,1.647,0,0,0,2.061.241,1.644,1.644,0,0,1,1.763,0A1.647,1.647,0,0,0,10.9,14.09Zm-6.852-6.8a3.91,3.91,0,1,1,3.91,3.979,3.945,3.945,0,0,1-3.91-3.979Z" transform="translate(0 0)" fill="#61bd4f"/>
</svg>
