<svg xmlns="http://www.w3.org/2000/svg" width="31.465" height="31.458" viewBox="0 0 31.465 31.458">
  <path id="Icon_awesome-centos" data-name="Icon awesome-centos" d="M20.362,6.855l2.222,2.229L17.22,14.463V6.855ZM8.944,9.084l5.365,5.379V6.855H11.166Zm2.918-2.925H15v8.993l.759.759.759-.759V6.159h3.143l-3.9-3.909ZM13.7,17.979l-.759-.759H3.9V14.07L0,17.979l3.9,3.909v-3.15h9.042Zm5.576-1.455h7.587v-3.15l-2.222-2.229Zm12.185,1.455-3.9-3.909v3.15H18.584l-.759.759.759.759h8.979v3.15ZM4.6,12.389,6.884,10.16l6.349,6.363h1.076V15.448L7.959,9.084l2.222-2.229H4.6ZM26.866,6.855h-5.52l2.222,2.229L17.22,15.448v1.076H18.3l6.349-6.363,2.222,2.229ZM14.309,29.1V21.5L8.944,26.88l2.222,2.229h3.143ZM4.6,16.523h7.65L6.884,11.145,4.6,13.373Zm22.268,7.045L24.645,25.8,18.3,19.434H17.22V20.51l6.349,6.363L21.347,29.1h5.52Zm0-4.134H19.28l5.365,5.379,2.222-2.229Zm-4.282,7.439L17.22,21.495v7.6h3.143Zm-15.7-2.06,5.365-5.379H4.6v3.15ZM19.666,29.8H16.523V20.805l-.759-.759L15,20.805V29.8H11.862l3.9,3.909ZM7.959,26.873l6.349-6.363V19.434H13.233L6.884,25.8,4.6,23.569V29.1h5.583Z" transform="translate(0 -2.25)" fill="#61bd4f"/>
</svg>
