<svg xmlns="http://www.w3.org/2000/svg" width="26.548" height="19.911" viewBox="0 0 26.548 19.911">
  <path id="Icon_awesome-chart-bar" data-name="Icon awesome-chart-bar" d="M17.256,17.774h1.991a.714.714,0,0,0,.664-.664V10.142a.714.714,0,0,0-.664-.664H17.256a.714.714,0,0,0-.664.664V17.11a.714.714,0,0,0,.664.664Zm4.978,0h1.991a.714.714,0,0,0,.664-.664V5.164a.714.714,0,0,0-.664-.664H22.234a.714.714,0,0,0-.664.664V17.11a.714.714,0,0,0,.664.664Zm-14.933,0H9.292a.714.714,0,0,0,.664-.664V13.46a.714.714,0,0,0-.664-.664H7.3a.714.714,0,0,0-.664.664v3.65a.714.714,0,0,0,.664.664Zm4.978,0H14.27a.714.714,0,0,0,.664-.664V6.823a.714.714,0,0,0-.664-.664H12.279a.714.714,0,0,0-.664.664V17.11A.714.714,0,0,0,12.279,17.774Zm13.44,3.319H3.319V5.33a.829.829,0,0,0-.83-.83H.83A.829.829,0,0,0,0,5.33V22.752a1.659,1.659,0,0,0,1.659,1.659H25.719a.829.829,0,0,0,.83-.83V21.922A.829.829,0,0,0,25.719,21.093Z" transform="translate(0 -4.5)" fill="#076faa"/>
</svg>
