<svg xmlns="http://www.w3.org/2000/svg" width="14.094" height="14.094" viewBox="0 0 14.094 14.094">
  <path id="Icon_awesome-download" data-name="Icon awesome-download" d="M5.946,0h2.2a.659.659,0,0,1,.661.661V5.285h2.414a.55.55,0,0,1,.388.939l-4.187,4.19a.533.533,0,0,1-.751,0L2.48,6.224a.55.55,0,0,1,.388-.939H5.285V.661A.659.659,0,0,1,5.946,0Zm8.148,10.35v3.083a.659.659,0,0,1-.661.661H.661A.659.659,0,0,1,0,13.433V10.35a.659.659,0,0,1,.661-.661H4.7l1.349,1.349a1.411,1.411,0,0,0,2,0L9.395,9.689h4.038A.659.659,0,0,1,14.094,10.35ZM10.68,12.772a.551.551,0,1,0-.551.551A.552.552,0,0,0,10.68,12.772Zm1.762,0a.551.551,0,1,0-.551.551A.552.552,0,0,0,12.442,12.772Z" fill="#61bd4f"/>
</svg>
