<svg xmlns="http://www.w3.org/2000/svg" width="22.585" height="22.585" viewBox="0 0 22.585 22.585">
  <path id="Icon_metro-earth" data-name="Icon metro-earth" d="M13.863,1.928A11.292,11.292,0,1,0,25.155,13.22,11.292,11.292,0,0,0,13.863,1.928Zm0,21.173a9.848,9.848,0,0,1-3.909-.8L15.1,16.512a.706.706,0,0,0,.178-.469V13.926a.706.706,0,0,0-.706-.706c-2.492,0-5.121-2.591-5.147-2.616a.706.706,0,0,0-.5-.207H6.1a.706.706,0,0,0-.706.706v4.235a.706.706,0,0,0,.39.631l2.433,1.216v4.144A9.887,9.887,0,0,1,4.934,8.986H7.511a.706.706,0,0,0,.5-.207l2.823-2.823a.706.706,0,0,0,.207-.5V3.75a9.908,9.908,0,0,1,7.152.587c-.091.077-.18.158-.266.243a4.235,4.235,0,0,0,2.991,7.229q.1,0,.21-.005a16.574,16.574,0,0,1-.185,8.212.7.7,0,0,0-.019.115,9.85,9.85,0,0,1-7.061,2.97Z" transform="translate(-2.571 -1.928)" fill="#61bd4f"/>
</svg>
