<svg xmlns="http://www.w3.org/2000/svg" width="23.353" height="18.16" viewBox="0 0 23.353 18.16">
  <path id="Icon_awesome-home" data-name="Icon awesome-home" d="M11.366,6.965,3.891,13.121v6.644a.649.649,0,0,0,.649.649L9.083,20.4a.649.649,0,0,0,.645-.649v-3.88a.649.649,0,0,1,.649-.649h2.595a.649.649,0,0,1,.649.649v3.877a.649.649,0,0,0,.649.651l4.541.013a.649.649,0,0,0,.649-.649V13.116L11.986,6.965A.494.494,0,0,0,11.366,6.965Zm11.807,4.184L19.784,8.355V2.74a.486.486,0,0,0-.486-.486h-2.27a.486.486,0,0,0-.486.486V5.684L12.911,2.7a1.946,1.946,0,0,0-2.473,0L.175,11.149a.486.486,0,0,0-.065.685l1.034,1.257a.486.486,0,0,0,.686.066L11.366,5.3a.494.494,0,0,1,.62,0l9.536,7.854a.486.486,0,0,0,.685-.065l1.034-1.257a.486.486,0,0,0-.069-.686Z" transform="translate(0.001 -2.254)" fill="#61bd4f"/>
</svg>
