<svg xmlns="http://www.w3.org/2000/svg" width="26.21" height="26.21" viewBox="0 0 26.21 26.21">
  <path id="Icon_awesome-internet-explorer" data-name="Icon awesome-internet-explorer" d="M24.728,8.175a12.545,12.545,0,0,0,1.1-4.5c0-3.723-4.077-5.036-10.733-1.975C9.581,1.335,4.278,5.474,2.954,11.247,4.533,9.463,6.961,7.035,9.2,6.069a33.832,33.832,0,0,0-6.946,8.865A17.912,17.912,0,0,0,0,22.357c0,5.046,4.753,4.428,9.227,2.15a11.571,11.571,0,0,0,5.206.8,11.473,11.473,0,0,0,11.1-7.475H19.346C16.658,22.365,9.271,20.543,9.271,15.4H26.1A11.754,11.754,0,0,0,24.728,8.175ZM3.3,17.757a11.9,11.9,0,0,0,5.133,6.312C3.895,26.574-.432,25.558,3.3,17.757Zm5.937-5.573a5.2,5.2,0,0,1,5.323-4.857,5.208,5.208,0,0,1,5.323,4.857Zm9.447-9.6A9.364,9.364,0,0,1,22.4,1.454,2.649,2.649,0,0,1,25.181,4.2a11.452,11.452,0,0,1-.746,3.474,12.524,12.524,0,0,0-5.747-5.1Z" fill="#b7d8bd"/>
</svg>
