<svg xmlns="http://www.w3.org/2000/svg" width="32.804" height="32.804" viewBox="0 0 32.804 32.804">
  <path id="Icon_ionic-md-timer" data-name="Icon ionic-md-timer" d="M17.956,28.893a1.822,1.822,0,1,0,1.822-1.822A1.827,1.827,0,0,0,17.956,28.893Zm0-25.518v7.286H21.6V7.168A12.75,12.75,0,1,1,7.018,19.777,12.622,12.622,0,0,1,9.9,11.718L19.777,21.6l2.571-2.571L9.952,6.64v.039a16.367,16.367,0,1,0,9.826-3.3Zm12.759,16.4A1.822,1.822,0,1,0,28.893,21.6,1.827,1.827,0,0,0,30.715,19.777Zm-21.875,0a1.822,1.822,0,1,0,1.822-1.822A1.827,1.827,0,0,0,8.84,19.777Z" transform="translate(-3.375 -3.375)" fill="#61bd4f"/>
</svg>
