<svg xmlns="http://www.w3.org/2000/svg" width="36.635" height="21.981" viewBox="0 0 36.635 21.981">
  <path id="Icon_awesome-money-bill-alt" data-name="Icon awesome-money-bill-alt" d="M20.149,17.322h-.916V12.285a.458.458,0,0,0-.458-.458H18a1.372,1.372,0,0,0-.762.231l-.878.585a.458.458,0,0,0-.127.635l.508.762a.458.458,0,0,0,.635.127l.027-.018v3.174h-.916a.458.458,0,0,0-.458.458V18.7a.458.458,0,0,0,.458.458h3.664a.458.458,0,0,0,.458-.458V17.78A.458.458,0,0,0,20.149,17.322ZM34.8,4.5H1.832A1.832,1.832,0,0,0,0,6.332V24.649a1.832,1.832,0,0,0,1.832,1.832H34.8a1.832,1.832,0,0,0,1.832-1.832V6.332A1.832,1.832,0,0,0,34.8,4.5ZM2.748,23.733V20.07a3.663,3.663,0,0,1,3.664,3.664Zm0-12.822V7.248H6.411A3.663,3.663,0,0,1,2.748,10.911ZM18.318,21.9c-3.035,0-5.5-2.871-5.5-6.411s2.46-6.411,5.5-6.411,5.5,2.87,5.5,6.411S21.351,21.9,18.318,21.9Zm15.57,1.832H30.224a3.663,3.663,0,0,1,3.664-3.664Zm0-12.822a3.663,3.663,0,0,1-3.664-3.664h3.664Z" transform="translate(0 -4.5)" fill="#61bd4f"/>
</svg>
