<svg id="Icon_ionic-ios-rocket" data-name="Icon ionic-ios-rocket" xmlns="http://www.w3.org/2000/svg" width="33.869" height="33.84" viewBox="0 0 33.869 33.84">
  <path id="Path_6" data-name="Path 6" d="M37.056,3.831a.359.359,0,0,0-.269-.277c-4.428-1.083-14.659,2.775-20.2,8.318a23.959,23.959,0,0,0-2.694,3.182,10.025,10.025,0,0,0-4.875.61c-4.11,1.807-5.307,6.528-5.64,8.554a.729.729,0,0,0,.8.846l6.6-.724a14.674,14.674,0,0,0,.09,1.489,1.477,1.477,0,0,0,.431.9l2.556,2.556a1.477,1.477,0,0,0,.9.431,14.645,14.645,0,0,0,1.481.09L15.512,36.4a.729.729,0,0,0,.846.8c2.027-.326,6.755-1.522,8.554-5.632a10.07,10.07,0,0,0,.619-4.859,24,24,0,0,0,3.191-2.694C34.289,18.482,38.122,8.479,37.056,3.831ZM23.773,16.846a3.476,3.476,0,1,1,4.916,0A3.473,3.473,0,0,1,23.773,16.846Z" transform="translate(-3.366 -3.372)" fill="#61bd4f"/>
  <path id="Path_7" data-name="Path 7" d="M13.291,27.292h0a3.088,3.088,0,0,1-1.612.651A2.191,2.191,0,0,1,9.156,25.42a3.027,3.027,0,0,1,.643-1.6l.008-.008a.272.272,0,0,0-.228-.464A3.741,3.741,0,0,0,7.39,24.41c-1.465,1.465-1.6,6.9-1.6,6.9s5.445-.138,6.91-1.6a3.717,3.717,0,0,0,1.066-2.189A.278.278,0,0,0,13.291,27.292Z" transform="translate(-2.984 -0.226)" fill="#61bd4f"/>
</svg>
