<svg xmlns="http://www.w3.org/2000/svg" width="20.486" height="20.487" viewBox="0 0 20.486 20.487">
  <path id="Icon_awesome-tools" data-name="Icon awesome-tools" d="M20.048,15.832l-4.685-4.685a2.971,2.971,0,0,0-3.417-.556L7.68,6.326V3.841L2.559,0,0,2.561,3.839,7.682H6.324l4.265,4.265a2.977,2.977,0,0,0,.556,3.417l4.685,4.685a1.488,1.488,0,0,0,2.109,0l2.109-2.109a1.5,1.5,0,0,0,0-2.109ZM13.27,9a4.21,4.21,0,0,1,3,1.24l.776.776A5.663,5.663,0,0,0,18.8,9.839a5.754,5.754,0,0,0,1.516-5.469.479.479,0,0,0-.8-.22L16.531,7.126l-2.717-.452-.452-2.717L16.339.98a.483.483,0,0,0-.228-.808,5.764,5.764,0,0,0-5.465,1.516A5.67,5.67,0,0,0,9,5.833l3.285,3.285A4.359,4.359,0,0,1,13.27,9ZM9.113,12.283,6.844,10.015l-6.1,6.1a2.56,2.56,0,0,0,3.621,3.621l4.945-4.945a4.3,4.3,0,0,1-.2-2.509Zm-6.554,6.6a.96.96,0,1,1,.96-.96A.963.963,0,0,1,2.559,18.885Z" transform="translate(0.004)" fill="#61bd4f"/>
</svg>
