<svg xmlns="http://www.w3.org/2000/svg" width="29.25" height="29.25" viewBox="0 0 29.25 29.25">
  <path id="Icon_ionic-ios-help-buoy" data-name="Icon ionic-ios-help-buoy" d="M18,3.375A14.625,14.625,0,1,0,32.625,18,14.623,14.623,0,0,0,18,3.375Zm3.839,2.559a12.688,12.688,0,0,1,8.227,8.227l-6.244.422a6.751,6.751,0,0,0-2.384-2.391ZM9.049,9.049a12.566,12.566,0,0,1,5.112-3.115l.4,6.258a6.906,6.906,0,0,0-2.384,2.384l-6.251-.415A12.705,12.705,0,0,1,9.049,9.049Zm5.112,21.016a12.688,12.688,0,0,1-8.227-8.227l6.258-.4a6.807,6.807,0,0,0,2.377,2.377ZM18,22.781A4.781,4.781,0,1,1,22.781,18,4.786,4.786,0,0,1,18,22.781Zm8.951,4.17a12.612,12.612,0,0,1-5.112,3.115l-.415-6.251a6.773,6.773,0,0,0,2.4-2.4l6.244.422A12.59,12.59,0,0,1,26.951,26.951Z" transform="translate(-3.375 -3.375)" fill="#fff"/>
</svg>
