<?xml version="1.0" encoding="utf-8"?>
<!-- Generator: Adobe Illustrator 17.0.0, SVG Export Plug-In . SVG Version: 6.00 Build 0)  -->
<!DOCTYPE svg PUBLIC "-//W3C//DTD SVG 1.1//EN" "http://www.w3.org/Graphics/SVG/1.1/DTD/svg11.dtd">
<svg version="1.1" id="Layer_1" xmlns="http://www.w3.org/2000/svg" xmlns:xlink="http://www.w3.org/1999/xlink" x="0px" y="0px"
	 width="75px" height="44px" viewBox="0 0 75 44" enable-background="new 0 0 75 44" xml:space="preserve">
<g>
	<g>
		<path fill="#FFFDFD" stroke="#F9F9F9" stroke-width="4" stroke-miterlimit="10" d="M48.64,0.571c-5.6,0-9.303,3.058-11.14,5.081
			c-1.837-2.023-5.539-5.081-11.14-5.081c-7.642,0-12.731,7.106-12.731,15.067c0,5.956,3.004,17.56,23.119,28.353
			c0.47,0.252,1.035,0.252,1.505,0c20.115-10.793,23.119-22.396,23.119-28.353C61.371,7.493,56.131,0.571,48.64,0.571z M37.5,40.778
			c-9.662-5.312-20.688-14.164-20.688-25.14c0-6.105,3.666-11.884,9.548-11.884c4.462,0,8.155,2.736,9.788,5.313
			c0.623,1.002,2.085,1.001,2.706-0.004c0.033-0.053,3.351-5.308,9.786-5.308c5.926,0,9.548,5.836,9.548,11.884
			C58.188,26.614,47.162,35.465,37.5,40.778z"/>
	</g>
</g>
</svg>
