<svg xmlns="http://www.w3.org/2000/svg" width="7.739" height="9.026" viewBox="0 0 7.739 9.026">
  <path id="Icon_awesome-android" data-name="Icon awesome-android" d="M3.411,5.723V8.057a.552.552,0,0,1-.554.558.6.6,0,0,1-.607-.558V5.723a.6.6,0,0,1,.607-.554A.557.557,0,0,1,3.411,5.723Zm.218,3.164a.6.6,0,0,0,.6.6h.4l.006,1.231a.556.556,0,0,0,1.113,0V9.484h.75v1.231a.559.559,0,0,0,1.119,0V9.484H8.02a.594.594,0,0,0,.593-.6V5.272H3.629V8.887Zm5-3.811H3.606a2.265,2.265,0,0,1,1.282-2L4.5,2.361a.078.078,0,1,1,.135-.077L5.029,3A2.723,2.723,0,0,1,7.212,3L7.6,2.287a.078.078,0,1,1,.135.077l-.385.709a2.27,2.27,0,0,1,1.276,2ZM5.187,3.958a.212.212,0,0,0-.212-.212.212.212,0,0,0,0,.423A.212.212,0,0,0,5.187,3.958Zm2.286,0a.209.209,0,1,0-.206.212A.21.21,0,0,0,7.472,3.958ZM9.383,5.169a.553.553,0,0,0-.554.554V8.057a.556.556,0,0,0,.554.558.6.6,0,0,0,.607-.558V5.723A.6.6,0,0,0,9.383,5.169Z" transform="translate(-2.25 -2.245)" fill="#afb5b9"/>
</svg>
