<svg xmlns="http://www.w3.org/2000/svg" width="7.739" height="9.21" viewBox="0 0 7.739 9.21">
  <path id="Icon_awesome-apple" data-name="Icon awesome-apple" d="M6.752,7.117A1.92,1.92,0,0,1,7.78,5.373a2.209,2.209,0,0,0-1.742-.917,7.3,7.3,0,0,0-1.82.426,14.078,14.078,0,0,0-1.571-.405A2.492,2.492,0,0,0,.281,7.216a5.125,5.125,0,0,0,.3,1.67c.263.755,1.213,2.605,2.2,2.574.518-.012.884-.368,1.559-.368.654,0,.993.368,1.571.368,1-.014,1.859-1.7,2.11-2.453a2.038,2.038,0,0,1-1.269-1.89ZM5.588,3.741A1.937,1.937,0,0,0,6.082,2.25a2.18,2.18,0,0,0-1.4.718,1.967,1.967,0,0,0-.526,1.478A1.727,1.727,0,0,0,5.588,3.741Z" transform="translate(-0.281 -2.25)" fill="#afb5b9"/>
</svg>
