<svg xmlns="http://www.w3.org/2000/svg" width="15.681" height="20.909" viewBox="0 0 15.681 20.909">
  <path id="Icon_awesome-award" data-name="Icon awesome-award" d="M3.966,14.808c-.355-.355-.17-.255-1.026-.484A2.946,2.946,0,0,1,1.9,13.781L.049,18.323a.653.653,0,0,0,.63.9l2.152-.082L4.311,20.7a.653.653,0,0,0,1.079-.2L7.516,15.29a2.931,2.931,0,0,1-3.55-.481Zm11.666,3.515-1.853-4.543a2.94,2.94,0,0,1-1.038.544c-.86.23-.672.13-1.026.484a2.931,2.931,0,0,1-3.55.481L10.291,20.5a.653.653,0,0,0,1.079.2l1.48-1.563L15,19.223a.654.654,0,0,0,.63-.9ZM10.74,13.884c.624-.635.7-.58,1.584-.822a1.66,1.66,0,0,0,1.163-1.183,2.624,2.624,0,0,1,1.06-1.868,1.694,1.694,0,0,0,.426-1.616,2.656,2.656,0,0,1,0-2.157,1.694,1.694,0,0,0-.426-1.616,2.625,2.625,0,0,1-1.06-1.868,1.66,1.66,0,0,0-1.163-1.183A2.56,2.56,0,0,1,10.488.49,1.625,1.625,0,0,0,8.9.057a2.527,2.527,0,0,1-2.119,0A1.624,1.624,0,0,0,5.193.49,2.558,2.558,0,0,1,3.358,1.568,1.66,1.66,0,0,0,2.195,2.752,2.624,2.624,0,0,1,1.135,4.62,1.693,1.693,0,0,0,.71,6.236a2.655,2.655,0,0,1,0,2.157,1.7,1.7,0,0,0,.426,1.617,2.624,2.624,0,0,1,1.06,1.868,1.66,1.66,0,0,0,1.163,1.183c.914.249.982.21,1.584.822a1.623,1.623,0,0,0,2.031.238,1.62,1.62,0,0,1,1.737,0A1.622,1.622,0,0,0,10.74,13.884Zm-6.752-6.7a3.853,3.853,0,1,1,3.853,3.921A3.887,3.887,0,0,1,3.988,7.185Z" transform="translate(0 0.001)" fill="#4282d6"/>
</svg>
