<svg xmlns="http://www.w3.org/2000/svg" width="19.789" height="22.616" viewBox="0 0 19.789 22.616">
  <path id="Icon_awesome-building" data-name="Icon awesome-building" d="M19.259,21.2h-.883V1.06A1.06,1.06,0,0,0,17.315,0H2.474a1.06,1.06,0,0,0-1.06,1.06V21.2H.53a.53.53,0,0,0-.53.53v.883H19.789v-.883A.53.53,0,0,0,19.259,21.2ZM5.654,3.357a.53.53,0,0,1,.53-.53H7.951a.53.53,0,0,1,.53.53V5.124a.53.53,0,0,1-.53.53H6.184a.53.53,0,0,1-.53-.53Zm0,4.24a.53.53,0,0,1,.53-.53H7.951a.53.53,0,0,1,.53.53V9.364a.53.53,0,0,1-.53.53H6.184a.53.53,0,0,1-.53-.53Zm2.3,6.537H6.184a.53.53,0,0,1-.53-.53V11.838a.53.53,0,0,1,.53-.53H7.951a.53.53,0,0,1,.53.53V13.6A.53.53,0,0,1,7.951,14.135ZM11.308,21.2H8.481v-3.71a.53.53,0,0,1,.53-.53h1.767a.53.53,0,0,1,.53.53Zm2.827-7.6a.53.53,0,0,1-.53.53H11.838a.53.53,0,0,1-.53-.53V11.838a.53.53,0,0,1,.53-.53H13.6a.53.53,0,0,1,.53.53Zm0-4.24a.53.53,0,0,1-.53.53H11.838a.53.53,0,0,1-.53-.53V7.6a.53.53,0,0,1,.53-.53H13.6a.53.53,0,0,1,.53.53Zm0-4.24a.53.53,0,0,1-.53.53H11.838a.53.53,0,0,1-.53-.53V3.357a.53.53,0,0,1,.53-.53H13.6a.53.53,0,0,1,.53.53Z" fill="#4282d6"/>
</svg>
