<svg xmlns="http://www.w3.org/2000/svg" width="25.736" height="24.222" viewBox="0 0 25.736 24.222">
  <path id="Icon_awesome-chart-pie" data-name="Icon awesome-chart-pie" d="M24.969,13.625H13.743L21.219,21.1a.759.759,0,0,0,1.05.032,11.33,11.33,0,0,0,3.46-6.664.758.758,0,0,0-.76-.844Zm-.749-3.066A11.381,11.381,0,0,0,13.663,0a.761.761,0,0,0-.795.766V11.354H23.454a.761.761,0,0,0,.766-.795ZM10.6,13.625V2.4a.758.758,0,0,0-.844-.76A11.346,11.346,0,0,0,.007,13.264,11.494,11.494,0,0,0,11.5,24.221a11.266,11.266,0,0,0,6.4-2.083A.752.752,0,0,0,17.971,21Z" transform="translate(0 0)" fill="#4282d6"/>
</svg>
