<svg xmlns="http://www.w3.org/2000/svg" width="13.311" height="13.311" viewBox="0 0 13.311 13.311">
  <path id="Icon_awesome-download" data-name="Icon awesome-download" d="M5.615,0H7.7a.622.622,0,0,1,.624.624V4.991H10.6a.519.519,0,0,1,.367.887L7.011,9.835a.5.5,0,0,1-.71,0L2.342,5.878a.519.519,0,0,1,.367-.887H4.991V.624A.622.622,0,0,1,5.615,0Zm7.7,9.775v2.912a.622.622,0,0,1-.624.624H.624A.622.622,0,0,1,0,12.687V9.775a.622.622,0,0,1,.624-.624H4.438l1.274,1.274a1.332,1.332,0,0,0,1.887,0L8.873,9.151h3.814A.622.622,0,0,1,13.311,9.775Zm-3.224,2.288a.52.52,0,1,0-.52.52A.521.521,0,0,0,10.087,12.063Zm1.664,0a.52.52,0,1,0-.52.52A.521.521,0,0,0,11.751,12.063Z" fill="#fff"/>
</svg>
