<svg xmlns="http://www.w3.org/2000/svg" width="13" height="13" viewBox="0 0 13 13">
  <path id="Icon_metro-earth" data-name="Icon metro-earth" d="M9.071,1.928a6.5,6.5,0,1,0,6.5,6.5,6.5,6.5,0,0,0-6.5-6.5Zm0,12.188a5.668,5.668,0,0,1-2.25-.463l2.96-3.33a.406.406,0,0,0,.1-.27V8.834a.406.406,0,0,0-.406-.406A5.3,5.3,0,0,1,6.514,6.922.406.406,0,0,0,6.227,6.8H4.6a.406.406,0,0,0-.406.406V9.647a.406.406,0,0,0,.225.363l1.4.7V13.1a5.691,5.691,0,0,1-1.89-7.105H5.414A.406.406,0,0,0,5.7,5.872L7.327,4.247a.406.406,0,0,0,.119-.287V2.977a5.7,5.7,0,0,1,4.117.338c-.053.044-.1.091-.153.14a2.438,2.438,0,0,0,1.722,4.161l.121,0a9.54,9.54,0,0,1-.107,4.727.405.405,0,0,0-.011.066,5.67,5.67,0,0,1-4.064,1.71Z" transform="translate(-2.571 -1.928)" fill="#427ecc"/>
</svg>
