<svg xmlns="http://www.w3.org/2000/svg" width="19.031" height="14.799" viewBox="0 0 19.031 14.799">
  <path id="Icon_awesome-home" data-name="Icon awesome-home" d="M9.262,6.093,3.171,11.109v5.414a.529.529,0,0,0,.529.529l3.7-.01a.529.529,0,0,0,.526-.529V13.352a.529.529,0,0,1,.529-.529h2.114a.529.529,0,0,1,.529.529v3.16a.529.529,0,0,0,.529.53l3.7.01a.529.529,0,0,0,.529-.529V11.106L9.767,6.093A.4.4,0,0,0,9.262,6.093ZM18.883,9.5,16.121,7.226V2.65a.4.4,0,0,0-.4-.4h-1.85a.4.4,0,0,0-.4.4v2.4L10.521,2.615a1.586,1.586,0,0,0-2.015,0L.143,9.5a.4.4,0,0,0-.053.558l.842,1.024a.4.4,0,0,0,.559.054l7.771-6.4a.4.4,0,0,1,.505,0l7.771,6.4a.4.4,0,0,0,.558-.053l.842-1.024a.4.4,0,0,0-.056-.559Z" transform="translate(0.001 -2.254)" fill="#fff"/>
</svg>
