<svg xmlns="http://www.w3.org/2000/svg" width="7.738" height="7.738" viewBox="0 0 7.738 7.738">
  <path id="Icon_awesome-internet-explorer" data-name="Icon awesome-internet-explorer" d="M7.3,2.414a3.7,3.7,0,0,0,.324-1.328c0-1.1-1.2-1.487-3.169-.583A3.574,3.574,0,0,0,.872,3.321,6.222,6.222,0,0,1,2.716,1.792,9.989,9.989,0,0,0,.665,4.409,5.288,5.288,0,0,0,0,6.6c0,1.49,1.4,1.307,2.724.635a3.416,3.416,0,0,0,1.537.235A3.387,3.387,0,0,0,7.538,5.264H5.712a1.609,1.609,0,0,1-2.975-.717H7.707A3.47,3.47,0,0,0,7.3,2.414ZM.976,5.243A3.513,3.513,0,0,0,2.491,7.106c-1.341.74-2.619.44-1.515-1.864ZM2.729,3.6A1.535,1.535,0,0,1,4.3,2.163,1.537,1.537,0,0,1,5.872,3.6ZM5.518.762a2.765,2.765,0,0,1,1.1-.333.782.782,0,0,1,.82.812,3.381,3.381,0,0,1-.22,1.026A3.7,3.7,0,0,0,5.518.762Z" transform="translate(0 0)" fill="#afb5b9"/>
</svg>
