<svg xmlns="http://www.w3.org/2000/svg" width="24.724" height="14.835" viewBox="0 0 24.724 14.835">
  <path id="Icon_awesome-money-bill-alt" data-name="Icon awesome-money-bill-alt" d="M13.6,13.153H12.98v-3.4a.309.309,0,0,0-.309-.309h-.525a.926.926,0,0,0-.514.156L11.04,10a.309.309,0,0,0-.086.428l.343.514a.309.309,0,0,0,.428.086l.018-.012v2.142h-.618a.309.309,0,0,0-.309.309v.618a.309.309,0,0,0,.309.309H13.6a.309.309,0,0,0,.309-.309v-.618A.309.309,0,0,0,13.6,13.153ZM23.488,4.5H1.236A1.236,1.236,0,0,0,0,5.736V18.1a1.236,1.236,0,0,0,1.236,1.236H23.488A1.236,1.236,0,0,0,24.724,18.1V5.736A1.236,1.236,0,0,0,23.488,4.5ZM1.854,17.48V15.008A2.472,2.472,0,0,1,4.327,17.48Zm0-8.653V6.354H4.327A2.472,2.472,0,0,1,1.854,8.827Zm10.508,7.417c-2.048,0-3.709-1.937-3.709-4.327s1.66-4.327,3.709-4.327,3.709,1.937,3.709,4.327S14.41,16.244,12.362,16.244ZM22.87,17.48H20.4a2.472,2.472,0,0,1,2.472-2.472Zm0-8.653A2.472,2.472,0,0,1,20.4,6.354H22.87Z" transform="translate(0 -4.5)" fill="#4282d6"/>
</svg>
