<svg xmlns="http://www.w3.org/2000/svg" width="22.051" height="22.051" viewBox="0 0 22.051 22.051">
  <path id="Icon_simple-processwire" data-name="Icon simple-processwire" d="M20.157,4.842A11.236,11.236,0,0,0,9.871.056a11.093,11.093,0,0,0-6.349,2.76A10.511,10.511,0,0,0,.367,7.711a10.6,10.6,0,0,0-.243,4.418A15.007,15.007,0,0,0,.9,14.82a.878.878,0,0,0,.377.453,1.508,1.508,0,0,0,1.692-.585.154.154,0,0,0,.028-.134,12.607,12.607,0,0,1-.262-1.371,12.354,12.354,0,0,1-.1-2.857A8.324,8.324,0,0,1,2.98,8.517,8,8,0,0,1,5.369,4.86a8.648,8.648,0,0,1,4.636-2.086,8.243,8.243,0,0,1,2.939.187A8.819,8.819,0,0,1,15.678,4.2,8.177,8.177,0,0,1,17.859,6.37a8.134,8.134,0,0,1,1.323,6.053,8.671,8.671,0,0,1-1.16,3.009,8.118,8.118,0,0,1-2.208,2.338,8.6,8.6,0,0,1-2.925,1.318,7.98,7.98,0,0,1-1.588.221,8.889,8.889,0,0,1-1.559-.075c-.662-.106-.8-.275-.952-.5a1.409,1.409,0,0,1-.135-.608c.01-4.047.008-2.967.008-5.068,0-.594-.019-1.132-.014-1.621a2.542,2.542,0,0,1,.669-1.951,2.231,2.231,0,0,1,1.633-.706,2.145,2.145,0,0,1,2.209,1.933,2.512,2.512,0,0,1-.884,2.173,3.2,3.2,0,0,1-.884.469,3.749,3.749,0,0,1-1.407.167.137.137,0,0,0-.145.109l-.152.786a.672.672,0,0,0,.377.893,4.65,4.65,0,0,0,1.811.221,4.533,4.533,0,0,0,2.8-1.237,4.108,4.108,0,0,0,1.249-2.43,5.4,5.4,0,0,0-.511-3.078A5.057,5.057,0,0,0,9.491,6.236l-.014,0a5.069,5.069,0,0,0-2.17,1.334A4.986,4.986,0,0,0,6.188,9.369a5.725,5.725,0,0,0-.314,2.008c-.015.594.014,1.145.014,1.661v3.4c0,1.088-.037,1.276,0,1.836a4.264,4.264,0,0,0,.234,1.242,3.551,3.551,0,0,0,.759,1.242,3.6,3.6,0,0,0,1.188.827,7.992,7.992,0,0,0,3.34.456,10.936,10.936,0,0,0,2.1-.288,11.224,11.224,0,0,0,3.891-1.762,10.821,10.821,0,0,0,2.95-3.117,11.268,11.268,0,0,0,1.533-3.99,10.866,10.866,0,0,0-1.766-8.074l.035.034Z" transform="translate(0.001 -0.001)" fill="#4282d6"/>
</svg>
