<?xml version="1.0" encoding="utf-8"?>
<!-- Generator: Adobe Illustrator 17.0.0, SVG Export Plug-In . SVG Version: 6.00 Build 0)  -->
<!DOCTYPE svg PUBLIC "-//W3C//DTD SVG 1.1//EN" "http://www.w3.org/Graphics/SVG/1.1/DTD/svg11.dtd">
<svg version="1.1" id="Layer_1" xmlns="http://www.w3.org/2000/svg" xmlns:xlink="http://www.w3.org/1999/xlink" x="0px" y="0px"
	 width="512px" height="512px" viewBox="0 0 512 512" enable-background="new 0 0 512 512" xml:space="preserve">
<g>
	<path fill="#111111" d="M478.513,104.128H155.706l-12.538-56.833c-3.709-16.82-18.616-28.796-35.837-28.796H56.23
		c-20.269,0-36.698,16.428-36.698,36.698S35.961,91.896,56.23,91.896h21.618l58.391,264.788
		c3.709,16.82,18.616,28.796,35.837,28.796h211.108c14.344,0,27.379-8.362,33.354-21.407l95.339-207.955
		c5.209-11.364,4.281-24.59-2.476-35.113C502.653,110.485,491.015,104.128,478.513,104.128z M359.637,312.083H201.569
		l-29.684-134.559h249.441L359.637,312.083z"/>
	<path fill="#111111" d="M184.93,414.838c-20.213,0-36.698,16.485-36.698,36.698s16.485,36.698,36.698,36.698
		s36.698-16.485,36.698-36.698S205.143,414.838,184.93,414.838z"/>
	<path fill="#111111" d="M368.42,414.838c-20.213,0-36.698,16.485-36.698,36.698s16.485,36.698,36.698,36.698
		s36.698-16.485,36.698-36.698S388.633,414.838,368.42,414.838z"/>
</g>
</svg>
