<?xml version="1.0" encoding="UTF-8"?>
<svg width="48px" height="48px" viewBox="0 0 48 48" version="1.1" xmlns="http://www.w3.org/2000/svg" xmlns:xlink="http://www.w3.org/1999/xlink">
    <!-- Generator: Sketch 52.4 (67378) - http://www.bohemiancoding.com/sketch -->
    <title>icon/instruments/indices</title>
    <desc>Created with Sketch.</desc>
    <g id="icon/instruments/indices" stroke="none" stroke-width="1" fill="none" fill-rule="evenodd">
        <g id="icon/instruments/-copy">
            <g id="Elements/Icon-Blocks/Blue-Copy-2"></g>
            <g id="graph" transform="translate(4.000000, 4.000000)" fill="#FF701A" fill-rule="nonzero">
                <path d="M27,38.2 L27,28 L29,28 L29,38.2 L36,38.2 C37.2150264,38.2 38.2,37.2150264 38.2,36 L38.2,4 C38.2,2.78497355 37.2150264,1.8 36,1.8 L4,1.8 C2.78497355,1.8 1.8,2.78497355 1.8,4 L1.8,36 C1.8,37.2150264 2.78497355,38.2 4,38.2 L11,38.2 L11,19 L13,19 L13,38.2 L27,38.2 Z M4,0 L36,0 C38.209139,-4.05812251e-16 40,1.790861 40,4 L40,36 C40,38.209139 38.209139,40 36,40 L4,40 C1.790861,40 2.705415e-16,38.209139 0,36 L0,4 C-2.705415e-16,1.790861 1.790861,4.05812251e-16 4,0 Z" id="Combined-Shape" opacity="0.5"></path>
                <path d="M27.4145079,24.5231666 C26.8271109,24.7562383 26.4117647,25.3296145 26.4117647,26 C26.4117647,26.0907537 26.4193765,26.1797296 26.4339966,26.266324 L12.5877627,18.4759304 C13.1739592,18.2422834 13.5882353,17.6695214 13.5882353,17 C13.5882353,16.908404 13.5804815,16.818619 13.5655945,16.7312655 L27.4145079,24.5231666 Z M28.0217001,24.4119099 L38.1956325,12.2031911 L38.197204,15.3254052 L29.5583886,25.6919836 C29.4163223,24.9690941 28.7838054,24.4221154 28.0217001,24.4119099 Z M11.725359,18.5645764 L1.8,27.1670236 L1.8,24.5234487 L10.4127344,17.0560253 C10.439025,17.8143605 10.9969553,18.4375996 11.725359,18.5645764 Z" id="Combined-Shape"></path>
                <path d="M12,5.5 C12.5522847,5.5 13,5.94771525 13,6.5 C13,7.05228475 12.5522847,7.5 12,7.5 C11.4477153,7.5 11,7.05228475 11,6.5 C11,5.94771525 11.4477153,5.5 12,5.5 Z M12,2.5 C12.5522847,2.5 13,2.94771525 13,3.5 C13,4.05228475 12.5522847,4.5 12,4.5 C11.4477153,4.5 11,4.05228475 11,3.5 C11,2.94771525 11.4477153,2.5 12,2.5 Z M12,8.5 C12.5522847,8.5 13,8.94771525 13,9.5 C13,10.0522847 12.5522847,10.5 12,10.5 C11.4477153,10.5 11,10.0522847 11,9.5 C11,8.94771525 11.4477153,8.5 12,8.5 Z M12,11.5 C12.5522847,11.5 13,11.9477153 13,12.5 C13,13.0522847 12.5522847,13.5 12,13.5 C11.4477153,13.5 11,13.0522847 11,12.5 C11,11.9477153 11.4477153,11.5 12,11.5 Z M28,5.5 C28.5522847,5.5 29,5.94771525 29,6.5 C29,7.05228475 28.5522847,7.5 28,7.5 C27.4477153,7.5 27,7.05228475 27,6.5 C27,5.94771525 27.4477153,5.5 28,5.5 Z M28,2.5 C28.5522847,2.5 29,2.94771525 29,3.5 C29,4.05228475 28.5522847,4.5 28,4.5 C27.4477153,4.5 27,4.05228475 27,3.5 C27,2.94771525 27.4477153,2.5 28,2.5 Z M28,8.5 C28.5522847,8.5 29,8.94771525 29,9.5 C29,10.0522847 28.5522847,10.5 28,10.5 C27.4477153,10.5 27,10.0522847 27,9.5 C27,8.94771525 27.4477153,8.5 28,8.5 Z M28,11.5 C28.5522847,11.5 29,11.9477153 29,12.5 C29,13.0522847 28.5522847,13.5 28,13.5 C27.4477153,13.5 27,13.0522847 27,12.5 C27,11.9477153 27.4477153,11.5 28,11.5 Z M28,14.5 C28.5522847,14.5 29,14.9477153 29,15.5 C29,16.0522847 28.5522847,16.5 28,16.5 C27.4477153,16.5 27,16.0522847 27,15.5 C27,14.9477153 27.4477153,14.5 28,14.5 Z M28,17.5 C28.5522847,17.5 29,17.9477153 29,18.5 C29,19.0522847 28.5522847,19.5 28,19.5 C27.4477153,19.5 27,19.0522847 27,18.5 C27,17.9477153 27.4477153,17.5 28,17.5 Z M28,20.5 C28.5522847,20.5 29,20.9477153 29,21.5 C29,22.0522847 28.5522847,22.5 28,22.5 C27.4477153,22.5 27,22.0522847 27,21.5 C27,20.9477153 27.4477153,20.5 28,20.5 Z" id="Combined-Shape"></path>
                <path d="M12,20 C10.3431458,20 9,18.6568542 9,17 C9,15.3431458 10.3431458,14 12,14 C13.6568542,14 15,15.3431458 15,17 C15,18.6568542 13.6568542,20 12,20 Z M12,18.5882353 C12.8771581,18.5882353 13.5882353,17.8771581 13.5882353,17 C13.5882353,16.1228419 12.8771581,15.4117647 12,15.4117647 C11.1228419,15.4117647 10.4117647,16.1228419 10.4117647,17 C10.4117647,17.8771581 11.1228419,18.5882353 12,18.5882353 Z M28,29 C26.3431458,29 25,27.6568542 25,26 C25,24.3431458 26.3431458,23 28,23 C29.6568542,23 31,24.3431458 31,26 C31,27.6568542 29.6568542,29 28,29 Z M28,27.5882353 C28.8771581,27.5882353 29.5882353,26.8771581 29.5882353,26 C29.5882353,25.1228419 28.8771581,24.4117647 28,24.4117647 C27.1228419,24.4117647 26.4117647,25.1228419 26.4117647,26 C26.4117647,26.8771581 27.1228419,27.5882353 28,27.5882353 Z" id="Combined-Shape-Copy"></path>
            </g>
        </g>
    </g>
</svg>