<?xml version="1.0" encoding="UTF-8"?>
<svg width="48px" height="48px" viewBox="0 0 48 48" version="1.1" xmlns="http://www.w3.org/2000/svg" xmlns:xlink="http://www.w3.org/1999/xlink">
    <!-- Generator: Sketch 52.4 (67378) - http://www.bohemiancoding.com/sketch -->
    <title>icon/instruments/bonds</title>
    <desc>Created with Sketch.</desc>
    <g id="icon/instruments/bonds" stroke="none" stroke-width="1" fill="none" fill-rule="evenodd">
        <g id="icon/instruments/-copy" fill="#FF701A" fill-rule="nonzero">
            <g id="Icons/20/Blue" transform="translate(3.000000, 4.000000)">
                <path d="M10,34 L25,34 C25.5522847,34 26,34.4477153 26,35 C26,36.6570486 27.3429514,38 29,38 C30.6570486,38 32,36.6570486 32,35 L32,5 C32,4.44771525 32.4477153,4 33,4 C33.5522847,4 34,4.44771525 34,5 L34,35 C34,37.7616181 31.7616181,40 29,40 C26.5808523,40 24.5632135,38.2823616 24.099999,36 L9,36 C8.44771525,36 8,35.5522847 8,35 L8,5 C8,2.23838192 10.2383819,0 13,0 L37,0 C37.5522847,0 38,0.44771525 38,1 C38,1.55228475 37.5522847,2 37,2 L13,2 C11.3429514,2 10,3.34295142 10,5 L10,34 Z" id="Combined-Shape"></path>
                <path d="M5,38 L29,38 C29.5522847,38 30,38.4477153 30,39 C30,39.5522847 29.5522847,40 29,40 L5,40 C2.23838192,40 0,37.7616181 0,35 C0,34.4477153 0.44771525,34 1,34 L25,34 C25.5522847,34 26,34.4477153 26,35 C26,35.5522847 25.5522847,36 25,36 L2.17065802,36 C2.58242852,37.1652765 3.69359931,38 5,38 Z" id="Stroke-5"></path>
                <path d="M41,4 C41.5522847,4 42,4.44771525 42,5 C42,5.55228475 41.5522847,6 41,6 L33,6 C32.4477153,6 32,5.55228475 32,5 C32,4.44771525 32.4477153,4 33,4 L41,4 Z" id="Stroke-13" opacity="0.5"></path>
                <path d="M34,5 C34,5.55228475 33.5522847,6 33,6 C32.4477153,6 32,5.55228475 32,5 C32,2.23838192 34.2383819,0 37,0 C39.7616181,0 42,2.23838192 42,5 C42,5.55228475 41.5522847,6 41,6 C40.4477153,6 40,5.55228475 40,5 C40,3.34295142 38.6570486,2 37,2 C35.3429514,2 34,3.34295142 34,5 Z" id="Stroke-13-Copy"></path>
                <g id="Group" transform="translate(14.000000, 7.000000)">
                    <path d="M1,7 C0.44771525,7 -1.13686838e-12,6.55228475 -1.13686838e-12,6 C-1.13686838e-12,5.44771525 0.44771525,5 1,5 L13,5 C13.5522847,5 14,5.44771525 14,6 C14,6.55228475 13.5522847,7 13,7 L1,7 Z" id="Stroke-17" opacity="0.5"></path>
                    <path d="M3,2 C2.44771525,2 2,1.55228475 2,1 C2,0.44771525 2.44771525,0 3,0 L11,0 C11.5522847,0 12,0.44771525 12,1 C12,1.55228475 11.5522847,2 11,2 L3,2 Z" id="Stroke-19" opacity="0.5"></path>
                    <polygon id="Rectangle-10" opacity="0.5" points="4 19 10 19 10 23 7 21.2 4 23"></polygon>
                    <path d="M7,18 C8.65685425,18 10,16.6568542 10,15 C10,13.3431458 8.65685425,12 7,12 C5.34314575,12 4,13.3431458 4,15 C4,16.6568542 5.34314575,18 7,18 Z M7,20 C4.23857625,20 2,17.7614237 2,15 C2,12.2385763 4.23857625,10 7,10 C9.76142375,10 12,12.2385763 12,15 C12,17.7614237 9.76142375,20 7,20 Z" id="Oval-4"></path>
                </g>
            </g>
        </g>
    </g>
</svg>