<?xml version="1.0" encoding="UTF-8"?>
<svg width="48px" height="48px" viewBox="0 0 48 48" version="1.1" xmlns="http://www.w3.org/2000/svg" xmlns:xlink="http://www.w3.org/1999/xlink">
    <!-- Generator: Sketch 52.4 (67378) - http://www.bohemiancoding.com/sketch -->
    <title>icon/instruments/Cryptocurrency</title>
    <desc>Created with Sketch.</desc>
    <g id="icon/instruments/Cryptocurrency" stroke="none" stroke-width="1" fill="none" fill-rule="evenodd">
        <g id="Group-2" transform="translate(6.000000, 7.000000)" fill="#FF701A" fill-rule="nonzero">
            <path d="M16.7696654,33.2157894 L3.69999995,33.2157894 C2.20883117,33.2157894 1.00000002,32.0069583 1.00000002,30.5157895 L1.00000002,27.8526315 C1.00000002,27.3714446 1.12587509,26.9196573 1.34649347,26.5284015 C0.59688514,26.0486399 0.100000024,25.2086626 0.100000024,24.2526316 L0.100000024,21.5894736 C0.100000024,20.6334426 0.59688514,19.7934654 1.34649347,19.3137037 C1.12587509,18.9224479 1.00000002,18.4706607 1.00000002,17.9894737 L1.00000002,15.3263157 C1.00000002,14.3702847 1.49688514,13.5303075 2.24649347,13.0505458 C2.02587509,12.65929 1.90000002,12.2075028 1.90000002,11.7263158 L1.90000002,9.06315785 C1.90000002,8.5819709 2.02587509,8.13018365 2.24649347,7.73892785 C1.49688514,7.25916622 1.00000002,6.41918895 1.00000002,5.46315794 L1.00000002,2.79999995 C1.00000002,1.30883117 2.20883117,0.100000024 3.69999995,0.100000024 L27.1,0.100000024 C28.5911688,0.100000024 29.8,1.30883117 29.8,2.79999995 L29.8,5.46315794 C29.8,5.94434489 29.6741249,6.39613214 29.4535065,6.78738794 C30.2031149,7.26714957 30.7,8.10712684 30.7,9.06315785 L30.7,10.223951 C30.1276313,9.86450106 29.5261994,9.54664176 28.9,9.27464359 L28.9,9.06315785 C28.9,8.56610159 28.4970563,8.16315787 28,8.16315787 L27.1,8.16315787 L23.881769,8.16315787 C23.7549421,8.15965682 23.6276781,8.15789474 23.5,8.15789474 C23.3723219,8.15789474 23.2450579,8.15965682 23.118231,8.16315787 L4.59999995,8.16315787 C4.10294369,8.16315787 3.69999998,8.56610159 3.69999998,9.06315785 L3.69999998,11.7263158 C3.69999998,12.2233721 4.10294369,12.6263158 4.59999995,12.6263158 L13.4422616,12.6263158 C12.9378716,13.1859795 12.4800539,13.7879872 12.074867,14.4263158 L4.59999995,14.4263158 L3.69999995,14.4263158 C3.20294369,14.4263158 2.79999998,14.8292595 2.79999998,15.3263157 L2.79999998,17.9894737 C2.79999998,18.48653 3.20294369,18.8894737 3.69999995,18.8894737 L10.2711247,18.8894737 C10.1510248,19.4764586 10.0694619,20.0773667 10.0291767,20.6894737 L3.69999995,20.6894737 L2.79999995,20.6894737 C2.30294369,20.6894737 1.89999998,21.0924174 1.89999998,21.5894736 L1.89999998,24.2526316 C1.89999998,24.7496879 2.30294369,25.1526316 2.79999995,25.1526316 L10.4838495,25.1526316 C10.655444,25.7717065 10.870529,26.3728571 11.1256324,26.9526316 L3.69999995,26.9526316 C3.20294369,26.9526316 2.79999998,27.3555753 2.79999998,27.8526315 L2.79999998,30.5157895 C2.79999998,31.0128458 3.20294369,31.4157895 3.69999995,31.4157895 L14.3159723,31.4157895 C15.0606053,32.1032154 15.8834122,32.7080959 16.7696654,33.2157894 Z M3.69999995,1.89999998 C3.20294369,1.89999998 2.79999998,2.30294369 2.79999998,2.79999995 L2.79999998,5.46315794 C2.79999998,5.9602142 3.20294369,6.36315792 3.69999995,6.36315792 L27.1,6.36315792 C27.5970563,6.36315792 28,5.9602142 28,5.46315794 L28,2.79999995 C28,2.30294369 27.5970563,1.89999998 27.1,1.89999998 L3.69999995,1.89999998 Z" id="Combined-Shape" opacity="0.5"></path>
            <path d="M23.5,33.2 C29.9640872,33.2 35.2,27.9947066 35.2,21.5789474 C35.2,15.1631881 29.9640872,9.95789469 23.5,9.95789469 C17.0359128,9.95789469 11.8,15.1631881 11.8,21.5789474 C11.8,27.9947066 17.0359128,33.2 23.5,33.2 Z M23.5,35 C16.0441559,35 10,28.9911901 10,21.5789474 C10,14.1667047 16.0441559,8.15789474 23.5,8.15789474 C30.9558441,8.15789474 37,14.1667047 37,21.5789474 C37,28.9911901 30.9558441,35 23.5,35 Z" id="Oval-2-Copy"></path>
            <path d="M26.8701536,16.0785623 L27.4619854,13.6589201 L26.0165658,13.2918627 L25.4403734,15.6477418 C25.0609096,15.5512582 24.6707451,15.4602279 24.28305,15.3700367 L24.863358,12.9986363 L23.4191731,12.6315789 L22.8269297,15.0503822 C22.5124933,14.9773902 22.2038188,14.9052372 21.9041988,14.8293087 L19.9130427,14.3145894 L19.5286401,15.8876925 C19.5286401,15.8876925 20.6007694,16.1381305 20.5781333,16.1536517 C21.1633801,16.3025722 21.2695641,16.6973161 21.2514552,17.0102588 L19.6298854,23.6386857 C19.5582729,23.8199071 19.3767723,24.0917393 18.9676758,23.9885438 C18.9820806,24.009938 17.9173595,23.721326 17.9173595,23.721326 L17.2,25.4076925 L19.0808564,25.8854963 C19.4306874,25.9748485 19.7735219,26.0683957 20.1105944,26.1564895 L19.5125891,28.6042378 L20.9559509,28.9712952 L21.5486058,26.549975 C21.9424744,26.6590435 22.3252308,26.7597221 22.6997558,26.8545277 L22.1095702,29.2645216 L23.5545783,29.6315789 L24.1525836,27.1888646 C26.6166289,27.6641514 28.4699104,27.4724426 29.2490047,25.2013013 C29.877466,23.3723069 29.2181373,22.3172791 27.9217046,21.6288892 C28.8658368,21.4061379 29.5770228,20.7731212 29.7667547,19.465558 C30.0289222,17.6793519 28.6946254,16.7191298 26.8701536,16.0785623 Z M22.0173794,24.7767733 L22.8108786,21.5345031 C23.7904056,21.7836826 26.9310653,22.2770077 26.4655842,24.1844475 C26.018212,26.013442 22.997318,25.0251138 22.0173794,24.7767733 Z M23.1734682,20.0503328 L23.8928855,17.1096789 C24.7090208,17.316909 27.3364578,17.7036826 26.9117217,19.4391298 C26.5042714,21.1028436 23.9896035,20.2575629 23.1734682,20.0503328 Z" id="Shape"></path>
        </g>
    </g>
</svg>