<?xml version="1.0" encoding="UTF-8"?>
<svg width="48px" height="48px" viewBox="0 0 48 48" version="1.1" xmlns="http://www.w3.org/2000/svg" xmlns:xlink="http://www.w3.org/1999/xlink">
    <!-- Generator: Sketch 52.4 (67378) - http://www.bohemiancoding.com/sketch -->
    <title>icon/instruments/stocks</title>
    <desc>Created with Sketch.</desc>
    <g id="icon/instruments/stocks" stroke="none" stroke-width="1" fill="none" fill-rule="evenodd">
        <g id="icon/instruments/" fill="#FF701A">
            <g id="Group" transform="translate(7.000000, 6.000000)">
                <g id="Group-2" transform="translate(0.000000, 22.000000)" fill-rule="nonzero">
                    <path d="M4,3 C4,3.55228475 3.55228475,4 3,4 C2.44771525,4 2,3.55228475 2,3 L2,1 C2,0.44771525 2.44771525,0 3,0 C3.55228475,0 4,0.44771525 4,1 L4,3 Z" id="Stroke-3" opacity="0.5"></path>
                    <path d="M4,13 C4,13.5522847 3.55228475,14 3,14 C2.44771525,14 2,13.5522847 2,13 L2,11 C2,10.4477153 2.44771525,10 3,10 C3.55228475,10 4,10.4477153 4,11 L4,13 Z" id="Stroke-4" opacity="0.5"></path>
                    <path d="M2,9 L4,9 L4,5 L2,5 L2,9 Z M0,10.0029699 L0,3.99703014 C0,3.45303631 0.443586406,3 0.990777969,3 L5.00922203,3 C5.54902482,3 6,3.4463856 6,3.99703014 L6,10.0029699 C6,10.5469637 5.55641359,11 5.00922203,11 L0.990777969,11 C0.45097518,11 0,10.5536144 0,10.0029699 Z" id="Stroke-1"></path>
                </g>
                <g id="Group-3" transform="translate(9.000000, 8.000000)">
                    <path d="M4,5 C4,5.55228475 3.55228475,6 3,6 C2.44771525,6 2,5.55228475 2,5 L2,1 C2,0.44771525 2.44771525,0 3,0 C3.55228475,0 4,0.44771525 4,1 L4,5 Z" id="Stroke-7" fill-rule="nonzero" opacity="0.5"></path>
                    <path d="M4,27 C4,27.5522847 3.55228475,28 3,28 C2.44771525,28 2,27.5522847 2,27 L2,23 C2,22.4477153 2.44771525,22 3,22 C3.55228475,22 4,22.4477153 4,23 L4,27 Z" id="Stroke-8" fill-rule="nonzero" opacity="0.5"></path>
                    <path d="M0,22.0066023 C0,22.5552407 0.45097518,23 0.990777969,23 L5.00922203,23 C5.55641359,23 6,22.5550537 6,22.0066023 L6,5.99339768 C6,5.44475929 5.54902482,5 5.00922203,5 L0.990777969,5 C0.443586406,5 0,5.44494629 0,5.99339768 L0,22.0066023 Z" id="Stroke-6"></path>
                </g>
                <g id="Group-4" transform="translate(18.000000, 0.000000)" fill-rule="nonzero">
                    <path d="M4,27 C4,27.5522847 3.55228475,28 3,28 C2.44771525,28 2,27.5522847 2,27 L2,23 C2,22.4477153 2.44771525,22 3,22 C3.55228475,22 4,22.4477153 4,23 L4,27 Z" id="Stroke-11" opacity="0.5"></path>
                    <path d="M2,5 L2,1 C2,-0.333333333 4,-0.333333333 4,1 L4,5 C4,6.33333333 2,6.33333333 2,5 Z" id="Stroke-12" opacity="0.5"></path>
                    <path d="M2,21 L4,21 L4,7 L2,7 L2,21 Z M0,22.0066023 L0,5.99339768 C0,5.44494629 0.443586406,5 0.990777969,5 L5.00922203,5 C5.54902482,5 6,5.44475929 6,5.99339768 L6,22.0066023 C6,22.5550537 5.55641359,23 5.00922203,23 L0.990777969,23 C0.45097518,23 0,22.5552407 0,22.0066023 Z" id="Stroke-10"></path>
                </g>
                <g id="Group-5" transform="translate(27.000000, 0.000000)">
                    <path d="M4,13 C4,13.5522847 3.55228475,14 3,14 C2.44771525,14 2,13.5522847 2,13 L2,11 C2,10.4477153 2.44771525,10 3,10 C3.55228475,10 4,10.4477153 4,11 L4,13 Z" id="Stroke-16" fill-rule="nonzero" opacity="0.5"></path>
                    <path d="M4,3 C4,3.55228475 3.55228475,4 3,4 C2.44771525,4 2,3.55228475 2,3 L2,1 C2,0.44771525 2.44771525,0 3,0 C3.55228475,0 4,0.44771525 4,1 L4,3 Z" id="Stroke-17" fill-rule="nonzero" opacity="0.5"></path>
                    <path d="M0,10.0029699 C0,10.5536144 0.45097518,11 0.990777969,11 L5.00922203,11 C5.55641359,11 6,10.5469637 6,10.0029699 L6,3.99703014 C6,3.4463856 5.54902482,3 5.00922203,3 L0.990777969,3 C0.443586406,3 0,3.45303631 0,3.99703014 L0,10.0029699 Z" id="Stroke-14"></path>
                </g>
            </g>
        </g>
    </g>
</svg>