<?xml version="1.0" encoding="UTF-8"?>
<svg width="48px" height="48px" viewBox="0 0 48 48" version="1.1" xmlns="http://www.w3.org/2000/svg" xmlns:xlink="http://www.w3.org/1999/xlink">
    <!-- Generator: Sketch 52.4 (67378) - http://www.bohemiancoding.com/sketch -->
    <title>icon/instruments/forex</title>
    <desc>Created with Sketch.</desc>
    <g id="icon/instruments/forex" stroke="none" stroke-width="1" fill="none" fill-rule="evenodd">
        <g id="icon" transform="translate(4.000000, 3.000000)" fill="#FF701A">
            <g id="euro" transform="translate(18.000000, 19.000000)">
                <path d="M11,22 C4.92486775,22 0,17.0751322 0,11 C0,4.92486775 4.92486775,0 11,0 C17.0751322,0 22,4.92486775 22,11 C22,17.0751322 17.0751322,22 11,22 Z M11,20 C15.9705627,20 20,15.9705627 20,11 C20,6.02943725 15.9705627,2 11,2 C6.02943725,2 2,6.02943725 2,11 C2,15.9705627 6.02943725,20 11,20 Z" id="Combined-Shape" opacity="0.5"></path>
                <path d="M7.46894737,10.3333333 L7.42105263,11 L7.46894737,11.6666667 L14.5026316,11.6666667 L13.9210526,13 L7.87947368,13 C8.65263158,14.5733333 10.3015789,15.6666667 12.2105263,15.6666667 C13.7363158,15.6666667 15.0978947,14.9733333 15.9736842,13.8866667 L15.9736842,15.7466667 C14.9473684,16.5333333 13.6268421,17 12.2105263,17 C9.52842105,17 7.25,15.3333333 6.39473684,13 L4,13 L4.68421053,11.6666667 L6.08684211,11.6666667 L6.05263158,11 L6.08684211,10.3333333 L4,10.3333333 L4.68421053,9 L6.39473684,9 C7.25,6.66666667 9.52842105,5 12.2105263,5 C13.9210526,5 15.4947368,5.69333333 16.61,6.80666667 L16.0215789,8.16666667 C15.1457895,7.05333333 13.7636842,6.33333333 12.2105263,6.33333333 C10.3015789,6.33333333 8.65263158,7.42666667 7.87947368,9 L15.6589474,9 L15.0773684,10.3333333 L7.46894737,10.3333333 Z" id="Shape"></path>
            </g>
            <g id="usd" transform="translate(0.000000, 1.000000)">
                <path d="M11,22 C4.92486775,22 0,17.0751322 0,11 C0,4.92486775 4.92486775,0 11,0 C17.0751322,0 22,4.92486775 22,11 C22,17.0751322 17.0751322,22 11,22 Z M11,20 C15.9705627,20 20,15.9705627 20,11 C20,6.02943725 15.9705627,2 11,2 C6.02943725,2 2,6.02943725 2,11 C2,15.9705627 6.02943725,20 11,20 Z" id="Combined-Shape" opacity="0.5"></path>
                <path d="M8,13 L9.2,13 C9.2,13.72 10.022,14.3333333 11,14.3333333 C11.978,14.3333333 12.8,13.72 12.8,13 C12.8,12.2666667 12.176,12 10.856,11.6466667 C9.584,11.2933333 8,10.8533333 8,9 C8,7.80666667 8.882,6.79333333 10.1,6.45333333 L10.1,5 L11.9,5 L11.9,6.45333333 C13.118,6.79333333 14,7.80666667 14,9 L12.8,9 C12.8,8.28 11.978,7.66666667 11,7.66666667 C10.022,7.66666667 9.2,8.28 9.2,9 C9.2,9.73333333 9.824,10 11.144,10.3533333 C12.416,10.7066667 14,11.1466667 14,13 C14,14.1933333 13.118,15.2066667 11.9,15.5466667 L11.9,17 L10.1,17 L10.1,15.5466667 C8.882,15.2066667 8,14.1933333 8,13 Z" id="Shape"></path>
            </g>
            <g id="arrow" transform="translate(25.000000, 0.000000)">
                <path d="M15,16 C15,16.5522847 14.5522847,17 14,17 C13.4477153,17 13,16.5522847 13,16 C13,9.92486775 8.07513225,5 2,5 C1.44771525,5 1,4.55228475 1,4 C1,3.44771525 1.44771525,3 2,3 C9.17970175,3 15,8.82029825 15,16 Z" id="Oval"></path>
                <path d="M2.41367672,4 L4.68605216,6.2739155 C5.07644413,6.66457206 5.07622965,7.297737 4.68557309,7.68812898 C4.29491653,8.07852096 3.66175159,8.07830647 3.27135961,7.68764991 L0.292595703,4.70686721 C-0.0976092653,4.31639779 -0.0976092653,3.68360221 0.292595703,3.29313279 L3.26447091,0.319243454 C3.65486289,-0.071413106 4.28802783,-0.071627591 4.67868439,0.318764388 C5.06934095,0.709156367 5.06955544,1.34232131 4.67916346,1.73297787 L2.41367672,4 Z" id="Path-5"></path>
            </g>
            <g id="arrow" transform="translate(7.500000, 33.500000) scale(-1, -1) translate(-7.500000, -33.500000) translate(0.000000, 25.000000)">
                <path d="M15,16 C15,16.5522847 14.5522847,17 14,17 C13.4477153,17 13,16.5522847 13,16 C13,9.92486775 8.07513225,5 2,5 C1.44771525,5 1,4.55228475 1,4 C1,3.44771525 1.44771525,3 2,3 C9.17970175,3 15,8.82029825 15,16 Z" id="Oval"></path>
                <path d="M2.41367672,4 L4.68605216,6.2739155 C5.07644413,6.66457206 5.07622965,7.297737 4.68557309,7.68812898 C4.29491653,8.07852096 3.66175159,8.07830647 3.27135961,7.68764991 L0.292595703,4.70686721 C-0.0976092653,4.31639779 -0.0976092653,3.68360221 0.292595703,3.29313279 L3.26447091,0.319243454 C3.65486289,-0.071413106 4.28802783,-0.071627591 4.67868439,0.318764388 C5.06934095,0.709156367 5.06955544,1.34232131 4.67916346,1.73297787 L2.41367672,4 Z" id="Path-5"></path>
            </g>
        </g>
    </g>
</svg>