<?xml version="1.0" encoding="UTF-8"?>
<svg width="48px" height="48px" viewBox="0 0 48 48" version="1.1" xmlns="http://www.w3.org/2000/svg" xmlns:xlink="http://www.w3.org/1999/xlink">
    <!-- Generator: Sketch 52.4 (67378) - http://www.bohemiancoding.com/sketch -->
    <title>icon/instruments/etfs</title>
    <desc>Created with Sketch.</desc>
    <g id="icon/instruments/etfs" stroke="none" stroke-width="1" fill="none" fill-rule="evenodd">
        <g id="icon/instruments/">
            <path d="M33,7 L41,15" id="Stroke-3" stroke="#FF701A" stroke-width="2" stroke-linecap="round" stroke-linejoin="round"></path>
            <path d="M41,15 L17,15" id="Stroke-3-Copy-2" stroke="#FF701A" stroke-width="2" opacity="0.5" stroke-linecap="round" stroke-linejoin="round"></path>
            <path d="M31,33 L7,33" id="Stroke-3-Copy" stroke="#FF701A" stroke-width="2" opacity="0.5" stroke-linecap="round" stroke-linejoin="round" transform="translate(19.000000, 33.000000) scale(-1, 1) translate(-19.000000, -33.000000) "></path>
            <path d="M7,41 L15,33" id="Stroke-3-Copy-3" stroke="#FF701A" stroke-width="2" stroke-linecap="round" stroke-linejoin="round" transform="translate(11.000000, 37.000000) scale(-1, 1) translate(-11.000000, -37.000000) "></path>
            <g id="Group-5" transform="translate(8.000000, 19.000000)" fill="#FF701A">
                <path d="M5.36702399,5.76008167 L1.80806534,5.76008167 L1.80806534,8.96171516 L6.08167432,8.96171516 C6.48031171,8.96171516 6.80347116,9.28487461 6.80347116,9.683512 C6.80347116,10.0821494 6.48031171,10.4053088 6.08167432,10.4053088 L1,10.4053088 C0.44771525,10.4053088 5.11724585e-16,9.95759358 4.4408921e-16,9.40530883 L0,1 C-6.76353751e-17,0.44771525 0.44771525,1.01453063e-16 1,0 L6.0245023,2.22044605e-16 C6.42708659,1.48091071e-16 6.75344564,0.326359049 6.75344564,0.728943338 C6.75344564,1.13152763 6.42708659,1.45788668 6.0245023,1.45788668 L1.80806534,1.45788668 L1.80806534,4.33078101 L5.36702399,4.33078101 C5.76171447,4.33078101 6.08167432,4.65074086 6.08167432,5.04543134 C6.08167432,5.44012182 5.76171447,5.76008167 5.36702399,5.76008167 Z M15.4691169,1.45788668 L12.9535477,1.45788668 L12.9535477,9.50842266 C12.9535477,10.0037592 12.5519981,10.4053088 12.0566616,10.4053088 C11.561325,10.4053088 11.1597754,10.0037592 11.1597754,9.50842266 L11.1597754,1.45788668 L8.67279224,1.45788668 C8.27020795,1.45788668 7.9438489,1.13152763 7.9438489,0.728943338 C7.9438489,0.326359049 8.27020795,7.39535342e-17 8.67279224,0 L15.4691169,3.33066907e-16 C15.8717012,2.59113373e-16 16.1980602,0.326359049 16.1980602,0.728943338 C16.1980602,1.13152763 15.8717012,1.45788668 15.4691169,1.45788668 Z M23.0985197,5.99591628 L19.6324655,5.99591628 L19.6324655,9.50127616 C19.6324655,10.0005596 19.2277163,10.4053088 18.7284329,10.4053088 C18.2291494,10.4053088 17.8244002,10.0005596 17.8244002,9.50127616 L17.8244002,1 C17.8244002,0.44771525 18.2721155,1.01453063e-16 18.8244002,0 L23.7059724,2.22044605e-16 C24.1085567,1.48091071e-16 24.4349158,0.326359049 24.4349158,0.728943338 C24.4349158,1.13152763 24.1085567,1.45788668 23.7059724,1.45788668 L19.6324655,1.45788668 L19.6324655,4.55232261 L23.0985197,4.55232261 C23.497157,4.55232261 23.8203165,4.87548206 23.8203165,5.27411945 C23.8203165,5.67275683 23.497157,5.99591628 23.0985197,5.99591628 Z" id="Combined-Shape"></path>
                <path d="M30.2919857,8.30423686 C30.2919857,7.9945535 30.164541,7.75872125 29.9096478,7.59673303 C29.6547546,7.43474481 29.231924,7.29181617 28.6411434,7.16794283 C28.0503629,7.04406948 27.5572591,6.88684798 27.1618173,6.69627361 C26.2947038,6.27700998 25.8611536,5.66956328 25.8611536,4.87391526 C25.8611536,4.20690495 26.1422466,3.64948327 26.704441,3.20163349 C27.2666354,2.75378371 27.9812786,2.52986217 28.848392,2.52986217 C29.7726778,2.52986217 30.5194799,2.75854799 31.0888208,3.21592649 C31.6581618,3.67330499 31.942828,4.26645884 31.942828,4.99540582 L30.2062277,4.99540582 C30.2062277,4.66190066 30.0823562,4.38438089 29.8346095,4.16283818 C29.5868628,3.94129547 29.2581269,3.83052578 28.848392,3.83052578 C28.4672433,3.83052578 28.1563735,3.9186651 27.9157734,4.0949464 C27.6751732,4.2712277 27.5548749,4.50705995 27.5548749,4.80245023 C27.5548749,5.06925435 27.6668357,5.27650088 27.8907606,5.42419602 C28.1146855,5.57189116 28.5672928,5.72077516 29.2485962,5.87085248 C29.9298996,6.0209298 30.4646909,6.19959059 30.8529862,6.40684022 C31.2412815,6.61408986 31.5295209,6.8630239 31.7177131,7.15364982 C31.9059053,7.44427574 32,7.79683305 32,8.21133231 C32,8.90692878 31.7117606,9.47030582 31.1352731,9.90148035 C30.5587856,10.3326549 29.803646,10.5482389 28.8698315,10.5482389 C28.2361718,10.5482389 27.6716036,10.433896 27.1761103,10.2052067 C26.6806169,9.97651749 26.2947096,9.66207449 26.0183767,9.2618683 C25.7420439,8.86166211 25.6038795,8.43049406 25.6038795,7.9683512 L27.2904543,7.9683512 C27.3142761,8.37808611 27.4691155,8.69372018 27.754977,8.91526289 C28.0408386,9.1368056 28.4195995,9.24757529 28.8912711,9.24757529 C29.3486496,9.24757529 29.6964426,9.16062704 29.9346605,8.98672792 C30.1728785,8.81282881 30.2919857,8.58533406 30.2919857,8.30423686 Z" id="Path" opacity="0.5"></path>
            </g>
        </g>
    </g>
</svg>