<?xml version="1.0" encoding="UTF-8"?>
<svg width="64px" height="64px" viewBox="0 0 64 64" version="1.1" xmlns="http://www.w3.org/2000/svg" xmlns:xlink="http://www.w3.org/1999/xlink">
    <!-- Generator: Sketch 52.4 (67378) - http://www.bohemiancoding.com/sketch -->
    <title>icon/mt 5</title>
    <desc>Created with Sketch.</desc>
    <defs>
        <rect id="path-1" x="0" y="0" width="64" height="64"></rect>
        <polygon id="path-3" points="0 0.787796275 15.0696859 0.787796275 15.0696859 15.2634508 0 15.2634508"></polygon>
        <polygon id="path-5" points="0.332029292 0.983186441 36.5341152 0.983186441 36.5341152 35.5932203 0.332029292 35.5932203"></polygon>
    </defs>
    <g id="icon/mt-5" stroke="none" stroke-width="1" fill="none" fill-rule="evenodd">
        <g id="iocn">
            <mask id="mask-2" fill="white">
                <use xlink:href="#path-1"></use>
            </mask>
            <g id="Rectangle"></g>
            <g id="mt" mask="url(#mask-2)">
                <g transform="translate(3.000000, 2.000000)">
                    <path d="M23.7068386,18.9024407 L23.9897158,18.9024407 C24.7996807,18.9024407 25.5516456,19.2370169 26.0532947,19.8136271 C26.4094351,20.2275254 26.8113649,20.9637966 26.7045228,22.0946441 L26.1387684,27.4834576 L26.1296105,27.5383729 C25.9749439,28.4790508 25.1690491,29.516339 23.7159965,29.716678 C24.6745228,30.2719322 25.4081719,30.8119322 25.9596807,31.3417627 C26.8164526,31.5543051 27.7831193,31.6793898 28.8922421,31.6793898 C39.2559263,31.6793898 37.9341368,21.2709153 37.9341368,21.2709153 C38.9923825,25.8258305 37.1028035,31.8390508 36.7761719,32.6444746 C36.4485228,33.4529492 36.8504526,33.8119322 36.8504526,33.8119322 L40.929786,37.0021017 C41.8995053,37.7383729 42.393014,36.6593898 42.393014,36.6593898 C42.393014,36.6593898 46.8732596,29.1665085 46.4204526,19.4149831 C46.0185228,10.7719322 39.8013298,7.42413559 36.767014,6.30345763 C36.8738561,6.96142373 36.9308386,7.63871186 36.9308386,8.34040678 C36.9308386,13.9661695 33.2524175,18.5393898 28.7487684,18.5393898 C24.2369789,18.5393898 20.5646632,13.9641356 20.5646632,8.34040678 C20.5646632,7.68447458 20.6196105,7.04176271 20.7152596,6.41938983 C17.5903825,7.64888136 11.7506982,11.0515932 11.3619965,19.4149831 C11.3263825,20.1919322 11.3243474,20.9526102 11.3467333,21.6990508 C17.2006632,19.0692203 22.4949439,18.9024407 23.7068386,18.9024407" id="Fill-1" fill="#00AB68"></path>
                    <path d="M53.2816491,41.3762034 C56.9865263,43.8341695 58.4568772,48.3829831 56.5662807,51.5355254 C54.6746667,54.6880678 50.1374386,55.2524746 46.4325614,52.7945085 C42.7276842,50.3365424 41.2563158,45.7877288 43.1479298,42.6351864 C45.0385263,39.4826441 49.5757544,38.9192542 53.2816491,41.3762034" id="Fill-3" fill="#4578BB"></path>
                    <g id="Group-7" stroke-width="1" fill="none" transform="translate(0.000000, 39.020237)">
                        <mask id="mask-4" fill="white">
                            <use xlink:href="#path-3"></use>
                        </mask>
                        <g id="Clip-6"></g>
                        <path d="M14.2453088,3.57549153 C16.1359053,6.72905085 14.6645368,11.2758305 10.9576246,13.7337966 C7.25172982,16.1907458 2.71450175,15.6283729 0.823905263,12.4748136 C-1.06669123,9.32227119 0.405694737,4.77549153 4.11158947,2.31752542 C7.81850175,-0.139423729 12.3547123,0.422949153 14.2453088,3.57549153" id="Fill-5" fill="#FCB614" mask="url(#mask-4)"></path>
                    </g>
                    <path d="M28.7492772,0 C32.2944,0 35.1679439,3.73525424 35.1679439,8.3420339 C35.1679439,12.9488136 32.2944,16.6840678 28.7492772,16.6840678 C25.2051719,16.6840678 22.3306105,12.9488136 22.3306105,8.3420339 C22.3306105,3.73525424 25.2051719,0 28.7492772,0" id="Fill-8" fill="#00AB68"></path>
                    <path d="M18.3259649,46.1947119 C17.9983158,45.6353898 17.7581754,44.7628475 17.9993333,43.8821695 C18.2181053,43.0808136 18.7869123,42.4330169 19.5999298,42.0608136 L24.3477895,39.9414915 L24.3986667,39.9231864 C24.5553684,39.8672542 24.812807,39.792 25.1445263,39.792 C25.6421053,39.792 26.5914737,39.9567458 27.3800702,41.0611525 C27.3739649,40.0909831 27.5133684,39.0953898 27.7881053,38.0794576 C27.5316842,37.2770847 27.1653684,36.4248814 26.6647368,35.5269153 C26.657614,35.511661 26.6504912,35.511661 26.644386,35.4933559 C21.4091228,26.1364068 13.5547018,32.5808136 13.5547018,32.5808136 C16.7579298,29.3184407 22.6474737,27.9964068 23.4757544,27.8845424 C24.3040351,27.7736949 24.3935789,27.2265763 24.3935789,27.2265763 L24.951193,21.9109831 C25.0702456,20.6570847 23.931614,20.7618305 23.931614,20.7618305 C23.931614,20.7618305 15.5144912,20.4781017 7.74452632,25.8191186 C1.04298246,30.4228475 1.23733333,37.4906441 1.8142807,40.9289492 C2.2457193,40.5343729 2.70666667,40.1672542 3.20933333,39.831661 C7.73129825,36.8306441 13.3684912,37.6655593 15.776,41.6692881 C18.1835088,45.6831864 16.4618246,51.3882712 11.9398596,54.3872542 C11.2489474,54.8458983 10.533614,55.2028475 9.80810526,55.4804746 C12.2552982,57.6638644 18.1519649,61.6401356 25.4589474,57.6292881 C26.042,57.3109831 26.6016491,56.9703051 27.1419649,56.6225085 C21.5383509,52.2353898 18.7044912,46.9360678 18.3259649,46.1947119" id="Fill-10" fill="#FCB614"></path>
                    <g id="Group-14" stroke-width="1" fill="none" transform="translate(19.333333, 23.766000)">
                        <mask id="mask-6" fill="white">
                            <use xlink:href="#path-5"></use>
                        </mask>
                        <g id="Clip-13"></g>
                        <path d="M22.342007,17.9011525 C24.7474807,13.8842034 30.3877263,13.0614915 34.9096912,16.0635254 C35.4021825,16.3899661 35.8539719,16.7540339 36.2772702,17.1384407 C36.8532,13.6909831 37.0333053,6.64352542 30.3439719,2.05098305 C29.7822877,1.66454237 29.2185684,1.31166102 28.6517965,0.983186441 C27.816393,8.04589831 25.0089895,13.1001356 24.6050246,13.8099661 C24.2244632,14.5472542 23.4134807,15.3547119 22.2534807,15.3547119 C21.6724632,15.3547119 21.1036561,15.1492881 20.5674105,14.7435254 L16.4310947,11.5025085 L16.3883579,11.4638644 C15.6933754,10.851661 15.2517614,9.59979661 15.8093754,8.18725424 C15.0065333,8.68352542 14.1161825,9.0679322 13.1291649,9.33132203 C12.5440772,9.99132203 11.9722175,10.7855593 11.4247789,11.7658983 C6.18849825,21.1696271 15.3982877,25.2292881 15.3982877,25.2292881 C11.1246035,23.8889492 7.14804211,19.1357288 6.64944561,18.4350508 C6.15084912,17.7333559 5.65530526,17.9133559 5.65530526,17.9133559 L0.973585965,20.0021695 C-0.12434386,20.5075932 0.519761404,21.5031864 0.519761404,21.5031864 C0.519761404,21.5031864 4.40474386,29.3611525 12.631586,33.8753898 C19.9456912,37.891322 25.8515158,33.8967458 28.2946386,31.7143729 C27.5721825,31.432678 26.8619368,31.0787797 26.1791649,30.6242034 C21.6582175,27.6181017 19.9365333,21.9130169 22.342007,17.9011525" id="Fill-12" fill="#4578BB" mask="url(#mask-6)"></path>
                    </g>
                </g>
            </g>
            <g id="Group" mask="url(#mask-2)">
                <g transform="translate(18.000000, 22.000000)">
                    <circle id="Oval" fill="#FFFFFF" cx="14" cy="14" r="14"></circle>
                    <path d="M10.0844727,14.7070312 L10.8227539,8.203125 L17.9946289,8.203125 L17.9946289,10.3212891 L12.9057617,10.3212891 L12.5893555,13.0722656 C13.1928741,12.7499984 13.8344693,12.5888672 14.5141602,12.5888672 C15.7329163,12.5888672 16.6879848,12.9667931 17.3793945,13.7226562 C18.0708042,14.4785194 18.4165039,15.536126 18.4165039,16.8955078 C18.4165039,17.7216838 18.2421892,18.4614225 17.8935547,19.1147461 C17.5449201,19.7680697 17.0454134,20.2749005 16.3950195,20.6352539 C15.7446257,20.9956073 14.9770552,21.1757812 14.0922852,21.1757812 C13.3188438,21.1757812 12.6010775,21.0190445 11.9389648,20.7055664 C11.2768522,20.3920883 10.7539082,19.9511747 10.3701172,19.3828125 C9.98632621,18.8144503 9.78271496,18.1669958 9.75927734,17.4404297 L12.2729492,17.4404297 C12.3256839,17.9736355 12.5117172,18.3881821 12.8310547,18.684082 C13.1503922,18.9799819 13.5678685,19.1279297 14.0834961,19.1279297 C14.6577177,19.1279297 15.1000961,18.9213888 15.4106445,18.5083008 C15.721193,18.0952128 15.8764648,17.510746 15.8764648,16.7548828 C15.8764648,16.0283167 15.6977557,15.4716816 15.340332,15.0849609 C14.9829084,14.6982403 14.4760775,14.5048828 13.8198242,14.5048828 C13.2163056,14.5048828 12.7270527,14.6630844 12.3520508,14.9794922 L12.105957,15.2080078 L10.0844727,14.7070312 Z" id="5" fill="#2585FF"></path>
                </g>
            </g>
        </g>
    </g>
</svg>