<?xml version="1.0" encoding="UTF-8"?>
<svg width="64px" height="64px" viewBox="0 0 64 64" version="1.1" xmlns="http://www.w3.org/2000/svg" xmlns:xlink="http://www.w3.org/1999/xlink">
    <!-- Generator: Sketch 52.4 (67378) - http://www.bohemiancoding.com/sketch -->
    <title>icon/mt se</title>
    <desc>Created with Sketch.</desc>
    <defs>
        <polygon id="path-1" points="0 0 60 0 60 60 1.31323728e-20 60 1.31323728e-20 0"></polygon>
        <linearGradient x1="100%" y1="-87.4076301%" x2="50%" y2="100%" id="linearGradient-3">
            <stop stop-color="#FFBDDE" offset="0%"></stop>
            <stop stop-color="#D41F29" offset="100%"></stop>
        </linearGradient>
    </defs>
    <g id="icon/mt-se" stroke="none" stroke-width="1" fill="none" fill-rule="evenodd">
        <g id="icon" transform="translate(2.000000, 2.000000)">
            <mask id="mask-2" fill="white">
                <use xlink:href="#path-1"></use>
            </mask>
            <g id="Clip-2"></g>
            <path d="M17.4098295,49.7011962 C11.1048013,40.7585001 5.66484603,31.2378877 1.16312319,21.2668976 C-2.49726706,13.1593726 2.8787343,3.85414773 11.7370725,2.96476668 L12.7300533,2.8650592 C24.2211593,1.71164693 35.7989906,1.71164693 47.2900966,2.8650592 L48.2629707,2.96283061 C57.1268806,3.85269568 62.5026397,13.1685689 58.831106,21.277304 L58.6801846,21.6105496 C54.1721632,31.5672612 48.7280898,41.0735951 42.421608,50.0022548 L40.665299,52.4886496 C35.4717115,59.8411082 24.5552214,59.8362681 19.3681746,52.4792112 L17.4098295,49.7011962 Z" id="Fill-1" fill="url(#linearGradient-3)" mask="url(#mask-2)"></path>
            <path d="M37.7115183,44.3717205 C36.1194511,45.9089728 33.4329526,47 29.999885,47 C26.5175829,47 23.9304736,46.0082613 22.3384063,44.4214794 C20.5970252,42.68565 20,40.2066473 20,36.5868583 L27.0646835,36.5868583 C27.0646835,38.0245928 27.1643027,39.0660904 27.8110225,39.8097225 C28.2090394,40.2561769 28.9056838,40.6528723 29.999885,40.6528723 C31.0945462,40.6528723 31.7911907,40.3552361 32.2389021,39.7604222 C32.7363081,39.1651497 32.9353165,38.2231699 32.9353165,36.7849768 C32.9353165,33.4132945 32.3879859,32.818022 29.8508012,31.7767537 L25.373227,29.9420944 C21.7910757,28.454601 20.2983976,26.5701829 20.2983976,21.0662051 C20.2983976,17.7933527 21.3433643,15.0662433 23.4825321,13.2313547 C25.1742186,11.793391 27.3136165,11 29.999885,11 C33.1343249,11 35.4230367,11.793391 36.9654093,13.2313547 C38.9055688,15.0164844 39.7016024,17.8428823 39.7016024,21.413371 L32.6369189,21.413371 C32.6369189,20.1737549 32.6369189,19.0331981 32.0398937,18.2398071 C31.6418769,17.6942935 31.0448517,17.3471277 29.999885,17.3471277 C29.0048429,17.3471277 28.3583532,17.7438231 27.9603364,18.2891074 C27.5123949,18.88438 27.3633111,19.6282413 27.3633111,20.8180984 C27.3633111,23.0496825 27.7613279,23.6942553 29.8011066,24.5371759 L34.2289862,26.3223055 C38.7065604,28.1569648 40,30.1404422 40,36.5370994 C40,40.1073587 39.5522886,42.5868201 37.7115183,44.3717205" id="Fill-4" fill="#FEFEFE" mask="url(#mask-2)"></path>
        </g>
    </g>
</svg>