<?xml version="1.0" encoding="UTF-8"?>
<svg width="179px" height="143px" viewBox="0 0 179 143" version="1.1" xmlns="http://www.w3.org/2000/svg" xmlns:xlink="http://www.w3.org/1999/xlink">
    <!-- Generator: sketchtool 52.4 (67378) - http://www.bohemiancoding.com/sketch -->
    <title>DFE2F16B-3983-4C40-AE59-C523599DD955</title>
    <desc>Created with sketchtool.</desc>
    <defs>
        <rect id="path-1" x="0" y="0" width="150" height="100" rx="6"></rect>
        <filter x="-12.7%" y="-13.0%" width="125.3%" height="152.0%" filterUnits="objectBoundingBox" id="filter-3">
            <feMorphology radius="5" operator="erode" in="SourceAlpha" result="shadowSpreadOuter1"></feMorphology>
            <feOffset dx="0" dy="20" in="shadowSpreadOuter1" result="shadowOffsetOuter1"></feOffset>
            <feGaussianBlur stdDeviation="8" in="shadowOffsetOuter1" result="shadowBlurOuter1"></feGaussianBlur>
            <feColorMatrix values="0 0 0 0 0   0 0 0 0 0   0 0 0 0 0  0 0 0 0.12 0" type="matrix" in="shadowBlurOuter1"></feColorMatrix>
        </filter>
    </defs>
    <g id="Page-1" stroke="none" stroke-width="1" fill="none" fill-rule="evenodd">
        <g id="Page-3:-Marketing-Affiliate-Program" transform="translate(-642.000000, -659.000000)">
            <g id="1" transform="translate(0.000000, 168.000000)">
                <g id="Group-14" transform="translate(136.000000, 320.000000)">
                    <g id="Group-16">
                        <g id="Group-15" transform="translate(53.000000, 0.000000)">
                            <g id="Group-11" transform="translate(461.000000, 177.000000)">
                                <g id="icon">
                                    <rect id="Rectangle" x="0" y="0" width="180" height="120"></rect>
                                    <g id="web-icon" transform="translate(15.000000, 11.000000)">
                                        <mask id="mask-2" fill="white">
                                            <use xlink:href="#path-1"></use>
                                        </mask>
                                        <g id="Mask">
                                            <use fill="black" fill-opacity="1" filter="url(#filter-3)" xlink:href="#path-1"></use>
                                            <use fill="#DFECFD" fill-rule="evenodd" xlink:href="#path-1"></use>
                                        </g>
                                        <rect id="Rectangle-Copy-3" fill="#FF701A" mask="url(#mask-2)" x="0" y="0" width="150" height="14"></rect>
                                        <circle id="Oval" fill="#DFECFD" mask="url(#mask-2)" cx="9" cy="7" r="2"></circle>
                                        <circle id="Oval-Copy" fill="#DFECFD" mask="url(#mask-2)" cx="18" cy="7" r="2"></circle>
                                        <circle id="Oval-Copy-2" fill="#DFECFD" mask="url(#mask-2)" cx="27" cy="7" r="2"></circle>
                                        <rect id="Rectangle" fill="#26CD6F" mask="url(#mask-2)" x="34" y="22" width="82" height="20" rx="1"></rect>
                                        <path d="M35,50 L73,50 C73.5522847,50 74,50.4477153 74,51 C74,51.5522847 73.5522847,52 73,52 L35,52 C34.4477153,52 34,51.5522847 34,51 C34,50.4477153 34.4477153,50 35,50 Z M35,54 L55,54 C55.5522847,54 56,54.4477153 56,55 C56,55.5522847 55.5522847,56 55,56 L35,56 C34.4477153,56 34,55.5522847 34,55 C34,54.4477153 34.4477153,54 35,54 Z M79,50 L90,50 C90.5522847,50 91,50.4477153 91,51 C91,51.5522847 90.5522847,52 90,52 L79,52 C78.4477153,52 78,51.5522847 78,51 C78,50.4477153 78.4477153,50 79,50 Z M61,54 L90,54 C90.5522847,54 91,54.4477153 91,55 C91,55.5522847 90.5522847,56 90,56 L61,56 C60.4477153,56 60,55.5522847 60,55 C60,54.4477153 60.4477153,54 61,54 Z M95,50 L115,50 C115.552285,50 116,50.4477153 116,51 C116,51.5522847 115.552285,52 115,52 L95,52 C94.4477153,52 94,51.5522847 94,51 C94,50.4477153 94.4477153,50 95,50 Z M95,54 L115,54 C115.552285,54 116,54.4477153 116,55 C116,55.5522847 115.552285,56 115,56 L95,56 C94.4477153,56 94,55.5522847 94,55 C94,54.4477153 94.4477153,54 95,54 Z M35,58 L64,58 C64.5522847,58 65,58.4477153 65,59 C65,59.5522847 64.5522847,60 64,60 L35,60 C34.4477153,60 34,59.5522847 34,59 C34,58.4477153 34.4477153,58 35,58 Z M70,58 L86,58 C86.5522847,58 87,58.4477153 87,59 C87,59.5522847 86.5522847,60 86,60 L70,60 C69.4477153,60 69,59.5522847 69,59 C69,58.4477153 69.4477153,58 70,58 Z M94,58 L115,58 C115.552285,58 116,58.4477153 116,59 C116,59.5522847 115.552285,60 115,60 L94,60 C93.4477153,60 93,59.5522847 93,59 C93,58.4477153 93.4477153,58 94,58 Z M35,62 L55,62 C55.5522847,62 56,62.4477153 56,63 C56,63.5522847 55.5522847,64 55,64 L35,64 C34.4477153,64 34,63.5522847 34,63 C34,62.4477153 34.4477153,62 35,62 Z M60,62 L71,62 C71.5522847,62 72,62.4477153 72,63 C72,63.5522847 71.5522847,64 71,64 L60,64 C59.4477153,64 59,63.5522847 59,63 C59,62.4477153 59.4477153,62 60,62 Z M77,62 L115,62 C115.552285,62 116,62.4477153 116,63 C116,63.5522847 115.552285,64 115,64 L77,64 C76.4477153,64 76,63.5522847 76,63 C76,62.4477153 76.4477153,62 77,62 Z M35,66 L68,66 C68.5522847,66 69,66.4477153 69,67 C69,67.5522847 68.5522847,68 68,68 L35,68 C34.4477153,68 34,67.5522847 34,67 C34,66.4477153 34.4477153,66 35,66 Z M73,66 L87,66 C87.5522847,66 88,66.4477153 88,67 C88,67.5522847 87.5522847,68 87,68 L73,68 C72.4477153,68 72,67.5522847 72,67 C72,66.4477153 72.4477153,66 73,66 Z M94,66 L115,66 C115.552285,66 116,66.4477153 116,67 C116,67.5522847 115.552285,68 115,68 L94,68 C93.4477153,68 93,67.5522847 93,67 C93,66.4477153 93.4477153,66 94,66 Z M35,70 L73,70 C73.5522847,70 74,70.4477153 74,71 C74,71.5522847 73.5522847,72 73,72 L35,72 C34.4477153,72 34,71.5522847 34,71 C34,70.4477153 34.4477153,70 35,70 Z M35,74 L55,74 C55.5522847,74 56,74.4477153 56,75 C56,75.5522847 55.5522847,76 55,76 L35,76 C34.4477153,76 34,75.5522847 34,75 C34,74.4477153 34.4477153,74 35,74 Z M79,70 L90,70 C90.5522847,70 91,70.4477153 91,71 C91,71.5522847 90.5522847,72 90,72 L79,72 C78.4477153,72 78,71.5522847 78,71 C78,70.4477153 78.4477153,70 79,70 Z M61,74 L90,74 C90.5522847,74 91,74.4477153 91,75 C91,75.5522847 90.5522847,76 90,76 L61,76 C60.4477153,76 60,75.5522847 60,75 C60,74.4477153 60.4477153,74 61,74 Z M95,70 L115,70 C115.552285,70 116,70.4477153 116,71 C116,71.5522847 115.552285,72 115,72 L95,72 C94.4477153,72 94,71.5522847 94,71 C94,70.4477153 94.4477153,70 95,70 Z M95,74 L115,74 C115.552285,74 116,74.4477153 116,75 C116,75.5522847 115.552285,76 115,76 L95,76 C94.4477153,76 94,75.5522847 94,75 C94,74.4477153 94.4477153,74 95,74 Z M35,78 L64,78 C64.5522847,78 65,78.4477153 65,79 C65,79.5522847 64.5522847,80 64,80 L35,80 C34.4477153,80 34,79.5522847 34,79 C34,78.4477153 34.4477153,78 35,78 Z M70,78 L86,78 C86.5522847,78 87,78.4477153 87,79 C87,79.5522847 86.5522847,80 86,80 L70,80 C69.4477153,80 69,79.5522847 69,79 C69,78.4477153 69.4477153,78 70,78 Z M94,78 L115,78 C115.552285,78 116,78.4477153 116,79 C116,79.5522847 115.552285,80 115,80 L94,80 C93.4477153,80 93,79.5522847 93,79 C93,78.4477153 93.4477153,78 94,78 Z M35,82 L55,82 C55.5522847,82 56,82.4477153 56,83 C56,83.5522847 55.5522847,84 55,84 L35,84 C34.4477153,84 34,83.5522847 34,83 C34,82.4477153 34.4477153,82 35,82 Z M60,82 L71,82 C71.5522847,82 72,82.4477153 72,83 C72,83.5522847 71.5522847,84 71,84 L60,84 C59.4477153,84 59,83.5522847 59,83 C59,82.4477153 59.4477153,82 60,82 Z M77,82 L115,82 C115.552285,82 116,82.4477153 116,83 C116,83.5522847 115.552285,84 115,84 L77,84 C76.4477153,84 76,83.5522847 76,83 C76,82.4477153 76.4477153,82 77,82 Z M35,86 L68,86 C68.5522847,86 69,86.4477153 69,87 C69,87.5522847 68.5522847,88 68,88 L35,88 C34.4477153,88 34,87.5522847 34,87 C34,86.4477153 34.4477153,86 35,86 Z M73,86 L87,86 C87.5522847,86 88,86.4477153 88,87 C88,87.5522847 87.5522847,88 87,88 L73,88 C72.4477153,88 72,87.5522847 72,87 C72,86.4477153 72.4477153,86 73,86 Z M94,86 L115,86 C115.552285,86 116,86.4477153 116,87 C116,87.5522847 115.552285,88 115,88 L94,88 C93.4477153,88 93,87.5522847 93,87 C93,86.4477153 93.4477153,86 94,86 Z" id="Combined-Shape" fill="#FF701A" opacity="0.5" mask="url(#mask-2)"></path>
                                    </g>
                                    <g id="Atoms-/-Elements-/-Number">
                                        <circle id="Oval-2" stroke="#FFFFFF" stroke-width="2" fill="#FF701A" fill-rule="evenodd" cx="15" cy="15" r="14"></circle>
                                        <text id="#" font-family="Roboto-Medium, Roboto" font-size="16" font-weight="400" line-spacing="24" fill="#FFFFFF">
                                            <tspan x="10.453125" y="18.7894737">3</tspan>
                                        </text>
                                    </g>
                                </g>
                            </g>
                        </g>
                    </g>
                </g>
            </g>
        </g>
    </g>
</svg>