<?xml version="1.0" encoding="UTF-8"?>
<svg width="179px" height="143px" viewBox="0 0 179 143" version="1.1" xmlns="http://www.w3.org/2000/svg" xmlns:xlink="http://www.w3.org/1999/xlink">
    <!-- Generator: sketchtool 52.4 (67378) - http://www.bohemiancoding.com/sketch -->
    <title>772131CF-9E10-4B95-9BFC-98DBEAB73A26</title>
    <desc>Created with sketchtool.</desc>
    <defs>
        <rect id="path-1" x="0" y="0" width="150" height="100" rx="6"></rect>
        <filter x="-12.7%" y="-13.0%" width="125.3%" height="152.0%" filterUnits="objectBoundingBox" id="filter-3">
            <feMorphology radius="5" operator="erode" in="SourceAlpha" result="shadowSpreadOuter1"></feMorphology>
            <feOffset dx="0" dy="20" in="shadowSpreadOuter1" result="shadowOffsetOuter1"></feOffset>
            <feGaussianBlur stdDeviation="8" in="shadowOffsetOuter1" result="shadowBlurOuter1"></feGaussianBlur>
            <feColorMatrix values="0 0 0 0 0   0 0 0 0 0   0 0 0 0 0  0 0 0 0.12 0" type="matrix" in="shadowBlurOuter1"></feColorMatrix>
        </filter>
    </defs>
    <g id="Page-1" stroke="none" stroke-width="1" fill="none" fill-rule="evenodd">
        <g id="Page-3:-Marketing-Affiliate-Program" transform="translate(-406.000000, -482.000000)">
            <g id="1" transform="translate(0.000000, 168.000000)">
                <g id="Group-14" transform="translate(136.000000, 320.000000)">
                    <g id="Group-16">
                        <g id="Group-15" transform="translate(53.000000, 0.000000)">
                            <g id="Group-9" transform="translate(215.000000, 0.000000)">
                                <g id="icon" transform="translate(10.000000, 0.000000)">
                                    <rect id="Rectangle" x="0" y="0" width="180" height="120"></rect>
                                    <g id="affisa-icon" transform="translate(15.000000, 11.000000)">
                                        <mask id="mask-2" fill="white">
                                            <use xlink:href="#path-1"></use>
                                        </mask>
                                        <g id="Mask">
                                            <use fill="black" fill-opacity="1" filter="url(#filter-3)" xlink:href="#path-1"></use>
                                            <use fill="#DFECFD" fill-rule="evenodd" xlink:href="#path-1"></use>
                                        </g>
                                        <rect id="Rectangle-Copy-3" fill="#FF701A" mask="url(#mask-2)" x="0" y="0" width="150" height="14"></rect>
                                        <circle id="Oval" fill="#DFECFD" mask="url(#mask-2)" cx="9" cy="7" r="2"></circle>
                                        <circle id="Oval-Copy" fill="#DFECFD" mask="url(#mask-2)" cx="18" cy="7" r="2"></circle>
                                        <circle id="Oval-Copy-2" fill="#DFECFD" mask="url(#mask-2)" cx="27" cy="7" r="2"></circle>
                                        <rect id="Rectangle" fill="#26CD6F" mask="url(#mask-2)" x="8" y="21" width="82" height="20" rx="1"></rect>
                                        <path d="M98,22 L118,22 C118.552285,22 119,22.4477153 119,23 C119,23.5522847 118.552285,24 118,24 L98,24 C97.4477153,24 97,23.5522847 97,23 C97,22.4477153 97.4477153,22 98,22 Z M98,26 L108,26 C108.552285,26 109,26.4477153 109,27 C109,27.5522847 108.552285,28 108,28 L98,28 C97.4477153,28 97,27.5522847 97,27 C97,26.4477153 97.4477153,26 98,26 Z M122,22 L127,22 C127.552285,22 128,22.4477153 128,23 C128,23.5522847 127.552285,24 127,24 L122,24 C121.447715,24 121,23.5522847 121,23 C121,22.4477153 121.447715,22 122,22 Z M112,26 L127,26 C127.552285,26 128,26.4477153 128,27 C128,27.5522847 127.552285,28 127,28 L112,28 C111.447715,28 111,27.5522847 111,27 C111,26.4477153 111.447715,26 112,26 Z M131,22 L138,22 C138.552285,22 139,22.4477153 139,23 C139,23.5522847 138.552285,24 138,24 L131,24 C130.447715,24 130,23.5522847 130,23 C130,22.4477153 130.447715,22 131,22 Z M131,26 L141,26 C141.552285,26 142,26.4477153 142,27 C142,27.5522847 141.552285,28 141,28 L131,28 C130.447715,28 130,27.5522847 130,27 C130,26.4477153 130.447715,26 131,26 Z M98,30 L113,30 C113.552285,30 114,30.4477153 114,31 C114,31.5522847 113.552285,32 113,32 L98,32 C97.4477153,32 97,31.5522847 97,31 C97,30.4477153 97.4477153,30 98,30 Z M117,30 L125,30 C125.552285,30 126,30.4477153 126,31 C126,31.5522847 125.552285,32 125,32 L117,32 C116.447715,32 116,31.5522847 116,31 C116,30.4477153 116.447715,30 117,30 Z M129,30 L137,30 C137.552285,30 138,30.4477153 138,31 C138,31.5522847 137.552285,32 137,32 L129,32 C128.447715,32 128,31.5522847 128,31 C128,30.4477153 128.447715,30 129,30 Z M98,34 L108,34 C108.552285,34 109,34.4477153 109,35 C109,35.5522847 108.552285,36 108,36 L98,36 C97.4477153,36 97,35.5522847 97,35 C97,34.4477153 97.4477153,34 98,34 Z M112,34 L117,34 C117.552285,34 118,34.4477153 118,35 C118,35.5522847 117.552285,36 117,36 L112,36 C111.447715,36 111,35.5522847 111,35 C111,34.4477153 111.447715,34 112,34 Z M121,34 L139,34 C139.552285,34 140,34.4477153 140,35 C140,35.5522847 139.552285,36 139,36 L121,36 C120.447715,36 120,35.5522847 120,35 C120,34.4477153 120.447715,34 121,34 Z M98,38 L115,38 C115.552285,38 116,38.4477153 116,39 C116,39.5522847 115.552285,40 115,40 L98,40 C97.4477153,40 97,39.5522847 97,39 C97,38.4477153 97.4477153,38 98,38 Z M119,38 L126,38 C126.552285,38 127,38.4477153 127,39 C127,39.5522847 126.552285,40 126,40 L119,40 C118.447715,40 118,39.5522847 118,39 C118,38.4477153 118.447715,38 119,38 Z M129,38 L137,38 C137.552285,38 138,38.4477153 138,39 C138,39.5522847 137.552285,40 137,40 L129,40 C128.447715,40 128,39.5522847 128,39 C128,38.4477153 128.447715,38 129,38 Z" id="Combined-Shape" fill="#FF701A" opacity="0.5" mask="url(#mask-2)"></path>
                                        <path d="M98,47 L118,47 C118.552285,47 119,47.4477153 119,48 C119,48.5522847 118.552285,49 118,49 L98,49 C97.4477153,49 97,48.5522847 97,48 C97,47.4477153 97.4477153,47 98,47 Z M98,51 L108,51 C108.552285,51 109,51.4477153 109,52 C109,52.5522847 108.552285,53 108,53 L98,53 C97.4477153,53 97,52.5522847 97,52 C97,51.4477153 97.4477153,51 98,51 Z M122,47 L127,47 C127.552285,47 128,47.4477153 128,48 C128,48.5522847 127.552285,49 127,49 L122,49 C121.447715,49 121,48.5522847 121,48 C121,47.4477153 121.447715,47 122,47 Z M112,51 L127,51 C127.552285,51 128,51.4477153 128,52 C128,52.5522847 127.552285,53 127,53 L112,53 C111.447715,53 111,52.5522847 111,52 C111,51.4477153 111.447715,51 112,51 Z M131,47 L141,47 C141.552285,47 142,47.4477153 142,48 C142,48.5522847 141.552285,49 141,49 L131,49 C130.447715,49 130,48.5522847 130,48 C130,47.4477153 130.447715,47 131,47 Z M131,51 L139,51 C139.552285,51 140,51.4477153 140,52 C140,52.5522847 139.552285,53 139,53 L131,53 C130.447715,53 130,52.5522847 130,52 C130,51.4477153 130.447715,51 131,51 Z M98,55 L113,55 C113.552285,55 114,55.4477153 114,56 C114,56.5522847 113.552285,57 113,57 L98,57 C97.4477153,57 97,56.5522847 97,56 C97,55.4477153 97.4477153,55 98,55 Z M117,55 L125,55 C125.552285,55 126,55.4477153 126,56 C126,56.5522847 125.552285,57 125,57 L117,57 C116.447715,57 116,56.5522847 116,56 C116,55.4477153 116.447715,55 117,55 Z M129,55 L137,55 C137.552285,55 138,55.4477153 138,56 C138,56.5522847 137.552285,57 137,57 L129,57 C128.447715,57 128,56.5522847 128,56 C128,55.4477153 128.447715,55 129,55 Z M98,59 L108,59 C108.552285,59 109,59.4477153 109,60 C109,60.5522847 108.552285,61 108,61 L98,61 C97.4477153,61 97,60.5522847 97,60 C97,59.4477153 97.4477153,59 98,59 Z M112,59 L117,59 C117.552285,59 118,59.4477153 118,60 C118,60.5522847 117.552285,61 117,61 L112,61 C111.447715,61 111,60.5522847 111,60 C111,59.4477153 111.447715,59 112,59 Z M121,59 L141,59 C141.552285,59 142,59.4477153 142,60 C142,60.5522847 141.552285,61 141,61 L121,61 C120.447715,61 120,60.5522847 120,60 C120,59.4477153 120.447715,59 121,59 Z M98,63 L115,63 C115.552285,63 116,63.4477153 116,64 C116,64.5522847 115.552285,65 115,65 L98,65 C97.4477153,65 97,64.5522847 97,64 C97,63.4477153 97.4477153,63 98,63 Z M119,63 L126,63 C126.552285,63 127,63.4477153 127,64 C127,64.5522847 126.552285,65 126,65 L119,65 C118.447715,65 118,64.5522847 118,64 C118,63.4477153 118.447715,63 119,63 Z M129,63 L137,63 C137.552285,63 138,63.4477153 138,64 C138,64.5522847 137.552285,65 137,65 L129,65 C128.447715,65 128,64.5522847 128,64 C128,63.4477153 128.447715,63 129,63 Z" id="Combined-Shape-Copy" fill="#FF701A" opacity="0.5" mask="url(#mask-2)"></path>
                                        <path d="M98,72 L118,72 C118.552285,72 119,72.4477153 119,73 C119,73.5522847 118.552285,74 118,74 L98,74 C97.4477153,74 97,73.5522847 97,73 C97,72.4477153 97.4477153,72 98,72 Z M98,76 L108,76 C108.552285,76 109,76.4477153 109,77 C109,77.5522847 108.552285,78 108,78 L98,78 C97.4477153,78 97,77.5522847 97,77 C97,76.4477153 97.4477153,76 98,76 Z M122,72 L127,72 C127.552285,72 128,72.4477153 128,73 C128,73.5522847 127.552285,74 127,74 L122,74 C121.447715,74 121,73.5522847 121,73 C121,72.4477153 121.447715,72 122,72 Z M112,76 L127,76 C127.552285,76 128,76.4477153 128,77 C128,77.5522847 127.552285,78 127,78 L112,78 C111.447715,78 111,77.5522847 111,77 C111,76.4477153 111.447715,76 112,76 Z M131,72 L141,72 C141.552285,72 142,72.4477153 142,73 C142,73.5522847 141.552285,74 141,74 L131,74 C130.447715,74 130,73.5522847 130,73 C130,72.4477153 130.447715,72 131,72 Z M131,76 L139,76 C139.552285,76 140,76.4477153 140,77 C140,77.5522847 139.552285,78 139,78 L131,78 C130.447715,78 130,77.5522847 130,77 C130,76.4477153 130.447715,76 131,76 Z M98,80 L113,80 C113.552285,80 114,80.4477153 114,81 C114,81.5522847 113.552285,82 113,82 L98,82 C97.4477153,82 97,81.5522847 97,81 C97,80.4477153 97.4477153,80 98,80 Z M117,80 L125,80 C125.552285,80 126,80.4477153 126,81 C126,81.5522847 125.552285,82 125,82 L117,82 C116.447715,82 116,81.5522847 116,81 C116,80.4477153 116.447715,80 117,80 Z M129,80 L140,80 C140.552285,80 141,80.4477153 141,81 C141,81.5522847 140.552285,82 140,82 L129,82 C128.447715,82 128,81.5522847 128,81 C128,80.4477153 128.447715,80 129,80 Z M98,84 L108,84 C108.552285,84 109,84.4477153 109,85 C109,85.5522847 108.552285,86 108,86 L98,86 C97.4477153,86 97,85.5522847 97,85 C97,84.4477153 97.4477153,84 98,84 Z M112,84 L117,84 C117.552285,84 118,84.4477153 118,85 C118,85.5522847 117.552285,86 117,86 L112,86 C111.447715,86 111,85.5522847 111,85 C111,84.4477153 111.447715,84 112,84 Z M121,84 L135,84 C135.552285,84 136,84.4477153 136,85 C136,85.5522847 135.552285,86 135,86 L121,86 C120.447715,86 120,85.5522847 120,85 C120,84.4477153 120.447715,84 121,84 Z M98,88 L115,88 C115.552285,88 116,88.4477153 116,89 C116,89.5522847 115.552285,90 115,90 L98,90 C97.4477153,90 97,89.5522847 97,89 C97,88.4477153 97.4477153,88 98,88 Z M119,88 L126,88 C126.552285,88 127,88.4477153 127,89 C127,89.5522847 126.552285,90 126,90 L119,90 C118.447715,90 118,89.5522847 118,89 C118,88.4477153 118.447715,88 119,88 Z" id="Combined-Shape-Copy-2" fill="#FF701A" opacity="0.5" mask="url(#mask-2)"></path>
                                        <rect id="Rectangle-Copy-4" fill="#FF701A" mask="url(#mask-2)" x="8" y="46" width="82" height="20" rx="1"></rect>
                                        <rect id="Rectangle-Copy-5" fill="#FF701A" mask="url(#mask-2)" x="8" y="71" width="82" height="20" rx="1"></rect>
                                        <g id="Group" mask="url(#mask-2)">
                                            <g transform="translate(32.000000, 21.000000)">
                                                <path d="M10.6959022,6.60110884 C10.3439252,6.60110884 10.0747664,6.32798366 10.0747664,5.97081996 L10.0747664,2.81937555 C10.0747664,2.46221185 10.3439252,2.18908666 10.6959022,2.18908666 C11.0478792,2.18908666 11.3170381,2.46221185 11.3170381,2.81937555 L11.3170381,5.97081996 C11.3170381,6.30697403 11.0271747,6.60110884 10.6959022,6.60110884 Z M7.27965492,8.0717829 C7.11401869,8.0717829 6.96908699,8.00875401 6.84485981,7.88269624 L4.65017973,5.65567552 C4.40172538,5.40355996 4.40172538,5.00437701 4.65017973,4.77327108 C4.89863408,4.52115553 5.29202013,4.52115553 5.51976995,4.77327108 L7.71445004,7.0002918 C7.96290439,7.25240735 7.96290439,7.65159031 7.71445004,7.88269624 C7.61092739,8.00875401 7.44529116,8.0717829 7.27965492,8.0717829 Z M5.913156,11.5593814 L2.80747664,11.5593814 C2.45549964,11.5593814 2.18634076,11.2862562 2.18634076,10.9290925 C2.18634076,10.5719288 2.45549964,10.2988036 2.80747664,10.2988036 L5.913156,10.2988036 C6.265133,10.2988036 6.53429188,10.5719288 6.53429188,10.9290925 C6.53429188,11.2862562 6.265133,11.5593814 5.913156,11.5593814 Z M18.6878505,11.4333236 L15.5821711,11.4333236 C15.2301941,11.4333236 14.9610352,11.1601984 14.9610352,10.8030347 C14.9610352,10.445871 15.2301941,10.1727458 15.5821711,10.1727458 L18.6878505,10.1727458 C19.0398275,10.1727458 19.3089863,10.445871 19.3089863,10.8030347 C19.3089863,11.1601984 19.0398275,11.4333236 18.6878505,11.4333236 Z M5.18849748,17.2319813 C5.02286125,17.2319813 4.87792955,17.1689524 4.75370237,17.0428947 C4.50524802,16.7907791 4.50524802,16.3915961 4.75370237,16.1604902 L6.94838246,13.9334695 C7.19683681,13.681354 7.59022286,13.681354 7.81797268,13.9334695 C8.06642703,14.1855851 8.06642703,14.584768 7.81797268,14.8158739 L5.6232926,17.0428947 C5.49906542,17.1899621 5.35413372,17.2319813 5.18849748,17.2319813 Z M14.1328541,7.98774438 C13.9672178,7.98774438 13.8222861,7.92471549 13.698059,7.79865772 C13.4496046,7.54654217 13.4496046,7.14735921 13.698059,6.91625328 L15.892739,4.68923256 C16.1411934,4.43711701 16.5345794,4.43711701 16.7623293,4.68923256 C17.0107836,4.94134812 17.0107836,5.34053108 16.7623293,5.571637 L14.5676492,7.79865772 C14.443422,7.92471549 14.2984903,7.98774438 14.1328541,7.98774438 Z" id="Combined-Shape" stroke="none" fill="#DFECFD" transform="translate(10.747664, 9.710534) rotate(-11.000000) translate(-10.747664, -9.710534) "></path>
                                                <path d="M20.6617598,20.7548933 L23.806255,24.7796636 L21.5438613,26.5472392 L18.3993662,22.5224689 L15.4412873,26.9806328 L11.2185436,10.9997815 L25.7031213,18.9632094 L20.6617598,20.7548933 Z" id="Rectangle-237" stroke="#DFECFD" stroke-width="1" fill="#FF701A"></path>
                                            </g>
                                        </g>
                                    </g>
                                    <g id="Atoms-/-Elements-/-Number">
                                        <circle id="Oval-2" stroke="#FFFFFF" stroke-width="2" fill="#FF701A" fill-rule="evenodd" cx="15" cy="15" r="14"></circle>
                                        <text id="#" font-family="Roboto-Medium, Roboto" font-size="16" font-weight="400" line-spacing="24" fill="#FFFFFF">
                                            <tspan x="10.453125" y="18.7894737">2</tspan>
                                        </text>
                                    </g>
                                </g>
                            </g>
                        </g>
                    </g>
                </g>
            </g>
        </g>
    </g>
</svg>