<?xml version="1.0" encoding="UTF-8"?>
<svg width="161px" height="153px" viewBox="0 0 161 153" version="1.1" xmlns="http://www.w3.org/2000/svg" xmlns:xlink="http://www.w3.org/1999/xlink">
    <!-- Generator: sketchtool 52.4 (67378) - http://www.bohemiancoding.com/sketch -->
    <title>C07FD16A-B7F7-4BE2-A8E4-369E641DB26F</title>
    <desc>Created with sketchtool.</desc>
    <defs>
        <filter x="-35.4%" y="-114.4%" width="170.8%" height="329.5%" filterUnits="objectBoundingBox" id="filter-1">
            <feGaussianBlur stdDeviation="12" in="SourceGraphic"></feGaussianBlur>
        </filter>
    </defs>
    <g id="Page-1" stroke="none" stroke-width="1" fill="none" fill-rule="evenodd">
        <g id="Page-3:-Marketing-Affiliate-Program" transform="translate(-425.000000, -862.000000)">
            <g id="1" transform="translate(0.000000, 168.000000)">
                <g id="Group-14" transform="translate(136.000000, 320.000000)">
                    <g id="Group-16">
                        <g id="Group-15" transform="translate(53.000000, 0.000000)">
                            <g id="Group-12" transform="translate(215.000000, 380.000000)">
                                <g id="icon" transform="translate(10.000000, 0.000000)">
                                    <rect id="Rectangle" x="0" y="0" width="180" height="120"></rect>
                                    <g id="Group-8" transform="translate(37.000000, 10.000000)">
                                        <g id="Group-6">
                                            <path d="M8.92205561,84.5927154 L40.313196,80.6666667 L68.3222332,87.2218573 L97.6911306,78.4031172 C100.864848,77.45013 104.210202,79.2503871 105.16319,82.424104 C105.331272,82.9838673 105.416667,83.5651858 105.416667,84.1496401 L105.416667,93.6169391 C105.416667,96.2676408 103.677301,98.6042441 101.138029,99.3647137 L68.2373513,109.217916 L40.2625657,102.666667 L10.412292,106.405166 C7.12427027,106.816964 4.12497419,104.485323 3.71317669,101.197302 C3.68220011,100.949967 3.66666667,100.700943 3.66666667,100.451676 L3.66666667,90.5463323 C3.66666667,87.5205473 5.91966148,84.9682209 8.92205561,84.5927154 Z" id="shadow" fill="#000000" opacity="0.100000001" filter="url(#filter-1)"></path>
                                            <g id="money-bag-copy">
                                                <path d="M102.726891,70.406166 C101.867526,68.4707747 100.301663,66.9837695 98.3179168,66.2194987 C96.3341707,65.4552279 94.1695714,65.5046563 92.223416,66.3596842 C92.2129741,66.3640456 92.2025323,66.3688223 92.1925081,66.3733913 L79.0380512,72.4061465 C77.990523,72.8865156 77.5331692,74.1203561 78.0160012,75.1618828 C78.499042,76.2036172 79.7399536,76.6582337 80.7870642,76.1782799 L93.9246052,70.153209 C94.8466221,69.7530052 95.8703429,69.7316139 96.8092757,70.0927734 C97.7528029,70.4564251 98.4973081,71.1633757 98.9060029,72.0840313 C99.3149064,73.0046868 99.338505,74.0281452 98.9730397,74.9664538 C98.6073654,75.9049701 97.896483,76.6453574 96.970707,77.0517917 L70.0515706,88.8718216 C65.8067423,90.7357702 60.9886554,90.62736 56.8319565,88.5737975 L46.9779654,83.7055169 C41.707328,81.1013887 35.5967466,80.9632799 30.2131282,83.3277428 L30.0878258,83.382571 L22.7841566,66.9320566 L32.9395,62.4731178 C37.7926715,60.3420898 43.2078244,60.1705443 48.1871337,61.9888027 L68.0026672,69.2254922 C69.7725638,69.8717995 70.7158822,71.841043 70.1054506,73.6148574 C69.4835329,75.4225241 67.4968631,76.3951003 65.6770543,75.7830605 L50.3536126,70.6288014 C49.2607666,70.2612038 48.0758234,70.844168 47.7061813,71.9307617 C47.3365391,73.0173555 47.9227456,74.1959525 49.0153827,74.5635501 L64.3388244,79.7178092 C65.1491134,79.9904961 65.9742298,80.1198822 66.7866072,80.1198822 C69.9782686,80.1198822 72.9694462,78.1219785 74.0574889,74.9593926 C75.3967629,71.0661803 73.3263493,66.7449349 69.442392,65.3266725 L49.6268585,58.0899831 C48.2940585,57.6031758 46.9353626,57.2353704 45.5641364,56.9849056 L41.3873891,56.5863633 C37.9373958,56.5539648 34.4911616,57.2507389 31.2525118,58.6727396 L21.0215692,63.1649076 C20.4355716,62.2928496 32.0032821,88.2552129 31.7192633,87.2064173 L31.8999076,87.1270827 C36.1449447,85.2627188 40.9636581,85.3713366 45.1195217,87.4251068 L54.9735128,92.2935951 C60.244359,94.8971003 66.3547315,95.0347936 71.73835,92.6711615 L98.6574864,80.8511315 C100.603642,79.9967266 102.098917,78.4395247 102.867439,76.4667507 C103.63596,74.4939766 103.586048,72.3415573 102.726891,70.406166 Z" id="Shape-Copy" fill="#FF701A" fill-rule="nonzero"></path>
                                                <g id="Group-5" transform="translate(0.000000, 60.761905)">
                                                    <path d="M30.0878258,22.6206662 L22.7841566,6.17015188 L21.0215692,2.40300279 C20.4355716,1.53094485 19.5998044,0.856808129 18.5959232,0.470103702 C17.306979,-0.02667234 15.9004593,0.00572609747 14.6409612,0.55878404 L1.42364432,6.31843703 C0.664102823,6.64948261 0.173543851,7.39589276 0.173543851,8.22059914 L0.173543851,43.4946057 C0.173543851,44.2158863 0.549868784,44.885454 1.16760971,45.2636434 C1.50237601,45.4682105 1.88162466,45.5714286 2.26191751,45.5714286 C2.58394472,45.5714286 2.90680729,45.4974937 3.20356519,45.3483778 L28.8640388,32.4573303 C30.101609,31.8970034 31.0520279,30.8959748 31.5440487,29.6328511 C31.9460607,28.6008778 32.0032821,27.4933081 31.7192633,26.4445126 L30.0878258,22.6206662 Z" id="Path" fill="#FF701A" fill-rule="nonzero"></path>
                                                    <path d="M27.121291,28.6822892 C27.0882947,28.696827 27.0555072,28.7124032 27.0231374,28.7286024 L4.35008233,40.11873 L4.35029116,31.7026128 L10.221336,28.8355588 C11.2567517,28.3298524 11.6838241,27.0854201 11.1755139,26.055939 C10.666995,25.0262502 9.41605914,24.6011245 8.38043464,25.1070386 L4.35008233,27.075036 L4.35008233,9.5780106 L16.3225197,4.36061607 C16.6514385,4.21648456 16.9427666,4.2875119 17.0870733,4.34317076 C17.2309622,4.39882961 17.494515,4.54067662 17.6398658,4.86819159 L18.118521,5.94606269 C18.1187298,5.94647805 18.1187298,5.94689342 18.1189387,5.94730878 C18.1191475,5.94772414 18.1193564,5.94813951 18.1195652,5.94855487 L27.6312718,27.371814 C27.8541013,27.873159 27.6254244,28.4608999 27.121291,28.6822892 Z" id="Path" fill="#DFECFD" fill-rule="nonzero"></path>
                                                    <ellipse id="Oval" fill="#FF701A" cx="16.5879519" cy="23.7004064" rx="2.08837366" ry="2.07682292"></ellipse>
                                                </g>
                                                <ellipse id="Oval" fill="#FF701A" opacity="0.5" cx="96.5663978" cy="59.6961979" rx="2.08837366" ry="2.07682292"></ellipse>
                                                <path d="M45.5641364,56.9849056 L45.5641364,45.5048516 C45.5641364,34.1853359 54.8246117,24.9760801 66.2070835,24.9760801 L73.8346594,24.9760801 C85.2173401,24.9760801 94.4778154,34.1853359 94.4778154,45.5048516 L94.4778154,50.9172598 C94.4778154,52.0640814 95.4129891,52.9940827 96.566189,52.9940827 C97.7193889,52.9940827 98.6545627,52.0640814 98.6545627,50.9172598 L98.6545627,45.5048516 C98.6545627,33.517222 90.016005,23.4996667 78.6045049,21.2816198 L78.6045049,15.0256061 L83.8811986,6.04916211 C84.1796272,5.54179427 84.2477082,4.93224674 84.0685257,4.3721276 C83.8893432,3.81200846 83.4802308,3.35344596 82.942057,3.11025 L76.470187,0.186083333 C75.9746159,-0.0377981771 75.4109639,-0.0604355469 74.8991035,0.122740234 L70.0968883,1.84151888 L65.8374414,0.148285156 C65.3477177,-0.0461054688 64.8024434,-0.0492207031 64.3104225,0.139147135 L57.5382445,2.73746029 C56.9748012,2.95365755 56.5331102,3.40204362 56.3267789,3.96673177 C56.1208653,4.53141992 56.1705685,5.15695898 56.4635674,5.68239518 L61.6596499,15.0004766 L61.6596499,21.2388372 C50.1383012,23.3692422 41.3873891,33.4389258 41.3873891,45.5044362 L41.3873891,56.5863633 L45.5641364,56.9849056 Z M73.8346594,20.8220189 L66.2070835,20.8220189 L65.8363972,20.8220189 L65.8363972,16.5400254 L74.4277576,16.5400254 L74.4277576,20.8220189 L73.8346594,20.8220189 Z M61.279357,5.75363021 L65.0486626,4.30795378 L69.2828402,5.99121875 C69.7573187,6.17979427 70.2848419,6.18913997 70.7653767,6.01676367 L75.5151737,4.31646875 L79.1073852,5.93950586 L75.3178224,12.3859642 L64.9778668,12.3859642 L61.279357,5.75363021 Z" id="Shape-Copy-2" fill="#FF701A" fill-rule="nonzero" opacity="0.5"></path>
                                                <path d="M72.3928463,44.1000885 L71.1822161,44.1000885 L70.3967787,44.1000885 L69.1861485,44.1000885 C68.1724519,44.1000885 67.347962,43.2801589 67.347962,42.272069 L67.347962,40.4172585 C67.3481709,39.4091686 68.1726608,38.5892389 69.1861485,38.5892389 L72.7388898,38.5892389 C73.5615002,38.5892389 74.2310328,39.254653 74.2310328,40.0729212 C74.2310328,41.2197428 75.1662065,42.1497441 76.3194064,42.1497441 C77.4726064,42.1497441 78.4077801,41.2197428 78.4077801,40.0729212 C78.4077801,37.0110612 75.9397401,34.5130586 72.8779755,34.4391237 L72.8779755,32.6563789 C72.8779755,31.5095573 71.9428017,30.579556 70.7896018,30.579556 C69.6364019,30.579556 68.7012282,31.5095573 68.7012282,32.6563789 L68.7012282,34.4567767 C65.6108528,34.7035033 63.1714236,37.2816712 63.1714236,40.4172585 L63.1714236,42.272069 C63.1714236,45.5702715 65.8698112,48.2537344 69.1863574,48.2537344 L70.3969876,48.2537344 L71.1824249,48.2537344 L72.3930551,48.2537344 C73.4067517,48.2537344 74.2312416,49.0736641 74.2312416,50.0815462 L74.2312416,51.9365645 C74.2312416,52.9444466 73.4067517,53.7643763 72.3930551,53.7643763 L68.8403138,53.7643763 C68.0177035,53.7643763 67.3481709,53.0989622 67.3481709,52.280694 C67.3481709,51.1338724 66.4129971,50.2038711 65.2597972,50.2038711 C64.1065973,50.2038711 63.1714236,51.1338724 63.1714236,52.280694 C63.1714236,55.3427617 65.6396724,57.8405566 68.7012282,57.9144915 L68.7012282,59.6972363 C68.7012282,60.8440579 69.6364019,61.7740592 70.7896018,61.7740592 C71.9428017,61.7740592 72.8779755,60.8440579 72.8779755,59.6972363 L72.8779755,57.8968385 C75.9683508,57.650112 78.4077801,55.0721517 78.4077801,51.9365645 L78.4077801,50.0815462 C78.4077801,46.7833438 75.7093925,44.1000885 72.3928463,44.1000885 Z" id="Path" fill="#FF701A"></path>
                                            </g>
                                        </g>
                                    </g>
                                    <g id="Atoms-/-Elements-/-Number" transform="translate(29.000000, 0.000000)">
                                        <circle id="Oval-2" stroke="#FFFFFF" stroke-width="2" fill="#FF701A" fill-rule="evenodd" cx="15" cy="15" r="14"></circle>
                                        <text id="#" font-family="Roboto-Medium, Roboto" font-size="16" font-weight="400" line-spacing="24" fill="#FFFFFF">
                                            <tspan x="10.453125" y="18.7894737">4</tspan>
                                        </text>
                                    </g>
                                </g>
                            </g>
                        </g>
                    </g>
                </g>
            </g>
        </g>
    </g>
</svg>