<?xml version="1.0" encoding="UTF-8"?>
<svg width="180px" height="148px" viewBox="0 0 180 148" version="1.1" xmlns="http://www.w3.org/2000/svg" xmlns:xlink="http://www.w3.org/1999/xlink">
    <!-- Generator: sketchtool 52.4 (67378) - http://www.bohemiancoding.com/sketch -->
    <title>E2B4418A-CFD6-4293-83B7-9B7DA70E910F</title>
    <desc>Created with sketchtool.</desc>
    <defs>
        <path d="M8,89.9 L8,5.3 C8,2.6 10.2,0.4 12.9,0.4 L136.8,0.4 C139.5,0.4 141.7,2.6 141.7,5.3 L141.6,89.9 L149.2,89.9 L149.2,93.8 C149.2,97.3 146.2,100.2 142.5,100.2 L7.1,100.2 C3.4,100.2 0.4,97.3 0.4,93.8 L0.4,89.9 L8,89.9 Z" id="path-1"></path>
        <filter x="-21.2%" y="-16.5%" width="142.3%" height="163.1%" filterUnits="objectBoundingBox" id="filter-2">
            <feOffset dx="0" dy="15" in="SourceAlpha" result="shadowOffsetOuter1"></feOffset>
            <feGaussianBlur stdDeviation="8" in="shadowOffsetOuter1" result="shadowBlurOuter1"></feGaussianBlur>
            <feColorMatrix values="0 0 0 0 0   0 0 0 0 0   0 0 0 0 0  0 0 0 0.12 0" type="matrix" in="shadowBlurOuter1"></feColorMatrix>
        </filter>
    </defs>
    <g id="Page-1" stroke="none" stroke-width="1" fill="none" fill-rule="evenodd">
        <g id="Page-3:-Marketing-Affiliate-Program" transform="translate(-199.000000, -659.000000)">
            <g id="1" transform="translate(0.000000, 168.000000)">
                <g id="Group-14" transform="translate(136.000000, 320.000000)">
                    <g id="Group-16">
                        <g id="Group-15" transform="translate(53.000000, 0.000000)">
                            <g id="Group-10" transform="translate(0.000000, 177.000000)">
                                <g id="icon" transform="translate(10.000000, 0.000000)">
                                    <rect id="Rectangle" x="0" y="0" width="180" height="120"></rect>
                                    <g id="rewg-icon" transform="translate(15.000000, 11.000000)">
                                        <g id="Group">
                                            <g>
                                                <g id="shadow">
                                                    <use fill="black" fill-opacity="1" filter="url(#filter-2)" xlink:href="#path-1"></use>
                                                    <use fill="#DFECFD" fill-rule="evenodd" xlink:href="#path-1"></use>
                                                </g>
                                                <g id="Group-7">
                                                    <path d="M149.2,89.9 L149.2,93.8 C149.2,97.3 146.2,100.2 142.5,100.2 L7.1,100.2 C3.4,100.2 0.4,97.3 0.4,93.8 L0.4,89.9 L61.7,89.9 C62.2,91.3 63.6,92.4 65.3,92.4 L84.4,92.4 C86.1,92.4 87.5,91.4 88,89.9 L149.2,89.9 Z" id="Path" fill="#e26212"></path>
                                                    <path d="M141.6,89.9 L8,89.9 L8,5.3 C8,2.6 10.2,0.4 12.9,0.4 L136.8,0.4 C139.5,0.4 141.7,2.6 141.7,5.3 L141.6,89.9 Z" id="Path" fill="#FF701A"></path>
                                                    <polygon id="Path" fill="#FFFFFF" points="88.8687202 93.3 60.6183369 93.3 14.3 90.3 14.3 7.5 134.9 7.5 134.9 90.3"></polygon>
                                                    <path d="M149.2,89.9 C149.2,93.4 146.2,96.3 142.5,96.3 L7.1,96.3 C3.4,96.3 0.4,93.4 0.4,89.9 L61.7,89.9 C62.2,91.3 63.6,92.4 65.3,92.4 L84.4,92.4 C86.1,92.4 87.5,91.4 88,89.9 L149.2,89.9 Z" id="Path" fill="#FF701A"></path>
                                                    <path d="M14.3,7.5 L134.9,7.5" id="Path" fill="#FFFFFF"></path>
                                                </g>
                                            </g>
                                            <rect id="Rectangle" fill="#DFECFD" x="40" y="40" width="70" height="10" rx="2"></rect>
                                            <rect id="Rectangle-Copy" fill="#DFECFD" x="40" y="54" width="70" height="10" rx="2"></rect>
                                            <rect id="Rectangle-Copy-2" fill="#FF701A" x="60" y="70" width="30" height="8" rx="4"></rect>
                                        </g>
                                        <g id="AM-Logo/Dark" transform="translate(55.000000, 20.000000)">
                                            <g id="AM-Logo">
                                                <g id="Group">
                                                    <path d="M5.56385199,7.42916998 C5.56385199,8.96468998 4.31757199,10.21013 2.78261199,10.21013 C1.246812,10.21013 -2.79999999e-05,8.96468998 -2.79999999e-05,7.42916998 C-2.79999999e-05,5.89252999 1.246812,4.64610999 2.78261199,4.64610999 C4.31757199,4.64610999 5.56385199,5.89252999 5.56385199,7.42916998" id="Fill-1" fill="#DA1924"></path>
                                                    <path d="M10.267936,2.78319999 C10.267936,4.32025999 9.02123598,5.56541999 7.48543598,5.56541999 C5.95033599,5.56541999 4.70461599,4.32025999 4.70461599,2.78319999 C4.70461599,1.24656 5.95033599,0.00237999999 7.48543598,0.00237999999 C9.02123598,0.00237999999 10.267936,1.24656 10.267936,2.78319999" id="Fill-4" fill="#FF701A"></path>
                                                </g>
                                                <g id="Group-2" transform="translate(12.180000, 0.000000)" fill="#002F5F">
                                                    <path d="M2.11834,1.005312 C2.10658,0.941611998 2.09286,0.910111998 2.03476,0.910111998 C1.97666,0.910111998 1.95902,0.941611998 1.94516,1.005312 L1.55414,2.77183199 L2.50837999,2.77183199 L2.11834,1.005312 Z M3.94365999,4.81527199 L3.04527999,4.81527199 C2.98213999,4.81527199 2.93117999,4.76389199 2.91899999,4.70005199 L2.68771999,3.64907199 L1.37578,3.64907199 L1.14464,4.70005199 C1.13246,4.76389199 1.08136,4.81527199 1.01626,4.81527199 L0.12096,4.81527199 C0.0566999999,4.81527199 0.01204,4.77593199 0.01204,4.71167199 C0.01204,4.70579199 0.01806,4.69361199 0.01806,4.68031199 L0.972439998,0.710611998 C1.11916,0.0965719998 1.59278,-2.79999999e-05 2.03476,-2.79999999e-05 C2.47687999,-2.79999999e-05 2.94433999,0.0965719998 3.09105999,0.710611998 L4.04543999,4.68031199 C4.04543999,4.69361199 4.05145999,4.70579199 4.05145999,4.71167199 C4.05145999,4.77593199 4.00665999,4.81527199 3.94365999,4.81527199 Z" id="Fill-6"></path>
                                                    <path d="M6.79869399,2.023182 C6.79869399,1.158962 6.42769399,0.928381998 5.85033399,0.928381998 C5.69045399,0.928381998 5.48577399,0.934681998 5.39701399,0.941541998 L5.39701399,3.93152199 C5.48577399,3.93726199 5.69045399,3.94440199 5.85033399,3.94440199 C6.42769399,3.94440199 6.79869399,3.71298199 6.79869399,2.84918199 L6.79869399,2.023182 Z M5.85033399,4.87218199 C5.31861399,4.87218199 4.74923399,4.82094199 4.48645399,4.77586199 C4.36577399,4.75696199 4.30109399,4.69998199 4.30109399,4.55242199 L4.30109399,0.319801999 C4.30109399,0.173502 4.36577399,0.115262 4.48645399,0.0965019998 C4.74923399,0.0512819999 5.31861399,4.19999999e-05 5.85033399,4.19999999e-05 C7.12447398,4.19999999e-05 7.89251398,0.672321999 7.89251398,2.023182 L7.89251398,2.84918199 C7.89251398,4.20018199 7.12447398,4.87218199 5.85033399,4.87218199 Z" id="Fill-8"></path>
                                                    <path d="M12.47813,4.81525799 L11.63127,4.81525799 C11.57471,4.81525799 11.53103,4.75701799 11.53103,4.68659799 L11.53103,2.015958 C11.53103,1.971438 11.51017,1.966118 11.49813,1.966118 C11.47867,1.966118 11.46565,1.978158 11.44619,2.009938 L10.87093,3.06637799 C10.82599,3.14337799 10.76173,3.17599799 10.67703,3.17599799 L10.16561,3.17599799 C10.08315,3.17599799 10.01917,3.14337799 9.97422998,3.06637799 L9.39784998,2.009938 C9.37852998,1.978158 9.36536998,1.966118 9.34730998,1.966118 C9.33470998,1.966118 9.31468998,1.971438 9.31468998,2.015958 L9.31468998,4.68659799 C9.31468998,4.75701799 9.27044998,4.81525799 9.21248998,4.81525799 L8.36702998,4.81525799 C8.31536998,4.81525799 8.25922998,4.79621799 8.25922998,4.72453799 L8.25922998,0.275337999 C8.25922998,0.140798 8.35386998,0.0584779999 8.48924998,0.0584779999 L9.09138998,0.0584779999 C9.22564998,0.0584779999 9.31468998,0.122318 9.37166998,0.230258 L10.35181,2.055718 C10.37869,2.106118 10.39703,2.138318 10.42251,2.138318 C10.44813,2.138318 10.46731,2.106118 10.49279,2.055718 L11.47167,0.230258 C11.53103,0.122318 11.61923,0.0584779999 11.75461,0.0584779999 L12.35563,0.0584779999 C12.49017,0.0584779999 12.58705,0.147378 12.58705,0.282057999 L12.58705,4.72453799 C12.58705,4.79621799 12.52895,4.81525799 12.47813,4.81525799" id="Fill-10"></path>
                                                    <path d="M14.135436,4.81525799 L13.277376,4.81525799 C13.207096,4.81525799 13.163416,4.75701799 13.163416,4.68659799 L13.163416,0.178738 C13.163416,0.109438 13.207096,0.0584779999 13.277376,0.0584779999 L14.135436,0.0584779999 C14.206276,0.0584779999 14.257096,0.109438 14.257096,0.178738 L14.257096,4.68659799 C14.257096,4.75701799 14.206276,4.81525799 14.135436,4.81525799" id="Fill-12"></path>
                                                    <path d="M17.260824,1.498042 C17.260824,1.107722 16.959544,0.928381998 16.421664,0.928381998 C16.332484,0.928381998 15.998864,0.941541998 15.922284,0.947421998 L15.922284,2.177042 C15.991864,2.183202 16.306864,2.190062 16.376864,2.190062 C17.049284,2.190062 17.260824,2.015902 17.260824,1.581342 L17.260824,1.498042 Z M18.413024,4.81520199 L17.434284,4.81520199 C17.362884,4.81520199 17.337404,4.75080199 17.304784,4.68654199 L16.447844,3.06632199 L16.376864,3.07416199 C16.242324,3.07416199 16.043804,3.05946199 15.922284,3.05946199 L15.922284,4.68654199 C15.922284,4.75696199 15.864324,4.81520199 15.795024,4.81520199 L14.962304,4.81520199 C14.891744,4.81520199 14.833784,4.75696199 14.833784,4.68654199 L14.833784,0.390361999 C14.833784,0.173502 14.924784,0.115262 15.122044,0.0833419998 C15.416464,0.0378419999 15.960364,4.19999999e-05 16.421664,4.19999999e-05 C17.509604,4.19999999e-05 18.347784,0.365161999 18.347784,1.498042 L18.347784,1.581342 C18.347784,2.260202 17.990364,2.67572199 17.522764,2.86136199 L18.490304,4.66722199 C18.501364,4.69354199 18.508504,4.71846199 18.508504,4.73848199 C18.508504,4.78258199 18.483304,4.81520199 18.413024,4.81520199 Z" id="Fill-14"></path>
                                                    <path d="M20.64762,1.005312 C20.63418,0.941611998 20.62186,0.910111998 20.56418,0.910111998 C20.50594,0.910111998 20.48662,0.941611998 20.47402,1.005312 L20.08482,2.77183199 L21.0378,2.77183199 L20.64762,1.005312 Z M22.47168,4.81527199 L21.57568,4.81527199 C21.51142,4.81527199 21.4613,4.76389199 21.44716,4.70005199 L21.21686,3.64907199 L19.90408,3.64907199 L19.67392,4.70005199 C19.66048,4.76389199 19.61106,4.81527199 19.54652,4.81527199 L18.65038,4.81527199 C18.58612,4.81527199 18.54132,4.77593199 18.54132,4.71167199 C18.54132,4.70579199 18.54734,4.69361199 18.54734,4.68031199 L19.50088,0.710611998 C19.64816,0.0965719998 20.12206,-2.79999999e-05 20.56418,-2.79999999e-05 C21.00532,-2.79999999e-05 21.47264,0.0965719998 21.6202,0.710611998 L22.57486,4.68031199 C22.57486,4.69361199 22.58116,4.70579199 22.58116,4.71167199 C22.58116,4.77593199 22.53594,4.81527199 22.47168,4.81527199 Z" id="Fill-16"></path>
                                                    <path d="M25.3083599,4.78955399 C25.0966799,4.83435399 24.6037399,4.87215399 24.2643799,4.87215399 C23.43964,4.87215399 22.7031,4.66089399 22.7031,3.49595399 L22.7031,0.185934 C22.7031,0.115234 22.76036,0.0585339999 22.83134,0.0585339999 L23.6696599,0.0585339999 C23.7388199,0.0585339999 23.7970599,0.115234 23.7970599,0.185934 L23.7970599,3.49595399 C23.7970599,3.82831399 23.9069599,3.93149399 24.2075399,3.93149399 L25.3083599,3.93149399 C25.3786399,3.93149399 25.4368799,3.98833399 25.4368799,4.05917399 L25.4368799,4.65459399 C25.4368799,4.73845399 25.3986599,4.77009399 25.3083599,4.78955399" id="Fill-18"></path>
                                                    <path d="M4.23788399,10.210718 L3.39368399,10.210718 C3.33446399,10.210718 3.28966399,10.153318 3.28966399,10.082758 L3.28966399,7.41309798 C3.28966399,7.36871798 3.27132399,7.36115798 3.25704399,7.36115798 C3.23884399,7.36115798 3.22652399,7.37529798 3.20720399,7.40791798 L2.63068399,8.46379798 C2.58588399,8.53981798 2.52162399,8.57243798 2.43818399,8.57243798 L1.926344,8.57243798 C1.843324,8.57243798 1.779204,8.53981798 1.734404,8.46379798 L1.157884,7.40791798 C1.138424,7.37529798 1.125824,7.36115798 1.107064,7.36115798 C1.094744,7.36115798 1.075284,7.36871798 1.075284,7.41309798 L1.075284,10.082758 C1.075284,10.153318 1.029504,10.210718 0.972523998,10.210718 L0.127064,10.210718 C0.0761039998,10.210718 0.018004,10.191538 0.018004,10.120978 L0.018004,5.67205799 C0.018004,5.53835799 0.113764,5.45379799 0.249423999,5.45379799 L0.850303998,5.45379799 C0.985123998,5.45379799 1.075284,5.51777799 1.132404,5.62711799 L2.112264,7.45215798 C2.137744,7.50199798 2.156924,7.53517798 2.182544,7.53517798 C2.206904,7.53517798 2.227344,7.50199798 2.251704,7.45215798 L3.23156399,5.62711799 C3.28966399,5.51777799 3.37926399,5.45379799 3.51366399,5.45379799 L4.11566399,5.45379799 C4.25118399,5.45379799 4.34582399,5.54451799 4.34582399,5.67891799 L4.34582399,10.120978 C4.34582399,10.191538 4.28786399,10.210718 4.23788399,10.210718" id="Fill-20"></path>
                                                    <path d="M6.70272399,6.40187799 C6.68970399,6.33733799 6.67724399,6.30541799 6.61970399,6.30541799 C6.56230399,6.30541799 6.54298399,6.33733799 6.52954399,6.40187799 L6.13866399,8.16825798 L7.09262398,8.16825798 L6.70272399,6.40187799 Z M8.52804398,10.210718 L7.63064398,10.210718 C7.56652398,10.210718 7.51556398,10.159618 7.50254398,10.095358 L7.27112398,9.04633798 L5.96044399,9.04633798 L5.72902399,10.095358 C5.71698399,10.159618 5.66434399,10.210718 5.60064399,10.210718 L4.70436399,10.210718 C4.64122399,10.210718 4.59698399,10.172778 4.59698399,10.108798 C4.59698399,10.103058 4.60258399,10.089618 4.60258399,10.076738 L5.55598399,6.10759799 C5.70368399,5.49285799 6.17814399,5.39709799 6.61970399,5.39709799 C7.06126398,5.39709799 7.52774398,5.49285799 7.67656398,6.10759799 L8.62982398,10.076738 C8.62982398,10.089618 8.63612398,10.103058 8.63612398,10.108798 C8.63612398,10.172778 8.59118398,10.210718 8.52804398,10.210718 Z" id="Fill-22"></path>
                                                    <path d="M11.312742,6.89351599 C11.312742,6.50403599 11.011182,6.32455599 10.472462,6.32455599 C10.383842,6.32455599 10.050502,6.33729599 9.97420198,6.34457599 L9.97420198,7.57307598 C10.044482,7.58077598 10.357942,7.58581598 10.428642,7.58581598 C11.101342,7.58581598 11.312742,7.41305598 11.312742,6.97793599 L11.312742,6.89351599 Z M12.464522,10.210676 L11.483962,10.210676 C11.414522,10.210676 11.389042,10.146976 11.356422,10.082716 L10.498782,8.46389598 L10.428642,8.46963598 C10.293962,8.46963598 10.096702,8.45591598 9.97420198,8.45591598 L9.97420198,10.082716 C9.97420198,10.153276 9.91708198,10.210676 9.84708198,10.210676 L9.01394198,10.210676 C8.94338198,10.210676 8.88654198,10.153276 8.88654198,10.082716 L8.88654198,5.78709599 C8.88654198,5.56995599 8.97516198,5.51241599 9.17480198,5.47979599 C9.46838198,5.43499599 10.013122,5.39719599 10.472462,5.39719599 C11.562362,5.39719599 12.400542,5.76161599 12.400542,6.89351599 L12.400542,6.97793599 C12.400542,7.65637598 12.041722,8.07315598 11.575522,8.25879598 L12.542082,10.063956 C12.554122,10.089576 12.561542,10.115896 12.561542,10.133676 C12.561542,10.179596 12.534802,10.210676 12.464522,10.210676 Z" id="Fill-24"></path>
                                                    <path d="M16.613058,5.61464399 L15.090558,7.77820398 L16.620478,10.076724 C16.639518,10.103044 16.645538,10.127544 16.645538,10.147004 C16.645538,10.185504 16.613058,10.210704 16.556218,10.210704 L15.455258,10.210704 C15.377698,10.210704 15.346198,10.172764 15.313438,10.120964 L14.014798,8.00920398 L14.014798,10.082744 C14.014798,10.153304 13.955858,10.210704 13.885578,10.210704 L13.047958,10.210704 C12.975998,10.210704 12.919438,10.153304 12.919438,10.082744 L12.919438,5.57558399 C12.919438,5.50502399 12.975998,5.45392399 13.047958,5.45392399 L13.885578,5.45392399 C13.955858,5.45392399 14.014798,5.50502399 14.014798,5.57558399 L14.014798,7.61244398 L15.422498,5.53064399 C15.455258,5.47982399 15.493058,5.45392399 15.562778,5.45392399 L16.543058,5.45392399 C16.613058,5.45392399 16.645538,5.48612399 16.645538,5.52420399 C16.645538,5.54982399 16.633498,5.58202399 16.613058,5.61464399" id="Fill-26"></path>
                                                    <path d="M19.375594,10.18556 C19.150334,10.21762 18.825394,10.26844 18.133934,10.26844 C17.307094,10.26844 16.577554,10.0576 16.577554,8.89223998 L16.577554,6.76647999 C16.577554,5.60111999 17.313114,5.39713999 18.139114,5.39713999 C18.831134,5.39713999 19.150334,5.44767999 19.375594,5.47987999 C19.465054,5.49275999 19.502714,5.52425999 19.502714,5.60839999 L19.502714,6.20381999 C19.502714,6.27325999 19.445034,6.33023999 19.375594,6.33023999 L18.076114,6.33023999 C17.773574,6.33023999 17.665774,6.43397999 17.665774,6.76647999 L17.665774,7.34887998 L19.323374,7.34887998 C19.394774,7.34887998 19.451894,7.40795998 19.451894,7.47683998 L19.451894,8.08569998 C19.451894,8.15541998 19.394774,8.21407998 19.323374,8.21407998 L17.665774,8.21407998 L17.665774,8.89223998 C17.665774,9.22543998 17.773574,9.32805998 18.076114,9.32805998 L19.375594,9.32805998 C19.445034,9.32805998 19.502714,9.38545998 19.502714,9.45545998 L19.502714,10.05102 C19.502714,10.13362 19.465054,10.17268 19.375594,10.18556" id="Fill-28"></path>
                                                    <path d="M23.08012,6.35647599 L22.043,6.35647599 L22.043,10.082716 C22.043,10.153276 21.98616,10.210676 21.91476,10.210676 L21.07658,10.210676 C21.0063,10.210676 20.94806,10.153276 20.94806,10.082716 L20.94806,6.35647599 L19.90408,6.35647599 C19.83366,6.35647599 19.77696,6.30537599 19.77696,6.23523599 L19.77696,5.57555599 C19.77696,5.50499599 19.83366,5.45389599 19.90408,5.45389599 L23.08012,5.45389599 C23.15124,5.45389599 23.21438,5.50499599 23.21438,5.57555599 L23.21438,6.23523599 C23.21438,6.30537599 23.15124,6.35647599 23.08012,6.35647599" id="Fill-31"></path>
                                                    <path d="M24.8033239,10.268412 C24.2961039,10.268412 23.9182439,10.210732 23.5920439,10.127572 C23.5296039,10.108672 23.464784,10.069332 23.464784,9.99989198 L23.464784,9.37213198 C23.464784,9.28295198 23.5154639,9.25173198 23.5800039,9.25173198 L23.5983439,9.25173198 C23.8615439,9.27693198 24.5651839,9.32803198 24.8153639,9.32803198 C25.2574839,9.32803198 25.3850239,9.18775198 25.3850239,8.87933198 C25.3850239,8.69453198 25.2952839,8.59135198 24.9622239,8.39325198 L24.0789639,7.86783198 C23.483264,7.51587198 23.324364,7.11169198 23.324364,6.64549199 C23.324364,5.94073199 23.7205639,5.39711199 24.9622239,5.39711199 C25.4298239,5.39711199 26.0767639,5.47341199 26.3192439,5.53837199 C26.3710439,5.54985199 26.4158439,5.58191199 26.4158439,5.65317199 L26.4158439,6.29969199 C26.4158439,6.35653199 26.3900839,6.40889199 26.3074839,6.40889199 L26.2943239,6.40889199 C26.1152639,6.39629199 25.3718639,6.33735199 24.9367439,6.33735199 C24.5728839,6.33735199 24.4377839,6.44599199 24.4377839,6.67713199 C24.4377839,6.85605199 24.5203839,6.93991199 24.8664639,7.12569198 L25.6863039,7.56627198 C26.3525639,7.92523198 26.5501039,8.34775198 26.5501039,8.86645198 C26.5501039,9.54405198 26.1028039,10.268412 24.8033239,10.268412" id="Fill-33"></path>
                                                </g>
                                            </g>
                                        </g>
                                    </g>
                                    <g id="Atoms-/-Elements-/-Number" transform="translate(9.000000, 0.000000)">
                                        <circle id="Oval-2" stroke="#FFFFFF" stroke-width="2" fill="#FF701A" fill-rule="evenodd" cx="15" cy="15" r="14"></circle>
                                        <text id="#" font-family="Roboto-Medium, Roboto" font-size="16" font-weight="400" line-spacing="24" fill="#FFFFFF">
                                            <tspan x="10.453125" y="18.7894737">1</tspan>
                                        </text>
                                    </g>
                                </g>
                            </g>
                        </g>
                    </g>
                </g>
            </g>
        </g>
    </g>
</svg>