<svg xmlns="http://www.w3.org/2000/svg" width="13.348" height="17.798" viewBox="0 0 13.348 17.798">
  <path id="Icon_awesome-file-pdf" data-name="Icon awesome-file-pdf" d="M6.323,8.9a3.354,3.354,0,0,1-.07-1.63C6.545,7.272,6.518,8.555,6.323,8.9Zm-.059,1.641a16.04,16.04,0,0,1-.987,2.18,12.8,12.8,0,0,1,2.186-.761A4.5,4.5,0,0,1,6.264,10.543ZM2.993,14.881c0,.028.459-.188,1.213-1.4A4.8,4.8,0,0,0,2.993,14.881ZM8.621,5.562h4.727v11.4a.832.832,0,0,1-.834.834H.834A.832.832,0,0,1,0,16.963V.834A.832.832,0,0,1,.834,0H7.786V4.727A.837.837,0,0,0,8.621,5.562Zm-.278,5.972a3.489,3.489,0,0,1-1.484-1.87,5,5,0,0,0,.216-2.232A.871.871,0,0,0,5.412,7.2a5.78,5.78,0,0,0,.282,2.677,32.641,32.641,0,0,1-1.418,2.982s0,0-.007,0c-.942.483-2.558,1.547-1.894,2.364a1.08,1.08,0,0,0,.747.348c.622,0,1.241-.626,2.124-2.148a19.814,19.814,0,0,1,2.746-.806,5.268,5.268,0,0,0,2.225.678.9.9,0,0,0,.685-1.509C10.418,11.311,9.013,11.447,8.343,11.534ZM13.1,3.65,9.7.243A.834.834,0,0,0,9.107,0H8.9V4.449h4.449V4.237A.832.832,0,0,0,13.1,3.65Zm-2.576,8.874c.143-.094-.087-.414-1.488-.313C10.331,12.761,10.529,12.524,10.529,12.524Z" fill="#ff701a"/>
</svg>
