<svg xmlns="http://www.w3.org/2000/svg" width="21.696" height="26.561" viewBox="0 0 21.696 26.561">
  <path id="Icon_awesome-android" data-name="Icon awesome-android" d="M5.5,12.48v6.868a1.589,1.589,0,0,1-1.554,1.643,1.722,1.722,0,0,1-1.7-1.643V12.48a1.72,1.72,0,0,1,1.7-1.631A1.6,1.6,0,0,1,5.5,12.48Zm.61,9.312a1.712,1.712,0,0,0,1.672,1.756H8.911l.017,3.624a1.561,1.561,0,1,0,3.119,0V23.548h2.1v3.624a1.569,1.569,0,1,0,3.136,0V23.548h1.141a1.71,1.71,0,0,0,1.661-1.756V11.152H6.115v10.64ZM20.127,10.576H6.052a6.7,6.7,0,0,1,3.593-5.9L8.567,2.587a.221.221,0,1,1,.379-.225l1.1,2.111a7.3,7.3,0,0,1,6.119,0l1.09-2.106a.221.221,0,1,1,.379.225L16.55,4.681A6.713,6.713,0,0,1,20.127,10.576ZM10.482,7.285a.609.609,0,0,0-.593-.623.625.625,0,0,0,0,1.246A.609.609,0,0,0,10.482,7.285Zm6.407,0a.586.586,0,1,0-.576.623A.606.606,0,0,0,16.889,7.285Zm5.356,3.565a1.589,1.589,0,0,0-1.554,1.631v6.868a1.6,1.6,0,0,0,1.554,1.643,1.718,1.718,0,0,0,1.7-1.643V12.48A1.708,1.708,0,0,0,22.245,10.849Z" transform="translate(-2.25 -2.245)" fill="#ff701a"/>
</svg>
