<svg xmlns="http://www.w3.org/2000/svg" width="15.89" height="15.89" viewBox="0 0 15.89 15.89">
  <path id="Icon_awesome-plus" data-name="Icon awesome-plus" d="M14.755,8.492H9.647V3.385A1.135,1.135,0,0,0,8.512,2.25H7.377A1.135,1.135,0,0,0,6.242,3.385V8.492H1.135A1.135,1.135,0,0,0,0,9.627v1.135A1.135,1.135,0,0,0,1.135,11.9H6.242V17A1.135,1.135,0,0,0,7.377,18.14H8.512A1.135,1.135,0,0,0,9.647,17V11.9h5.107a1.135,1.135,0,0,0,1.135-1.135V9.627A1.135,1.135,0,0,0,14.755,8.492Z" transform="translate(0 -2.25)" fill="#6c6c6c"/>
</svg>
