<svg xmlns="http://www.w3.org/2000/svg" width="30.451" height="22.838" viewBox="0 0 30.451 22.838">
  <path id="Icon_awesome-chart-area" data-name="Icon awesome-chart-area" d="M29.737,23.532a.716.716,0,0,1,.714.714v2.379a.716.716,0,0,1-.714.714H.714A.716.716,0,0,1,0,26.625V5.214A.716.716,0,0,1,.714,4.5H3.093a.716.716,0,0,1,.714.714V23.532ZM22.166,10.18l-5.038,3.36L12.056,6.778a.715.715,0,0,0-1.184.059L5.71,15.443v6.185H28.548L23.2,10.459a.714.714,0,0,0-1.035-.28Z" transform="translate(0 -4.5)" fill="#fff"/>
</svg>
