<svg xmlns="http://www.w3.org/2000/svg" width="14.916" height="10.326" viewBox="0 0 14.916 10.326">
  <g id="Icon_ionic-ios-mail" data-name="Icon ionic-ios-mail" transform="translate(-3.375 -7.875)">
    <path id="Path_59" data-name="Path 59" d="M18.169,10.336l-3.858,3.93a.069.069,0,0,0,0,.1l2.7,2.876a.465.465,0,0,1,0,.66.467.467,0,0,1-.66,0l-2.689-2.865a.074.074,0,0,0-.1,0L12.9,15.7a2.887,2.887,0,0,1-2.058.868,2.945,2.945,0,0,1-2.1-.893l-.631-.642a.074.074,0,0,0-.1,0L5.318,17.9a.467.467,0,0,1-.66,0,.465.465,0,0,1,0-.66l2.7-2.876a.076.076,0,0,0,0-.1L3.5,10.336a.071.071,0,0,0-.122.05v7.863A1.151,1.151,0,0,0,4.522,19.4H17.143a1.151,1.151,0,0,0,1.147-1.147V10.386A.072.072,0,0,0,18.169,10.336Z" transform="translate(0 -1.195)" fill="#adadad"/>
    <path id="Path_60" data-name="Path 60" d="M11.25,14.44a1.949,1.949,0,0,0,1.4-.588l5.626-5.726a1.127,1.127,0,0,0-.71-.251H4.936a1.119,1.119,0,0,0-.71.251l5.626,5.726A1.95,1.95,0,0,0,11.25,14.44Z" transform="translate(-0.417)" fill="#adadad"/>
  </g>
</svg>
