<svg xmlns="http://www.w3.org/2000/svg" width="18.24" height="22.401" viewBox="0 0 18.24 22.401">
  <path id="Icon_metro-apple" data-name="Icon metro-apple" d="M20.67,13.831a5.068,5.068,0,0,1,2.418-4.265,5.231,5.231,0,0,0-4.1-2.22c-1.744-.177-3.4,1.027-4.289,1.027s-2.249-1-3.7-.975a5.481,5.481,0,0,0-4.634,2.808c-1.975,3.428-.506,8.506,1.42,11.286.941,1.361,2.063,2.889,3.536,2.835,1.418-.057,1.955-.918,3.67-.918s2.2.918,3.7.89c1.526-.028,2.493-1.387,3.428-2.752a12.348,12.348,0,0,0,1.552-3.186,4.948,4.948,0,0,1-3.006-4.531ZM17.849,5.505a4.937,4.937,0,0,0,1.166-3.577,5.022,5.022,0,0,0-3.3,1.7A4.7,4.7,0,0,0,14.526,7.09,4.155,4.155,0,0,0,17.849,5.505Z" transform="translate(-5.436 -1.928)" fill="#fff"/>
</svg>
