<svg xmlns="http://www.w3.org/2000/svg" width="22.964" height="22.964" viewBox="0 0 22.964 22.964">
  <path id="Icon_metro-earth" data-name="Icon metro-earth" d="M14.053,1.928A11.482,11.482,0,1,0,25.534,13.41,11.482,11.482,0,0,0,14.053,1.928Zm0,21.528a10.013,10.013,0,0,1-3.974-.817l5.228-5.882a.718.718,0,0,0,.181-.477V14.127a.718.718,0,0,0-.718-.718c-2.534,0-5.207-2.634-5.234-2.66a.717.717,0,0,0-.507-.21H6.159a.718.718,0,0,0-.718.718v4.306a.718.718,0,0,0,.4.642l2.474,1.237v4.213A10.053,10.053,0,0,1,4.973,9.1H7.594a.718.718,0,0,0,.507-.21l2.87-2.87a.718.718,0,0,0,.21-.507V3.78a10.075,10.075,0,0,1,7.272.6c-.093.079-.183.161-.27.247a4.306,4.306,0,0,0,3.042,7.351q.106,0,.213-.005a16.852,16.852,0,0,1-.188,8.35.716.716,0,0,0-.019.117,10.015,10.015,0,0,1-7.179,3.02Z" transform="translate(-2.571 -1.928)" fill="#fff"/>
</svg>
